LXGWWenKaiMono-Regular.ufo
<glyph name="exclam" format="2">
  <advance height="1000" width="500"/>
  <unicode hex="0021"/>
  <outline>
    <contour>
      <point x="260" y="165" type="qcurve"/>
      <point x="276" y="165"/>
      <point x="276" y="172" type="qcurve"/>
      <point x="276" y="223" type="line"/>
      <point x="288" y="609" type="line"/>
      <point x="294" y="681" type="line"/>
      <point x="294" y="694"/>
      <point x="253" y="712"/>
      <point x="235" y="712" type="qcurve"/>
      <point x="213" y="712"/>
      <point x="209" y="695" type="qcurve"/>
      <point x="212" y="660" type="line"/>
      <point x="214" y="640"/>
      <point x="220" y="227" type="qcurve"/>
      <point x="220" y="208"/>
      <point x="218" y="188" type="qcurve"/>
      <point x="218" y="177"/>
      <point x="247" y="165"/>
    </contour>
    <contour>
      <point x="248" y="-9" type="qcurve"/>
      <point x="275" y="-9"/>
      <point x="300" y="17"/>
      <point x="300" y="37" type="qcurve"/>
      <point x="300" y="60"/>
      <point x="267" y="101"/>
      <point x="248" y="101" type="qcurve"/>
      <point x="221" y="101"/>
      <point x="195" y="72"/>
      <point x="195" y="51" type="qcurve"/>
      <point x="195" y="29"/>
      <point x="227" y="-9"/>
    </contour>
  </outline>
</glyph>
<glyph name="quotedbl" format="2">
  <advance height="1000" width="500"/>
  <unicode hex="0022"/>
  <outline>
    <contour>
      <point x="324" y="476" type="qcurve"/>
      <point x="355" y="476"/>
      <point x="355" y="492" type="qcurve"/>
      <point x="361" y="703" type="line"/>
      <point x="361" y="714"/>
      <point x="338" y="725"/>
      <point x="324" y="725" type="qcurve"/>
      <point x="311" y="725"/>
      <point x="287" y="714"/>
      <point x="287" y="703" type="qcurve"/>
      <point x="293" y="492" type="line"/>
      <point x="293" y="476"/>
    </contour>
    <contour>
      <point x="176" y="476" type="qcurve"/>
      <point x="207" y="476"/>
      <point x="207" y="492" type="qcurve"/>
      <point x="213" y="703" type="line"/>
      <point x="213" y="714"/>
      <point x="190" y="725"/>
      <point x="176" y="725" type="qcurve"/>
      <point x="163" y="725"/>
      <point x="139" y="714"/>
      <point x="139" y="703" type="qcurve"/>
      <point x="145" y="492" type="line"/>
      <point x="145" y="476"/>
    </contour>
  </outline>
</glyph>
<glyph name="numbersign" format="2">
  <advance height="1000" width="500"/>
  <unicode hex="0023"/>
  <outline>
    <contour>
      <point x="293" y="268" type="line"/>
      <point x="316" y="465" type="line"/>
      <point x="207" y="465" type="line"/>
      <point x="183" y="268" type="line"/>
    </contour>
    <contour>
      <point x="287" y="-7" type="qcurve"/>
      <point x="275" y="-7"/>
      <point x="257" y="1"/>
      <point x="257" y="7" type="qcurve"/>
      <point x="260" y="25" type="line"/>
      <point x="268" y="52"/>
      <point x="269" y="74" type="qcurve"/>
      <point x="285" y="210" type="line"/>
      <point x="176" y="210" type="line"/>
      <point x="160" y="72" type="line"/>
      <point x="155" y="9" type="line"/>
      <point x="154" y="3"/>
      <point x="132" y="-7"/>
      <point x="118" y="-7" type="qcurve"/>
      <point x="87" y="-7"/>
      <point x="87" y="9" type="qcurve"/>
      <point x="89" y="22"/>
      <point x="96" y="54"/>
      <point x="99" y="74" type="qcurve"/>
      <point x="115" y="210" type="line"/>
      <point x="64" y="210"/>
      <point x="47" y="207" type="qcurve"/>
      <point x="25" y="207"/>
      <point x="25" y="250" type="qcurve"/>
      <point x="25" y="270"/>
      <point x="43" y="270" type="qcurve"/>
      <point x="73" y="268"/>
      <point x="122" y="268" type="qcurve"/>
      <point x="146" y="465" type="line"/>
      <point x="89" y="465"/>
      <point x="70" y="462" type="qcurve"/>
      <point x="59" y="462"/>
      <point x="48" y="489"/>
      <point x="48" y="501" type="qcurve"/>
      <point x="48" y="525"/>
      <point x="65" y="525" type="qcurve"/>
      <point x="96" y="523"/>
      <point x="153" y="523" type="qcurve"/>
      <point x="172" y="679"/>
      <point x="174" y="705" type="qcurve"/>
      <point x="174" y="717"/>
      <point x="198" y="717" type="qcurve"/>
      <point x="212" y="717"/>
      <point x="238" y="705"/>
      <point x="238" y="693" type="qcurve"/>
      <point x="237" y="690"/>
      <point x="232" y="671"/>
      <point x="214" y="523" type="qcurve"/>
      <point x="323" y="523" type="line"/>
      <point x="341" y="681"/>
      <point x="343" y="705" type="qcurve"/>
      <point x="343" y="717"/>
      <point x="368" y="717" type="qcurve"/>
      <point x="382" y="717"/>
      <point x="408" y="705"/>
      <point x="408" y="693" type="qcurve"/>
      <point x="402" y="673"/>
      <point x="400" y="660" type="qcurve"/>
      <point x="383" y="523" type="line"/>
      <point x="411" y="523"/>
      <point x="450" y="526" type="qcurve"/>
      <point x="472" y="526"/>
      <point x="472" y="489" type="qcurve"/>
      <point x="472" y="464"/>
      <point x="454" y="464" type="qcurve"/>
      <point x="434" y="465"/>
      <point x="376" y="465" type="qcurve"/>
      <point x="352" y="268" type="line"/>
      <point x="390" y="268"/>
      <point x="427" y="271" type="qcurve"/>
      <point x="449" y="271"/>
      <point x="449" y="234" type="qcurve"/>
      <point x="449" y="209"/>
      <point x="431" y="209" type="qcurve"/>
      <point x="412" y="210"/>
      <point x="345" y="210" type="qcurve"/>
      <point x="329" y="72" type="line"/>
      <point x="324" y="9" type="line"/>
      <point x="323" y="3"/>
      <point x="301" y="-7"/>
    </contour>
  </outline>
</glyph>
<glyph name="dollar" format="2">
  <advance height="1000" width="500"/>
  <unicode hex="0024"/>
  <outline>
    <contour>
      <point x="225" y="425" type="qcurve"/>
      <point x="225" y="645" type="line"/>
      <point x="178" y="635"/>
      <point x="126" y="566"/>
      <point x="126" y="524" type="qcurve"/>
      <point x="126" y="483"/>
      <point x="166" y="441"/>
    </contour>
    <contour>
      <point x="288" y="51" type="line"/>
      <point x="358" y="69"/>
      <point x="384" y="128" type="qcurve"/>
      <point x="397" y="156"/>
      <point x="397" y="184" type="qcurve"/>
      <point x="397" y="311"/>
      <point x="290" y="339" type="qcurve"/>
      <point x="288" y="339" type="line"/>
    </contour>
    <contour>
      <point x="271" y="-123" type="qcurve"/>
      <point x="256" y="-123"/>
      <point x="223" y="-108"/>
      <point x="223" y="-98" type="qcurve"/>
      <point x="225" y="-56"/>
      <point x="225" y="-15" type="qcurve"/>
      <point x="162" y="-12"/>
      <point x="75" y="44"/>
      <point x="38" y="93" type="qcurve"/>
      <point x="33" y="99"/>
      <point x="33" y="108" type="qcurve"/>
      <point x="33" y="124"/>
      <point x="56" y="159"/>
      <point x="69" y="159" type="qcurve"/>
      <point x="79" y="159"/>
      <point x="83" y="151" type="qcurve"/>
      <point x="110" y="107"/>
      <point x="165" y="63"/>
      <point x="215" y="49"/>
      <point x="225" y="47" type="qcurve"/>
      <point x="225" y="360" type="line"/>
      <point x="188" y="370" type="line"/>
      <point x="57" y="412"/>
      <point x="57" y="526" type="qcurve"/>
      <point x="57" y="614"/>
      <point x="136" y="674" type="qcurve"/>
      <point x="174" y="702"/>
      <point x="224" y="709" type="qcurve"/>
      <point x="222" y="741"/>
      <point x="222" y="761" type="qcurve"/>
      <point x="222" y="770"/>
      <point x="243" y="770" type="qcurve"/>
      <point x="259" y="770"/>
      <point x="290" y="757"/>
      <point x="290" y="747" type="qcurve"/>
      <point x="289" y="710" type="line"/>
      <point x="365" y="699"/>
      <point x="412" y="652" type="qcurve"/>
      <point x="432" y="631"/>
      <point x="432" y="611" type="qcurve"/>
      <point x="432" y="596"/>
      <point x="420" y="562"/>
      <point x="407" y="562" type="qcurve"/>
      <point x="398" y="562"/>
      <point x="383" y="581" type="qcurve"/>
      <point x="360" y="613"/>
      <point x="318" y="634" type="qcurve"/>
      <point x="299" y="643"/>
      <point x="288" y="645" type="qcurve"/>
      <point x="288" y="405" type="line"/>
      <point x="309" y="400" type="line"/>
      <point x="466" y="352"/>
      <point x="466" y="192" type="qcurve"/>
      <point x="466" y="114"/>
      <point x="378" y="-1"/>
      <point x="288" y="-14" type="qcurve"/>
      <point x="289" y="-19"/>
      <point x="289" y="-35"/>
      <point x="290" y="-43" type="qcurve"/>
      <point x="291" y="-115" type="line"/>
      <point x="291" y="-123"/>
    </contour>
  </outline>
</glyph>
<glyph name="percent" format="2">
  <advance height="1000" width="500"/>
  <unicode hex="0025"/>
  <outline>
    <contour>
      <point x="139" y="422" type="qcurve"/>
      <point x="186" y="422"/>
      <point x="186" y="547" type="qcurve"/>
      <point x="186" y="594"/>
      <point x="164" y="666"/>
      <point x="140" y="666" type="qcurve"/>
      <point x="123" y="666"/>
      <point x="90" y="606"/>
      <point x="90" y="543" type="qcurve"/>
      <point x="90" y="422"/>
    </contour>
    <contour>
      <point x="366" y="31" type="qcurve"/>
      <point x="415" y="31"/>
      <point x="415" y="156" type="qcurve"/>
      <point x="415" y="203"/>
      <point x="391" y="275"/>
      <point x="368" y="275" type="qcurve"/>
      <point x="351" y="275"/>
      <point x="319" y="218"/>
      <point x="319" y="152" type="qcurve"/>
      <point x="319" y="121"/>
      <point x="328" y="66"/>
      <point x="350" y="31"/>
    </contour>
    <contour>
      <point x="138" y="-31" type="qcurve"/>
      <point x="124" y="-31"/>
      <point x="98" y="-4"/>
      <point x="98" y="9" type="qcurve"/>
      <point x="98" y="13"/>
      <point x="99" y="15" type="qcurve"/>
      <point x="100" y="18" type="line"/>
      <point x="125" y="78" type="line"/>
      <point x="322" y="649" type="line"/>
      <point x="332" y="677"/>
      <point x="344" y="727" type="qcurve"/>
      <point x="347" y="739"/>
      <point x="359" y="739" type="qcurve"/>
      <point x="369" y="739"/>
      <point x="388" y="724"/>
      <point x="402" y="706"/>
      <point x="402" y="699" type="qcurve"/>
      <point x="395" y="680" type="line"/>
      <point x="383" y="650"/>
      <point x="178" y="57" type="qcurve"/>
      <point x="165" y="22"/>
      <point x="154" y="-18" type="qcurve"/>
      <point x="150" y="-31"/>
    </contour>
    <contour>
      <point x="368" y="-24" type="qcurve"/>
      <point x="314" y="-24"/>
      <point x="263" y="75"/>
      <point x="263" y="152" type="qcurve"/>
      <point x="263" y="243"/>
      <point x="300" y="294" type="qcurve"/>
      <point x="306" y="303"/>
      <point x="315" y="303" type="qcurve"/>
      <point x="321" y="303"/>
      <point x="322" y="302" type="qcurve"/>
      <point x="342" y="330"/>
      <point x="370" y="330" type="qcurve"/>
      <point x="434" y="330"/>
      <point x="458" y="241" type="qcurve"/>
      <point x="469" y="202"/>
      <point x="469" y="152" type="qcurve"/>
      <point x="469" y="105"/>
      <point x="448" y="26"/>
      <point x="403" y="-24"/>
    </contour>
    <contour>
      <point x="140" y="367" type="qcurve"/>
      <point x="86" y="367"/>
      <point x="35" y="466"/>
      <point x="35" y="543" type="qcurve"/>
      <point x="35" y="634"/>
      <point x="71" y="685" type="qcurve"/>
      <point x="78" y="694"/>
      <point x="86" y="694" type="qcurve"/>
      <point x="92" y="694"/>
      <point x="93" y="693" type="qcurve"/>
      <point x="113" y="721"/>
      <point x="142" y="721" type="qcurve"/>
      <point x="175" y="721"/>
      <point x="218" y="673"/>
      <point x="241" y="593"/>
      <point x="241" y="543" type="qcurve"/>
      <point x="241" y="496"/>
      <point x="219" y="417"/>
      <point x="175" y="367"/>
    </contour>
  </outline>
</glyph>
<glyph name="ampersand" format="2">
  <advance height="1000" width="500"/>
  <unicode hex="0026"/>
  <outline>
    <contour>
      <point x="184" y="439" type="qcurve"/>
      <point x="270" y="513"/>
      <point x="270" y="583" type="qcurve"/>
      <point x="270" y="624"/>
      <point x="242" y="652"/>
      <point x="218" y="652" type="qcurve"/>
      <point x="194" y="652"/>
      <point x="159" y="605"/>
      <point x="159" y="556" type="qcurve"/>
      <point x="159" y="510"/>
    </contour>
    <contour>
      <point x="180" y="42" type="qcurve"/>
      <point x="242" y="42"/>
      <point x="292" y="123" type="qcurve"/>
      <point x="206" y="256"/>
      <point x="162" y="341" type="qcurve"/>
      <point x="97" y="269"/>
      <point x="97" y="155" type="qcurve"/>
      <point x="97" y="108"/>
      <point x="139" y="42"/>
    </contour>
    <contour>
      <point x="182" y="-17" type="qcurve"/>
      <point x="110" y="-17"/>
      <point x="36" y="81"/>
      <point x="36" y="153" type="qcurve"/>
      <point x="36" y="303"/>
      <point x="136" y="398" type="qcurve"/>
      <point x="95" y="497"/>
      <point x="95" y="557" type="qcurve"/>
      <point x="95" y="624"/>
      <point x="164" y="711"/>
      <point x="218" y="711" type="qcurve"/>
      <point x="268" y="711"/>
      <point x="333" y="646"/>
      <point x="333" y="587" type="qcurve"/>
      <point x="333" y="549"/>
      <point x="298" y="476"/>
      <point x="241" y="413"/>
      <point x="209" y="383" type="qcurve"/>
      <point x="265" y="272"/>
      <point x="324" y="183" type="qcurve"/>
      <point x="364" y="272"/>
      <point x="377" y="361" type="qcurve"/>
      <point x="381" y="393"/>
      <point x="403" y="393" type="qcurve"/>
      <point x="410" y="393"/>
      <point x="429" y="384"/>
      <point x="444" y="370"/>
      <point x="444" y="362" type="qcurve"/>
      <point x="444" y="355"/>
      <point x="439" y="330" type="qcurve"/>
      <point x="417" y="233"/>
      <point x="362" y="125" type="qcurve"/>
      <point x="414" y="41"/>
      <point x="453" y="20" type="qcurve"/>
      <point x="489" y="3"/>
      <point x="489" y="-8" type="qcurve"/>
      <point x="489" y="-16"/>
      <point x="464" y="-16" type="qcurve"/>
      <point x="422" y="-16"/>
      <point x="358" y="23"/>
      <point x="327" y="68" type="qcurve"/>
      <point x="293" y="20"/>
      <point x="224" y="-17"/>
    </contour>
  </outline>
</glyph>
<glyph name="quotesingle" format="2">
  <advance height="1000" width="500"/>
  <unicode hex="0027"/>
  <outline>
    <contour>
      <point x="250" y="476" type="qcurve"/>
      <point x="281" y="476"/>
      <point x="281" y="492" type="qcurve"/>
      <point x="287" y="703" type="line"/>
      <point x="287" y="725"/>
      <point x="250" y="725" type="qcurve"/>
      <point x="237" y="725"/>
      <point x="213" y="714"/>
      <point x="213" y="703" type="qcurve"/>
      <point x="219" y="492" type="line"/>
      <point x="221" y="476"/>
    </contour>
  </outline>
</glyph>
<glyph name="parenleft" format="2">
  <advance height="1000" width="500"/>
  <unicode hex="0028"/>
  <outline>
    <contour>
      <point x="376" y="-159" type="qcurve"/>
      <point x="368" y="-159"/>
      <point x="343" y="-139" type="qcurve"/>
      <point x="284" y="-96"/>
      <point x="215" y="14" type="qcurve"/>
      <point x="140" y="137"/>
      <point x="140" y="286" type="qcurve"/>
      <point x="140" y="441"/>
      <point x="215" y="585" type="qcurve"/>
      <point x="282" y="714"/>
      <point x="344" y="767" type="qcurve"/>
      <point x="371" y="791"/>
      <point x="381" y="791" type="qcurve"/>
      <point x="400" y="791"/>
      <point x="400" y="774" type="qcurve"/>
      <point x="400" y="766"/>
      <point x="393" y="760" type="qcurve"/>
      <point x="309" y="672"/>
      <point x="266" y="533" type="qcurve"/>
      <point x="222" y="389"/>
      <point x="222" y="286" type="qcurve"/>
      <point x="222" y="187"/>
      <point x="306" y="-54"/>
      <point x="380" y="-120" type="qcurve"/>
      <point x="390" y="-128"/>
      <point x="390" y="-140" type="qcurve"/>
      <point x="390" y="-148"/>
      <point x="381" y="-159"/>
    </contour>
  </outline>
</glyph>
<glyph name="parenright" format="2">
  <advance height="1000" width="500"/>
  <unicode hex="0029"/>
  <outline>
    <contour>
      <point x="124" y="-159" type="qcurve"/>
      <point x="118" y="-159"/>
      <point x="110" y="-148"/>
      <point x="110" y="-140" type="qcurve"/>
      <point x="110" y="-128"/>
      <point x="119" y="-120" type="qcurve"/>
      <point x="194" y="-54"/>
      <point x="278" y="187"/>
      <point x="278" y="286" type="qcurve"/>
      <point x="278" y="389"/>
      <point x="234" y="533" type="qcurve"/>
      <point x="190" y="672"/>
      <point x="106" y="760" type="qcurve"/>
      <point x="100" y="766"/>
      <point x="100" y="774" type="qcurve"/>
      <point x="100" y="791"/>
      <point x="119" y="791" type="qcurve"/>
      <point x="129" y="791"/>
      <point x="157" y="767" type="qcurve"/>
      <point x="216" y="714"/>
      <point x="286" y="585" type="qcurve"/>
      <point x="360" y="439"/>
      <point x="360" y="286" type="qcurve"/>
      <point x="360" y="139"/>
      <point x="286" y="14" type="qcurve"/>
      <point x="218" y="-96"/>
      <point x="158" y="-139" type="qcurve"/>
      <point x="132" y="-159"/>
    </contour>
  </outline>
</glyph>
<glyph name="asterisk" format="2">
  <advance height="1000" width="500"/>
  <unicode hex="002A"/>
  <outline>
    <contour>
      <point x="253" y="67" type="qcurve"/>
      <point x="239" y="67"/>
      <point x="218" y="81"/>
      <point x="218" y="94" type="qcurve"/>
      <point x="221" y="147"/>
      <point x="224" y="307" type="qcurve"/>
      <point x="142" y="238"/>
      <point x="128" y="224" type="qcurve"/>
      <point x="97" y="195"/>
      <point x="87" y="195" type="qcurve"/>
      <point x="73" y="195"/>
      <point x="52" y="233"/>
      <point x="52" y="248" type="qcurve"/>
      <point x="52" y="261"/>
      <point x="60" y="266" type="qcurve"/>
      <point x="205" y="369" type="line"/>
      <point x="97" y="447" type="line"/>
      <point x="74" y="461"/>
      <point x="55" y="479"/>
      <point x="55" y="493" type="qcurve"/>
      <point x="55" y="510"/>
      <point x="73" y="547"/>
      <point x="86" y="547" type="qcurve"/>
      <point x="93" y="547"/>
      <point x="97" y="542" type="qcurve"/>
      <point x="225" y="430" type="line"/>
      <point x="223" y="563" type="line"/>
      <point x="219" y="624"/>
      <point x="219" y="640" type="qcurve"/>
      <point x="219" y="654"/>
      <point x="245" y="670"/>
      <point x="260" y="670" type="qcurve"/>
      <point x="293" y="670"/>
      <point x="293" y="643" type="qcurve"/>
      <point x="287" y="431" type="line"/>
      <point x="351" y="484"/>
      <point x="374" y="505" type="qcurve"/>
      <point x="413" y="544"/>
      <point x="424" y="544" type="qcurve"/>
      <point x="438" y="544"/>
      <point x="459" y="506"/>
      <point x="459" y="490" type="qcurve"/>
      <point x="459" y="478"/>
      <point x="450" y="471" type="qcurve"/>
      <point x="407" y="441"/>
      <point x="310" y="369" type="qcurve"/>
      <point x="389" y="310"/>
      <point x="429" y="282"/>
      <point x="449" y="267" type="qcurve"/>
      <point x="456" y="260"/>
      <point x="456" y="246" type="qcurve"/>
      <point x="456" y="229"/>
      <point x="438" y="191"/>
      <point x="425" y="191" type="qcurve"/>
      <point x="419" y="191"/>
      <point x="380" y="228" type="qcurve"/>
      <point x="360" y="246"/>
      <point x="345" y="257" type="qcurve"/>
      <point x="286" y="308" type="line"/>
      <point x="293" y="97" type="line"/>
      <point x="293" y="83"/>
      <point x="268" y="67"/>
    </contour>
  </outline>
</glyph>
<glyph name="plus" format="2">
  <advance height="1000" width="500"/>
  <unicode hex="002B"/>
  <outline>
    <contour>
      <point x="251" y="91" type="qcurve"/>
      <point x="237" y="91"/>
      <point x="216" y="105"/>
      <point x="216" y="117" type="qcurve"/>
      <point x="219" y="162"/>
      <point x="219" y="316" type="qcurve"/>
      <point x="90" y="316"/>
      <point x="72" y="313" type="qcurve"/>
      <point x="58" y="313"/>
      <point x="46" y="339"/>
      <point x="46" y="351" type="qcurve"/>
      <point x="47" y="376"/>
      <point x="67" y="376" type="qcurve"/>
      <point x="96" y="374"/>
      <point x="219" y="374" type="qcurve"/>
      <point x="219" y="538"/>
      <point x="217" y="569" type="qcurve"/>
      <point x="217" y="589"/>
      <point x="243" y="589" type="qcurve"/>
      <point x="256" y="589"/>
      <point x="280" y="575"/>
      <point x="280" y="564" type="qcurve"/>
      <point x="277" y="518"/>
      <point x="277" y="374" type="qcurve"/>
      <point x="373" y="374"/>
      <point x="425" y="377" type="qcurve"/>
      <point x="439" y="377"/>
      <point x="451" y="353"/>
      <point x="451" y="341" type="qcurve"/>
      <point x="451" y="315"/>
      <point x="430" y="315" type="qcurve"/>
      <point x="410" y="315"/>
      <point x="392" y="316" type="qcurve"/>
      <point x="277" y="316" type="line"/>
      <point x="277" y="172"/>
      <point x="278" y="153" type="qcurve"/>
      <point x="278" y="111" type="line"/>
      <point x="278" y="91"/>
    </contour>
  </outline>
</glyph>
<glyph name="comma" format="2">
  <advance height="1000" width="500"/>
  <unicode hex="002C"/>
  <outline>
    <contour>
      <point x="179" y="-125" type="qcurve"/>
      <point x="193" y="-125"/>
      <point x="240" y="-97"/>
      <point x="286" y="-49"/>
      <point x="318" y="7"/>
      <point x="318" y="36" type="qcurve"/>
      <point x="318" y="46" type="line"/>
      <point x="314" y="78"/>
      <point x="277" y="123"/>
      <point x="251" y="123" type="qcurve"/>
      <point x="223" y="123"/>
      <point x="181" y="90"/>
      <point x="181" y="61" type="qcurve"/>
      <point x="181" y="28"/>
      <point x="212" y="1" type="qcurve"/>
      <point x="238" y="-9" type="line"/>
      <point x="229" y="-30"/>
      <point x="191" y="-77"/>
      <point x="170" y="-91" type="qcurve"/>
      <point x="162" y="-95"/>
      <point x="162" y="-108" type="qcurve"/>
      <point x="162" y="-114"/>
      <point x="170" y="-125"/>
    </contour>
  </outline>
</glyph>
<glyph name="period" format="2">
  <advance height="1000" width="500"/>
  <unicode hex="002E"/>
  <outline>
    <contour>
      <point x="248" y="-26" type="qcurve"/>
      <point x="273" y="-26"/>
      <point x="318" y="13"/>
      <point x="318" y="40" type="qcurve"/>
      <point x="318" y="71"/>
      <point x="272" y="122"/>
      <point x="248" y="122" type="qcurve"/>
      <point x="219" y="122"/>
      <point x="180" y="84"/>
      <point x="180" y="56" type="qcurve"/>
      <point x="180" y="26"/>
      <point x="222" y="-26"/>
    </contour>
  </outline>
</glyph>
<glyph name="slash" format="2">
  <advance height="1000" width="500"/>
  <unicode hex="002F"/>
  <outline>
    <contour>
      <point x="85" y="-71" type="qcurve"/>
      <point x="71" y="-71"/>
      <point x="46" y="-41"/>
      <point x="46" y="-29" type="qcurve"/>
      <point x="46" y="-24"/>
      <point x="48" y="-20" type="qcurve"/>
      <point x="63" y="5"/>
      <point x="76" y="32" type="qcurve"/>
      <point x="372" y="702" type="line"/>
      <point x="404" y="779" type="line"/>
      <point x="407" y="790"/>
      <point x="420" y="790" type="qcurve"/>
      <point x="429" y="790"/>
      <point x="450" y="774"/>
      <point x="462" y="754"/>
      <point x="462" y="747" type="qcurve"/>
      <point x="462" y="744"/>
      <point x="461" y="743" type="qcurve"/>
      <point x="439" y="707"/>
      <point x="424" y="675" type="qcurve"/>
      <point x="125" y="3" type="line"/>
      <point x="109" y="-31"/>
      <point x="98" y="-62" type="qcurve"/>
      <point x="95" y="-71"/>
    </contour>
  </outline>
</glyph>
<glyph name="zero" format="2">
  <advance height="1000" width="500"/>
  <unicode hex="0030"/>
  <outline>
    <contour>
      <point x="248" y="45" type="qcurve"/>
      <point x="296" y="45"/>
      <point x="359" y="128"/>
      <point x="388" y="273"/>
      <point x="388" y="360" type="qcurve"/>
      <point x="388" y="452"/>
      <point x="371" y="523" type="qcurve"/>
      <point x="159" y="93" type="line"/>
      <point x="192" y="45"/>
    </contour>
    <contour>
      <point x="129" y="167" type="qcurve"/>
      <point x="341" y="599" type="line"/>
      <point x="312" y="650"/>
      <point x="258" y="650" type="qcurve"/>
      <point x="213" y="650"/>
      <point x="166" y="572" type="qcurve"/>
      <point x="114" y="483"/>
      <point x="114" y="339" type="qcurve"/>
      <point x="114" y="226"/>
    </contour>
    <contour>
      <point x="250" y="-18" type="qcurve"/>
      <point x="175" y="-18"/>
      <point x="125" y="36" type="qcurve"/>
      <point x="104" y="57"/>
      <point x="90" y="88" type="qcurve"/>
      <point x="43" y="186"/>
      <point x="43" y="339" type="qcurve"/>
      <point x="43" y="466"/>
      <point x="78" y="566" type="qcurve"/>
      <point x="110" y="659"/>
      <point x="137" y="659" type="qcurve"/>
      <point x="150" y="659"/>
      <point x="155" y="651" type="qcurve"/>
      <point x="204" y="713"/>
      <point x="262" y="713" type="qcurve"/>
      <point x="334" y="713"/>
      <point x="378" y="660" type="qcurve"/>
      <point x="458" y="564"/>
      <point x="458" y="354" type="qcurve"/>
      <point x="458" y="204"/>
      <point x="408" y="94" type="qcurve"/>
      <point x="353" y="-18"/>
    </contour>
  </outline>
</glyph>
<glyph name="one" format="2">
  <advance height="1000" width="500"/>
  <unicode hex="0031"/>
  <outline>
    <contour>
      <point x="293" y="63" type="line"/>
      <point x="399" y="64"/>
      <point x="407" y="65" type="qcurve"/>
      <point x="422" y="65"/>
      <point x="439" y="26"/>
      <point x="439" y="12" type="qcurve"/>
      <point x="439" y="-5"/>
      <point x="426" y="-5" type="qcurve"/>
      <point x="391" y="1"/>
      <point x="304" y="1" type="qcurve"/>
      <point x="209" y="1"/>
      <point x="143" y="-1" type="qcurve"/>
      <point x="97" y="-6" type="line"/>
      <point x="81" y="-6"/>
      <point x="63" y="31"/>
      <point x="63" y="45" type="qcurve"/>
      <point x="63" y="63"/>
      <point x="78" y="63" type="qcurve"/>
      <point x="118" y="62" type="line"/>
      <point x="172" y="62"/>
      <point x="218" y="63" type="qcurve"/>
      <point x="220" y="157"/>
      <point x="220" y="609" type="qcurve"/>
      <point x="158" y="571"/>
      <point x="145" y="562" type="qcurve"/>
      <point x="115" y="542"/>
      <point x="105" y="542" type="qcurve"/>
      <point x="91" y="542"/>
      <point x="70" y="573"/>
      <point x="70" y="585" type="qcurve"/>
      <point x="70" y="596"/>
      <point x="78" y="600" type="qcurve"/>
      <point x="207" y="674" type="line"/>
      <point x="212" y="677"/>
      <point x="225" y="695"/>
      <point x="242" y="710"/>
      <point x="250" y="710" type="qcurve"/>
      <point x="263" y="710"/>
      <point x="297" y="685"/>
      <point x="297" y="671" type="qcurve"/>
      <point x="297" y="659"/>
      <point x="292" y="623"/>
      <point x="292" y="600" type="qcurve"/>
      <point x="292" y="128"/>
      <point x="293" y="107" type="qcurve"/>
    </contour>
  </outline>
</glyph>
<glyph name="two" format="2">
  <advance height="1000" width="500"/>
  <unicode hex="0032"/>
  <outline>
    <contour>
      <point x="79" y="-4" type="qcurve"/>
      <point x="74" y="-4" type="line"/>
      <point x="56" y="-4"/>
      <point x="34" y="29"/>
      <point x="34" y="44" type="qcurve"/>
      <point x="34" y="51"/>
      <point x="42" y="67"/>
      <point x="53" y="80"/>
      <point x="57" y="87" type="qcurve"/>
      <point x="115" y="199"/>
      <point x="268" y="343" type="qcurve"/>
      <point x="387" y="449"/>
      <point x="387" y="547" type="qcurve"/>
      <point x="387" y="593"/>
      <point x="334" y="649"/>
      <point x="281" y="649" type="qcurve"/>
      <point x="175" y="649"/>
      <point x="142" y="552" type="qcurve"/>
      <point x="133" y="525"/>
      <point x="109" y="525" type="qcurve"/>
      <point x="98" y="525"/>
      <point x="80" y="543"/>
      <point x="71" y="565"/>
      <point x="71" y="570" type="qcurve"/>
      <point x="71" y="580"/>
      <point x="83" y="603" type="qcurve"/>
      <point x="108" y="654"/>
      <point x="187" y="694" type="qcurve"/>
      <point x="227" y="713"/>
      <point x="282" y="713" type="qcurve"/>
      <point x="366" y="713"/>
      <point x="460" y="620"/>
      <point x="460" y="547" type="qcurve"/>
      <point x="460" y="430"/>
      <point x="314" y="298" type="qcurve"/>
      <point x="181" y="178"/>
      <point x="119" y="64" type="qcurve"/>
      <point x="165" y="69"/>
      <point x="273" y="69" type="qcurve"/>
      <point x="381" y="68" type="line"/>
      <point x="440" y="69" type="line"/>
      <point x="454" y="69"/>
      <point x="474" y="32"/>
      <point x="474" y="17" type="qcurve"/>
      <point x="474" y="-1"/>
      <point x="457" y="-1" type="qcurve"/>
      <point x="448" y="-1"/>
      <point x="426" y="2" type="qcurve"/>
      <point x="391" y="7"/>
      <point x="317" y="7" type="qcurve"/>
      <point x="173" y="7"/>
      <point x="133" y="4" type="qcurve"/>
      <point x="109" y="2"/>
    </contour>
  </outline>
</glyph>
<glyph name="three" format="2">
  <advance height="1000" width="500"/>
  <unicode hex="0033"/>
  <outline>
    <contour>
      <point x="222" y="-18" type="qcurve"/>
      <point x="110" y="-18"/>
      <point x="34" y="64" type="qcurve"/>
      <point x="28" y="72"/>
      <point x="28" y="84" type="qcurve"/>
      <point x="28" y="101"/>
      <point x="47" y="137"/>
      <point x="60" y="137" type="qcurve"/>
      <point x="67" y="137"/>
      <point x="73" y="130" type="qcurve"/>
      <point x="102" y="90"/>
      <point x="172" y="45"/>
      <point x="222" y="45" type="qcurve"/>
      <point x="283" y="45"/>
      <point x="359" y="92"/>
      <point x="394" y="171"/>
      <point x="394" y="217" type="qcurve"/>
      <point x="394" y="279"/>
      <point x="318" y="352"/>
      <point x="261" y="352" type="qcurve"/>
      <point x="228" y="352"/>
      <point x="188" y="343" type="qcurve"/>
      <point x="172" y="343"/>
      <point x="154" y="376"/>
      <point x="154" y="388" type="qcurve"/>
      <point x="154" y="405"/>
      <point x="167" y="405" type="qcurve"/>
      <point x="281" y="418"/>
      <point x="339" y="480" type="qcurve"/>
      <point x="366" y="511"/>
      <point x="366" y="551" type="qcurve"/>
      <point x="366" y="651"/>
      <point x="264" y="651" type="qcurve"/>
      <point x="181" y="651"/>
      <point x="116" y="571" type="qcurve"/>
      <point x="107" y="557"/>
      <point x="94" y="557" type="qcurve"/>
      <point x="91" y="557"/>
      <point x="73" y="569"/>
      <point x="60" y="589"/>
      <point x="60" y="600" type="qcurve"/>
      <point x="60" y="613"/>
      <point x="70" y="622" type="qcurve"/>
      <point x="148" y="713"/>
      <point x="262" y="713" type="qcurve"/>
      <point x="340" y="713"/>
      <point x="435" y="630"/>
      <point x="435" y="558" type="qcurve"/>
      <point x="435" y="438"/>
      <point x="314" y="392" type="qcurve"/>
      <point x="399" y="392"/>
      <point x="444" y="309" type="qcurve"/>
      <point x="464" y="270"/>
      <point x="464" y="218" type="qcurve"/>
      <point x="464" y="156"/>
      <point x="413" y="49"/>
      <point x="307" y="-18"/>
    </contour>
  </outline>
</glyph>
<glyph name="four" format="2">
  <advance height="1000" width="500"/>
  <unicode hex="0034"/>
  <outline>
    <contour>
      <point x="365" y="-11" type="qcurve"/>
      <point x="350" y="-11"/>
      <point x="314" y="5"/>
      <point x="314" y="17" type="qcurve"/>
      <point x="316" y="80"/>
      <point x="316" y="157" type="qcurve"/>
      <point x="96" y="144"/>
      <point x="78" y="140" type="qcurve"/>
      <point x="77" y="138"/>
      <point x="69" y="138" type="qcurve"/>
      <point x="53" y="138"/>
      <point x="25" y="168"/>
      <point x="25" y="185" type="qcurve"/>
      <point x="25" y="195"/>
      <point x="38" y="217"/>
      <point x="56" y="241"/>
      <point x="62" y="251" type="qcurve"/>
      <point x="269" y="611"/>
      <point x="298" y="703" type="qcurve"/>
      <point x="301" y="711"/>
      <point x="311" y="711" type="qcurve"/>
      <point x="321" y="711"/>
      <point x="343" y="692"/>
      <point x="359" y="667"/>
      <point x="359" y="657" type="qcurve"/>
      <point x="359" y="653"/>
      <point x="348" y="633" type="qcurve"/>
      <point x="332" y="607"/>
      <point x="325" y="593" type="qcurve"/>
      <point x="217" y="386"/>
      <point x="106" y="206" type="qcurve"/>
      <point x="316" y="217" type="line"/>
      <point x="316" y="428"/>
      <point x="315" y="470"/>
      <point x="313" y="515"/>
      <point x="313" y="525" type="qcurve"/>
      <point x="313" y="535"/>
      <point x="334" y="535" type="qcurve"/>
      <point x="350" y="535"/>
      <point x="386" y="519"/>
      <point x="386" y="507" type="qcurve"/>
      <point x="384" y="389"/>
      <point x="384" y="221" type="qcurve"/>
      <point x="398" y="222"/>
      <point x="417" y="225" type="qcurve"/>
      <point x="444" y="227" type="line"/>
      <point x="459" y="227"/>
      <point x="476" y="189"/>
      <point x="476" y="175" type="qcurve"/>
      <point x="476" y="159"/>
      <point x="464" y="159" type="qcurve"/>
      <point x="454" y="159"/>
      <point x="407" y="161"/>
      <point x="384" y="161" type="qcurve"/>
      <point x="384" y="103" type="line"/>
      <point x="387" y="57"/>
      <point x="387" y="-1" type="qcurve"/>
      <point x="387" y="-11"/>
    </contour>
  </outline>
</glyph>
<glyph name="five" format="2">
  <advance height="1000" width="500"/>
  <unicode hex="0035"/>
  <outline>
    <contour>
      <point x="228" y="-19" type="qcurve"/>
      <point x="121" y="-19"/>
      <point x="45" y="75" type="qcurve"/>
      <point x="39" y="83"/>
      <point x="39" y="95" type="qcurve"/>
      <point x="39" y="113"/>
      <point x="58" y="151"/>
      <point x="72" y="151" type="qcurve"/>
      <point x="82" y="151"/>
      <point x="85" y="143" type="qcurve"/>
      <point x="140" y="49"/>
      <point x="229" y="45" type="qcurve"/>
      <point x="283" y="45"/>
      <point x="352" y="92"/>
      <point x="388" y="176"/>
      <point x="388" y="223" type="qcurve"/>
      <point x="388" y="275"/>
      <point x="351" y="345"/>
      <point x="292" y="382"/>
      <point x="257" y="382" type="qcurve"/>
      <point x="206" y="382"/>
      <point x="143" y="341"/>
      <point x="111" y="307" type="qcurve"/>
      <point x="107" y="303"/>
      <point x="100" y="303" type="qcurve"/>
      <point x="87" y="303"/>
      <point x="63" y="332"/>
      <point x="63" y="351" type="qcurve"/>
      <point x="63" y="354"/>
      <point x="73" y="395" type="qcurve"/>
      <point x="109" y="649"/>
      <point x="109" y="679" type="qcurve"/>
      <point x="109" y="692"/>
      <point x="127" y="692" type="qcurve"/>
      <point x="145" y="692"/>
      <point x="164" y="681" type="qcurve"/>
      <point x="393" y="700"/>
      <point x="403" y="702" type="qcurve"/>
      <point x="418" y="702"/>
      <point x="436" y="666"/>
      <point x="436" y="653" type="qcurve"/>
      <point x="436" y="637"/>
      <point x="411" y="636"/>
      <point x="391" y="636" type="qcurve"/>
      <point x="279" y="627"/>
      <point x="169" y="617" type="qcurve"/>
      <point x="136" y="398" type="line"/>
      <point x="191" y="442"/>
      <point x="267" y="442" type="qcurve"/>
      <point x="375" y="439"/>
      <point x="432" y="340" type="qcurve"/>
      <point x="457" y="292"/>
      <point x="457" y="224" type="qcurve"/>
      <point x="457" y="161"/>
      <point x="411" y="51"/>
      <point x="312" y="-19"/>
    </contour>
  </outline>
</glyph>
<glyph name="six" format="2">
  <advance height="1000" width="500"/>
  <unicode hex="0036"/>
  <outline>
    <contour>
      <point x="248" y="44" type="qcurve"/>
      <point x="318" y="44"/>
      <point x="393" y="145"/>
      <point x="393" y="224" type="qcurve"/>
      <point x="393" y="308"/>
      <point x="330" y="356" type="qcurve"/>
      <point x="301" y="376"/>
      <point x="262" y="376" type="qcurve"/>
      <point x="212" y="376"/>
      <point x="141" y="329"/>
      <point x="104" y="248"/>
      <point x="104" y="197" type="qcurve"/>
      <point x="104" y="129"/>
      <point x="179" y="44"/>
    </contour>
    <contour>
      <point x="248" y="-17" type="qcurve"/>
      <point x="181" y="-17"/>
      <point x="86" y="41"/>
      <point x="34" y="138"/>
      <point x="34" y="195" type="qcurve"/>
      <point x="34" y="261"/>
      <point x="57" y="330" type="qcurve"/>
      <point x="92" y="442"/>
      <point x="233" y="679" type="qcurve"/>
      <point x="235" y="681"/>
      <point x="237" y="690" type="qcurve"/>
      <point x="245" y="714"/>
      <point x="274" y="714" type="qcurve"/>
      <point x="279" y="714"/>
      <point x="302" y="711"/>
      <point x="322" y="699"/>
      <point x="322" y="688" type="qcurve"/>
      <point x="322" y="679"/>
      <point x="313" y="669" type="qcurve"/>
      <point x="210" y="534"/>
      <point x="156" y="416" type="qcurve"/>
      <point x="144" y="392" type="line"/>
      <point x="187" y="436"/>
      <point x="265" y="436" type="qcurve"/>
      <point x="375" y="436"/>
      <point x="437" y="334" type="qcurve"/>
      <point x="463" y="286"/>
      <point x="463" y="227" type="qcurve"/>
      <point x="463" y="163"/>
      <point x="418" y="52"/>
      <point x="322" y="-17"/>
    </contour>
  </outline>
</glyph>
<glyph name="seven" format="2">
  <advance height="1000" width="500"/>
  <unicode hex="0037"/>
  <outline>
    <contour>
      <point x="185" y="-11" type="qcurve"/>
      <point x="139" y="-11"/>
      <point x="139" y="15" type="qcurve"/>
      <point x="139" y="46"/>
      <point x="236" y="294" type="qcurve"/>
      <point x="318" y="503"/>
      <point x="377" y="635" type="qcurve"/>
      <point x="124" y="610" type="line"/>
      <point x="96" y="606" type="line"/>
      <point x="64" y="606"/>
      <point x="53" y="649" type="qcurve"/>
      <point x="48" y="665" type="line"/>
      <point x="48" y="674"/>
      <point x="57" y="674" type="qcurve"/>
      <point x="64" y="674"/>
      <point x="79" y="672"/>
      <point x="89" y="672" type="qcurve"/>
      <point x="378" y="695" type="line"/>
      <point x="388" y="696"/>
      <point x="407" y="702"/>
      <point x="419" y="702" type="qcurve"/>
      <point x="434" y="700"/>
      <point x="462" y="670"/>
      <point x="462" y="656" type="qcurve"/>
      <point x="448" y="624" type="line"/>
      <point x="438" y="608"/>
      <point x="417" y="561" type="qcurve"/>
      <point x="282" y="270"/>
      <point x="214" y="6" type="qcurve"/>
      <point x="211" y="-11"/>
    </contour>
  </outline>
</glyph>
<glyph name="eight" format="2">
  <advance height="1000" width="500"/>
  <unicode hex="0038"/>
  <outline>
    <contour>
      <point x="230" y="428" type="qcurve"/>
      <point x="319" y="492"/>
      <point x="395" y="560" type="qcurve"/>
      <point x="399" y="563" type="line"/>
      <point x="399" y="564"/>
      <point x="395" y="564" type="qcurve"/>
      <point x="380" y="564"/>
      <point x="371" y="579" type="qcurve"/>
      <point x="331" y="653"/>
      <point x="255" y="653" type="qcurve"/>
      <point x="199" y="653"/>
      <point x="132" y="589"/>
      <point x="132" y="544" type="qcurve"/>
      <point x="132" y="506"/>
      <point x="180" y="453"/>
    </contour>
    <contour>
      <point x="235" y="46" type="qcurve"/>
      <point x="306" y="46"/>
      <point x="389" y="114"/>
      <point x="389" y="179" type="qcurve"/>
      <point x="389" y="229"/>
      <point x="356" y="291"/>
      <point x="289" y="337"/>
      <point x="238" y="360" type="qcurve"/>
      <point x="173" y="311"/>
      <point x="102" y="227"/>
      <point x="102" y="176" type="qcurve"/>
      <point x="102" y="142"/>
      <point x="130" y="83"/>
      <point x="190" y="46"/>
    </contour>
    <contour>
      <point x="235" y="-17" type="qcurve"/>
      <point x="172" y="-17"/>
      <point x="81" y="34"/>
      <point x="32" y="122"/>
      <point x="32" y="173" type="qcurve"/>
      <point x="32" y="286"/>
      <point x="179" y="391" type="qcurve"/>
      <point x="120" y="425"/>
      <point x="63" y="497"/>
      <point x="63" y="545" type="qcurve"/>
      <point x="63" y="633"/>
      <point x="151" y="688" type="qcurve"/>
      <point x="195" y="712"/>
      <point x="254" y="712" type="qcurve"/>
      <point x="335" y="712"/>
      <point x="386" y="662" type="qcurve"/>
      <point x="429" y="619"/>
      <point x="429" y="597" type="qcurve"/>
      <point x="429" y="592"/>
      <point x="428" y="591" type="qcurve"/>
      <point x="437" y="600"/>
      <point x="450" y="600" type="qcurve"/>
      <point x="467" y="600"/>
      <point x="467" y="584" type="qcurve"/>
      <point x="467" y="573"/>
      <point x="448" y="550" type="qcurve"/>
      <point x="378" y="471"/>
      <point x="288" y="400" type="qcurve"/>
      <point x="295" y="397" type="line"/>
      <point x="376" y="360"/>
      <point x="459" y="260"/>
      <point x="459" y="182" type="qcurve"/>
      <point x="459" y="91"/>
      <point x="341" y="-17"/>
    </contour>
  </outline>
</glyph>
<glyph name="nine" format="2">
  <advance height="1000" width="500"/>
  <unicode hex="0039"/>
  <outline>
    <contour>
      <point x="183" y="325" type="qcurve"/>
      <point x="242" y="325"/>
      <point x="316" y="396"/>
      <point x="350" y="460" type="qcurve"/>
      <point x="374" y="507"/>
      <point x="381" y="551" type="qcurve"/>
      <point x="382" y="560"/>
      <point x="385" y="568" type="qcurve"/>
      <point x="385" y="571" type="line"/>
      <point x="387" y="572" type="line"/>
      <point x="382" y="567"/>
      <point x="376" y="567" type="qcurve"/>
      <point x="364" y="567"/>
      <point x="359" y="580" type="qcurve"/>
      <point x="350" y="612"/>
      <point x="314" y="639" type="qcurve"/>
      <point x="295" y="650"/>
      <point x="265" y="650" type="qcurve"/>
      <point x="198" y="650"/>
      <point x="99" y="514"/>
      <point x="99" y="445" type="qcurve"/>
      <point x="99" y="389"/>
      <point x="142" y="325"/>
    </contour>
    <contour>
      <point x="313" y="-13" type="qcurve"/>
      <point x="285" y="-13"/>
      <point x="285" y="9" type="qcurve"/>
      <point x="285" y="18"/>
      <point x="287" y="27" type="qcurve"/>
      <point x="335" y="288"/>
      <point x="339" y="311"/>
      <point x="342" y="331"/>
      <point x="344" y="340" type="qcurve"/>
      <point x="346" y="348" type="line"/>
      <point x="321" y="315"/>
      <point x="234" y="260"/>
      <point x="184" y="260" type="qcurve"/>
      <point x="141" y="260"/>
      <point x="72" y="304"/>
      <point x="31" y="386"/>
      <point x="31" y="442" type="qcurve"/>
      <point x="31" y="543"/>
      <point x="97" y="627" type="qcurve"/>
      <point x="169" y="712"/>
      <point x="261" y="712" type="qcurve"/>
      <point x="304" y="712"/>
      <point x="362" y="683"/>
      <point x="394" y="643"/>
      <point x="397" y="639" type="qcurve"/>
      <point x="401" y="655"/>
      <point x="402" y="667" type="qcurve"/>
      <point x="404" y="683"/>
      <point x="420" y="683" type="qcurve"/>
      <point x="441" y="681"/>
      <point x="463" y="661" type="qcurve"/>
      <point x="471" y="653"/>
      <point x="471" y="643" type="qcurve"/>
      <point x="451" y="583"/>
      <point x="402" y="307"/>
      <point x="364" y="49"/>
      <point x="359" y="9" type="qcurve"/>
      <point x="356" y="-11"/>
    </contour>
  </outline>
</glyph>
<glyph name="semicolon" format="2">
  <advance height="1000" width="500"/>
  <unicode hex="003B"/>
  <outline>
    <contour>
      <point x="261" y="460" type="qcurve"/>
      <point x="294" y="460"/>
      <point x="324" y="491"/>
      <point x="324" y="515" type="qcurve"/>
      <point x="324" y="541"/>
      <point x="284" y="590"/>
      <point x="261" y="590" type="qcurve"/>
      <point x="234" y="590"/>
      <point x="198" y="561"/>
      <point x="198" y="532" type="qcurve"/>
      <point x="198" y="509"/>
      <point x="236" y="460"/>
    </contour>
    <contour>
      <point x="194" y="-13" type="qcurve"/>
      <point x="199" y="-13"/>
      <point x="202" y="-10"/>
      <point x="203" y="-10" type="qcurve"/>
      <point x="254" y="13"/>
      <point x="322" y="100"/>
      <point x="322" y="141" type="qcurve"/>
      <point x="322" y="147" type="line"/>
      <point x="321" y="148"/>
      <point x="321" y="152" type="qcurve"/>
      <point x="317" y="182"/>
      <point x="284" y="224"/>
      <point x="260" y="224" type="qcurve"/>
      <point x="235" y="224"/>
      <point x="196" y="195"/>
      <point x="196" y="169" type="qcurve"/>
      <point x="196" y="149"/>
      <point x="215" y="121"/>
      <point x="226" y="112" type="qcurve"/>
      <point x="229" y="110"/>
      <point x="250" y="106"/>
      <point x="253" y="104" type="qcurve"/>
      <point x="248" y="81"/>
      <point x="208" y="34"/>
      <point x="184" y="19" type="qcurve"/>
      <point x="177" y="14"/>
      <point x="177" y="4" type="qcurve"/>
      <point x="177" y="-2"/>
      <point x="185" y="-13"/>
    </contour>
  </outline>
</glyph>
<glyph name="less" format="2">
  <advance height="1000" width="500"/>
  <unicode hex="003C"/>
  <outline>
    <contour>
      <point x="414" y="86" type="qcurve"/>
      <point x="411" y="86"/>
      <point x="405" y="90" type="qcurve"/>
      <point x="327" y="154"/>
      <point x="236" y="211" type="qcurve"/>
      <point x="108" y="291"/>
      <point x="94" y="294" type="qcurve"/>
      <point x="74" y="297"/>
      <point x="65" y="323" type="qcurve"/>
      <point x="60" y="338"/>
      <point x="60" y="351" type="qcurve"/>
      <point x="60" y="360"/>
      <point x="67" y="374"/>
      <point x="98" y="386"/>
      <point x="133" y="406" type="qcurve"/>
      <point x="326" y="523"/>
      <point x="405" y="590" type="qcurve"/>
      <point x="411" y="594"/>
      <point x="415" y="594" type="qcurve"/>
      <point x="427" y="594"/>
      <point x="439" y="562"/>
      <point x="439" y="547" type="qcurve"/>
      <point x="439" y="529"/>
      <point x="430" y="524" type="qcurve"/>
      <point x="372" y="487" type="line"/>
      <point x="243" y="401"/>
      <point x="129" y="338" type="qcurve"/>
      <point x="293" y="247"/>
      <point x="397" y="177" type="qcurve"/>
      <point x="425" y="159" type="line"/>
      <point x="434" y="152"/>
      <point x="434" y="129" type="qcurve"/>
      <point x="434" y="86"/>
    </contour>
  </outline>
</glyph>
<glyph name="equal" format="2">
  <advance height="1000" width="500"/>
  <unicode hex="003D"/>
  <outline>
    <contour>
      <point x="79" y="402" type="qcurve"/>
      <point x="57" y="402"/>
      <point x="57" y="441" type="qcurve"/>
      <point x="57" y="465"/>
      <point x="75" y="465" type="qcurve"/>
      <point x="105" y="463"/>
      <point x="253" y="463" type="qcurve"/>
      <point x="383" y="463"/>
      <point x="422" y="466" type="qcurve"/>
      <point x="445" y="466"/>
      <point x="445" y="426" type="qcurve"/>
      <point x="445" y="403"/>
      <point x="429" y="403" type="qcurve"/>
      <point x="409" y="403"/>
      <point x="371" y="405"/>
      <point x="252" y="405" type="qcurve"/>
      <point x="97" y="405"/>
    </contour>
    <contour>
      <point x="79" y="214" type="qcurve"/>
      <point x="57" y="214"/>
      <point x="57" y="253" type="qcurve"/>
      <point x="57" y="277"/>
      <point x="75" y="277" type="qcurve"/>
      <point x="105" y="275"/>
      <point x="253" y="275" type="qcurve"/>
      <point x="383" y="275"/>
      <point x="422" y="278" type="qcurve"/>
      <point x="445" y="278"/>
      <point x="445" y="238" type="qcurve"/>
      <point x="445" y="215"/>
      <point x="429" y="215" type="qcurve"/>
      <point x="409" y="215"/>
      <point x="371" y="217"/>
      <point x="252" y="217" type="qcurve"/>
      <point x="97" y="217"/>
    </contour>
  </outline>
</glyph>
<glyph name="greater" format="2">
  <advance height="1000" width="500"/>
  <unicode hex="003E"/>
  <outline>
    <contour>
      <point x="78" y="86" type="qcurve"/>
      <point x="66" y="86"/>
      <point x="54" y="118"/>
      <point x="54" y="133" type="qcurve"/>
      <point x="54" y="152"/>
      <point x="62" y="156" type="qcurve"/>
      <point x="121" y="193" type="line"/>
      <point x="267" y="291"/>
      <point x="363" y="342" type="qcurve"/>
      <point x="219" y="423"/>
      <point x="123" y="485" type="qcurve"/>
      <point x="81" y="514"/>
      <point x="68" y="521" type="qcurve"/>
      <point x="58" y="528"/>
      <point x="58" y="551" type="qcurve"/>
      <point x="58" y="594"/>
      <point x="78" y="594" type="qcurve"/>
      <point x="83" y="594"/>
      <point x="88" y="590" type="qcurve"/>
      <point x="166" y="526"/>
      <point x="257" y="470" type="qcurve"/>
      <point x="385" y="389"/>
      <point x="398" y="387" type="qcurve"/>
      <point x="420" y="383"/>
      <point x="427" y="358" type="qcurve"/>
      <point x="432" y="343"/>
      <point x="432" y="329" type="qcurve"/>
      <point x="432" y="320"/>
      <point x="426" y="307"/>
      <point x="413" y="301" type="qcurve"/>
      <point x="394" y="294"/>
      <point x="356" y="272" type="qcurve"/>
      <point x="172" y="162"/>
      <point x="88" y="90" type="qcurve"/>
      <point x="83" y="86"/>
    </contour>
  </outline>
</glyph>
<glyph name="question" format="2">
  <advance height="1000" width="500"/>
  <unicode hex="003F"/>
  <outline>
    <contour>
      <point x="250" y="168" type="qcurve"/>
      <point x="214" y="168"/>
      <point x="203" y="201"/>
      <point x="203" y="224" type="qcurve"/>
      <point x="203" y="334"/>
      <point x="275" y="394" type="qcurve"/>
      <point x="289" y="407" type="line"/>
      <point x="334" y="445"/>
      <point x="364" y="495" type="qcurve"/>
      <point x="380" y="525"/>
      <point x="380" y="568" type="qcurve"/>
      <point x="380" y="605"/>
      <point x="339" y="654"/>
      <point x="299" y="654" type="qcurve"/>
      <point x="163" y="654"/>
      <point x="121" y="520" type="qcurve"/>
      <point x="117" y="506"/>
      <point x="102" y="506" type="qcurve"/>
      <point x="86" y="506"/>
      <point x="57" y="534"/>
      <point x="57" y="548" type="qcurve"/>
      <point x="57" y="553"/>
      <point x="58" y="556" type="qcurve"/>
      <point x="101" y="639"/>
      <point x="218" y="713"/>
      <point x="298" y="713" type="qcurve"/>
      <point x="369" y="713"/>
      <point x="451" y="638"/>
      <point x="451" y="574" type="qcurve"/>
      <point x="451" y="484"/>
      <point x="392" y="424" type="qcurve"/>
      <point x="366" y="397"/>
      <point x="339" y="374" type="qcurve"/>
      <point x="270" y="315"/>
      <point x="270" y="254" type="qcurve"/>
      <point x="270" y="215"/>
      <point x="279" y="185" type="qcurve"/>
      <point x="279" y="177"/>
      <point x="261" y="168"/>
    </contour>
    <contour>
      <point x="241" y="-9" type="qcurve"/>
      <point x="219" y="-9"/>
      <point x="190" y="30"/>
      <point x="190" y="51" type="qcurve"/>
      <point x="190" y="71"/>
      <point x="214" y="101"/>
      <point x="241" y="101" type="qcurve"/>
      <point x="260" y="101"/>
      <point x="290" y="59"/>
      <point x="290" y="37" type="qcurve"/>
      <point x="290" y="-9"/>
    </contour>
  </outline>
</glyph>
<glyph name="at" format="2">
  <advance height="1000" width="500"/>
  <unicode hex="0040"/>
  <outline>
    <contour>
      <point x="212" y="216" type="qcurve"/>
      <point x="248" y="216"/>
      <point x="268" y="282" type="qcurve"/>
      <point x="285" y="344"/>
      <point x="288" y="400" type="qcurve"/>
      <point x="290" y="438" type="line"/>
      <point x="290" y="500"/>
      <point x="264" y="500" type="qcurve"/>
      <point x="220" y="500"/>
      <point x="199" y="403" type="qcurve"/>
      <point x="189" y="358"/>
      <point x="189" y="302" type="qcurve"/>
      <point x="189" y="253"/>
      <point x="198" y="216"/>
    </contour>
    <contour>
      <point x="246" y="-17" type="qcurve"/>
      <point x="119" y="-17"/>
      <point x="58" y="134" type="qcurve"/>
      <point x="31" y="207"/>
      <point x="31" y="306" type="qcurve"/>
      <point x="31" y="466"/>
      <point x="155" y="710"/>
      <point x="260" y="710" type="qcurve"/>
      <point x="327" y="710"/>
      <point x="417" y="633"/>
      <point x="462" y="501"/>
      <point x="462" y="415" type="qcurve"/>
      <point x="462" y="335"/>
      <point x="429" y="215"/>
      <point x="378" y="148"/>
      <point x="349" y="148" type="qcurve"/>
      <point x="289" y="148"/>
      <point x="289" y="212" type="qcurve"/>
      <point x="279" y="186"/>
      <point x="229" y="149"/>
      <point x="208" y="149" type="qcurve"/>
      <point x="169" y="149"/>
      <point x="124" y="229"/>
      <point x="124" y="298" type="qcurve"/>
      <point x="124" y="437"/>
      <point x="190" y="523" type="qcurve"/>
      <point x="220" y="560"/>
      <point x="258" y="560" type="qcurve"/>
      <point x="300" y="560"/>
      <point x="310" y="533" type="qcurve"/>
      <point x="311" y="542" type="line"/>
      <point x="311" y="551"/>
      <point x="323" y="551" type="qcurve"/>
      <point x="337" y="551"/>
      <point x="370" y="525"/>
      <point x="370" y="511" type="qcurve"/>
      <point x="359" y="448"/>
      <point x="344" y="268"/>
      <point x="344" y="233" type="qcurve"/>
      <point x="344" y="213"/>
      <point x="352" y="213" type="qcurve"/>
      <point x="359" y="213"/>
      <point x="381" y="258"/>
      <point x="399" y="348"/>
      <point x="399" y="412" type="qcurve"/>
      <point x="399" y="523"/>
      <point x="323" y="652"/>
      <point x="259" y="652" type="qcurve"/>
      <point x="197" y="652"/>
      <point x="95" y="458"/>
      <point x="95" y="313" type="qcurve"/>
      <point x="95" y="179"/>
      <point x="179" y="43"/>
      <point x="246" y="43" type="qcurve"/>
      <point x="299" y="43"/>
      <point x="389" y="120"/>
      <point x="422" y="182" type="qcurve"/>
      <point x="430" y="196"/>
      <point x="441" y="196" type="qcurve"/>
      <point x="458" y="196"/>
      <point x="458" y="178" type="qcurve"/>
      <point x="458" y="174"/>
      <point x="451" y="153" type="qcurve"/>
      <point x="435" y="107"/>
      <point x="386" y="48" type="qcurve"/>
      <point x="328" y="-17"/>
    </contour>
  </outline>
</glyph>
<glyph name="B" format="2">
  <advance height="1000" width="500"/>
  <unicode hex="0042"/>
  <outline>
    <contour>
      <point x="139" y="408" type="line"/>
      <point x="282" y="408"/>
      <point x="330" y="484" type="qcurve"/>
      <point x="351" y="517"/>
      <point x="351" y="556" type="qcurve"/>
      <point x="351" y="650"/>
      <point x="221" y="650" type="qcurve"/>
      <point x="179" y="650"/>
      <point x="132" y="634" type="qcurve"/>
      <point x="132" y="408" type="line"/>
    </contour>
    <contour>
      <point x="132" y="39" type="line"/>
      <point x="315" y="39"/>
      <point x="377" y="136" type="qcurve"/>
      <point x="396" y="166"/>
      <point x="396" y="212" type="qcurve"/>
      <point x="396" y="267"/>
      <point x="373" y="298" type="qcurve"/>
      <point x="331" y="355"/>
      <point x="252" y="358" type="qcurve"/>
      <point x="189" y="358"/>
      <point x="132" y="351" type="qcurve"/>
    </contour>
    <contour>
      <point x="146" y="-10" type="qcurve"/>
      <point x="26" y="-10"/>
      <point x="26" y="17" type="qcurve"/>
      <point x="26" y="22"/>
      <point x="37" y="34"/>
      <point x="47" y="34" type="qcurve"/>
      <point x="62" y="34"/>
      <point x="69" y="36" type="qcurve"/>
      <point x="69" y="626" type="line"/>
      <point x="57" y="631"/>
      <point x="37" y="658"/>
      <point x="37" y="668" type="qcurve"/>
      <point x="37" y="676"/>
      <point x="43" y="679" type="qcurve"/>
      <point x="80" y="697"/>
      <point x="161" y="707" type="qcurve"/>
      <point x="200" y="711"/>
      <point x="230" y="711" type="qcurve"/>
      <point x="297" y="711"/>
      <point x="378" y="670"/>
      <point x="414" y="600"/>
      <point x="414" y="557" type="qcurve"/>
      <point x="414" y="517"/>
      <point x="384" y="453"/>
      <point x="337" y="410"/>
      <point x="312" y="398" type="qcurve"/>
      <point x="396" y="385"/>
      <point x="440" y="304" type="qcurve"/>
      <point x="459" y="264"/>
      <point x="459" y="215" type="qcurve"/>
      <point x="459" y="91"/>
      <point x="376" y="41" type="qcurve"/>
      <point x="298" y="-5"/>
      <point x="213" y="-7" type="qcurve"/>
      <point x="173" y="-10"/>
    </contour>
  </outline>
</glyph>
<glyph name="C" format="2">
  <advance height="1000" width="500"/>
  <unicode hex="0043"/>
  <outline>
    <contour>
      <point x="247" y="-16" type="qcurve"/>
      <point x="186" y="-16"/>
      <point x="90" y="47"/>
      <point x="35" y="185"/>
      <point x="35" y="293" type="qcurve"/>
      <point x="35" y="468"/>
      <point x="176" y="712"/>
      <point x="280" y="712" type="qcurve"/>
      <point x="386" y="712"/>
      <point x="452" y="619" type="qcurve"/>
      <point x="454" y="615"/>
      <point x="454" y="610" type="qcurve"/>
      <point x="454" y="597"/>
      <point x="432" y="561"/>
      <point x="419" y="561" type="qcurve"/>
      <point x="410" y="561"/>
      <point x="405" y="570" type="qcurve"/>
      <point x="364" y="647"/>
      <point x="277" y="647" type="qcurve"/>
      <point x="183" y="647"/>
      <point x="126" y="477" type="qcurve"/>
      <point x="102" y="396"/>
      <point x="102" y="295" type="qcurve"/>
      <point x="102" y="48"/>
      <point x="251" y="48" type="qcurve"/>
      <point x="355" y="48"/>
      <point x="430" y="173" type="qcurve"/>
      <point x="440" y="188"/>
      <point x="453" y="188" type="qcurve"/>
      <point x="468" y="188"/>
      <point x="468" y="169" type="qcurve"/>
      <point x="468" y="164"/>
      <point x="460" y="144" type="qcurve"/>
      <point x="443" y="100"/>
      <point x="390" y="45" type="qcurve"/>
      <point x="329" y="-16"/>
    </contour>
  </outline>
</glyph>
<glyph name="F" format="2">
  <advance height="1000" width="500"/>
  <unicode hex="0046"/>
  <outline>
    <contour>
      <point x="124" y="-9" type="qcurve"/>
      <point x="109" y="-9"/>
      <point x="74" y="7"/>
      <point x="74" y="19" type="qcurve"/>
      <point x="75" y="81" type="line"/>
      <point x="75" y="345" type="line"/>
      <point x="64" y="352"/>
      <point x="51" y="383"/>
      <point x="51" y="393" type="qcurve"/>
      <point x="52" y="404"/>
      <point x="64" y="404" type="qcurve"/>
      <point x="71" y="402"/>
      <point x="75" y="402" type="qcurve"/>
      <point x="75" y="649"/>
      <point x="72" y="675"/>
      <point x="72" y="685" type="qcurve"/>
      <point x="72" y="699"/>
      <point x="86" y="699" type="qcurve"/>
      <point x="96" y="699"/>
      <point x="119" y="693"/>
      <point x="128" y="689" type="qcurve"/>
      <point x="136" y="686" type="line"/>
      <point x="362" y="701"/>
      <point x="382" y="704" type="qcurve"/>
      <point x="407" y="708"/>
      <point x="416" y="708" type="qcurve"/>
      <point x="430" y="708"/>
      <point x="449" y="672"/>
      <point x="449" y="656" type="qcurve"/>
      <point x="449" y="641"/>
      <point x="434" y="641" type="qcurve"/>
      <point x="370" y="641" type="line"/>
      <point x="358" y="641"/>
      <point x="143" y="626" type="qcurve"/>
      <point x="143" y="403" type="line"/>
      <point x="315" y="417"/>
      <point x="331" y="419" type="qcurve"/>
      <point x="357" y="423"/>
      <point x="365" y="423" type="qcurve"/>
      <point x="380" y="423"/>
      <point x="398" y="387"/>
      <point x="398" y="371" type="qcurve"/>
      <point x="398" y="356"/>
      <point x="383" y="356" type="qcurve"/>
      <point x="347" y="356" type="line"/>
      <point x="307" y="356"/>
      <point x="143" y="344" type="qcurve"/>
      <point x="143" y="149"/>
      <point x="145" y="1" type="qcurve"/>
      <point x="145" y="-9"/>
    </contour>
  </outline>
</glyph>
<glyph name="G" format="2">
  <advance height="1000" width="500"/>
  <unicode hex="0047"/>
  <outline>
    <contour>
      <point x="250" y="-17" type="qcurve"/>
      <point x="184" y="-17"/>
      <point x="84" y="40"/>
      <point x="31" y="175"/>
      <point x="31" y="295" type="qcurve"/>
      <point x="31" y="461"/>
      <point x="102" y="586" type="qcurve"/>
      <point x="177" y="713"/>
      <point x="280" y="713" type="qcurve"/>
      <point x="358" y="713"/>
      <point x="396" y="675" type="qcurve"/>
      <point x="431" y="646"/>
      <point x="442" y="627" type="qcurve"/>
      <point x="443" y="618" type="line"/>
      <point x="443" y="604"/>
      <point x="419" y="566"/>
      <point x="406" y="566" type="qcurve"/>
      <point x="398" y="566"/>
      <point x="393" y="576" type="qcurve"/>
      <point x="364" y="649"/>
      <point x="280" y="649" type="qcurve"/>
      <point x="206" y="649"/>
      <point x="98" y="435"/>
      <point x="98" y="285" type="qcurve"/>
      <point x="98" y="195"/>
      <point x="135" y="89"/>
      <point x="203" y="47"/>
      <point x="250" y="47" type="qcurve"/>
      <point x="284" y="47"/>
      <point x="347" y="104"/>
      <point x="390" y="216"/>
      <point x="390" y="296" type="qcurve"/>
      <point x="389" y="309" type="line"/>
      <point x="331" y="302"/>
      <point x="273" y="293" type="qcurve"/>
      <point x="263" y="293"/>
      <point x="250" y="312"/>
      <point x="241" y="337"/>
      <point x="241" y="347" type="qcurve"/>
      <point x="241" y="361"/>
      <point x="253" y="361" type="qcurve"/>
      <point x="287" y="361"/>
      <point x="399" y="370" type="qcurve"/>
      <point x="414" y="374"/>
      <point x="425" y="374" type="qcurve"/>
      <point x="433" y="374"/>
      <point x="449" y="358"/>
      <point x="460" y="338"/>
      <point x="460" y="331" type="qcurve"/>
      <point x="460" y="325"/>
      <point x="457" y="316"/>
      <point x="457" y="94" type="qcurve"/>
      <point x="459" y="4" type="line"/>
      <point x="459" y="-9"/>
      <point x="434" y="-9" type="qcurve"/>
      <point x="418" y="-9"/>
      <point x="388" y="5"/>
      <point x="388" y="14" type="qcurve"/>
      <point x="391" y="44"/>
      <point x="391" y="74" type="qcurve"/>
      <point x="378" y="44"/>
      <point x="301" y="-17"/>
    </contour>
  </outline>
</glyph>
<glyph name="H" format="2">
  <advance height="1000" width="500"/>
  <unicode hex="0048"/>
  <outline>
    <contour>
      <point x="114" y="-11" type="qcurve"/>
      <point x="98" y="-11"/>
      <point x="63" y="5"/>
      <point x="63" y="17" type="qcurve"/>
      <point x="63" y="29"/>
      <point x="65" y="81"/>
      <point x="65" y="332" type="qcurve"/>
      <point x="66" y="332" type="line"/>
      <point x="66" y="333"/>
      <point x="61" y="333" type="qcurve"/>
      <point x="46" y="333"/>
      <point x="29" y="371"/>
      <point x="29" y="385" type="qcurve"/>
      <point x="29" y="402"/>
      <point x="42" y="402" type="qcurve"/>
      <point x="65" y="401" type="line"/>
      <point x="65" y="621"/>
      <point x="62" y="678"/>
      <point x="62" y="695" type="qcurve"/>
      <point x="62" y="705"/>
      <point x="83" y="705" type="qcurve"/>
      <point x="100" y="705"/>
      <point x="134" y="689"/>
      <point x="134" y="677" type="qcurve"/>
      <point x="134" y="665"/>
      <point x="132" y="614"/>
      <point x="132" y="401" type="qcurve"/>
      <point x="286" y="408" type="line"/>
      <point x="354" y="415" type="line"/>
      <point x="372" y="416" type="line"/>
      <point x="372" y="621"/>
      <point x="369" y="678"/>
      <point x="369" y="695" type="qcurve"/>
      <point x="369" y="705"/>
      <point x="390" y="705" type="qcurve"/>
      <point x="406" y="705"/>
      <point x="441" y="689"/>
      <point x="441" y="677" type="qcurve"/>
      <point x="441" y="665"/>
      <point x="440" y="614"/>
      <point x="440" y="106" type="qcurve"/>
      <point x="440" y="75"/>
      <point x="442" y="17"/>
      <point x="442" y="0" type="qcurve"/>
      <point x="442" y="-10"/>
      <point x="421" y="-10" type="qcurve"/>
      <point x="406" y="-10"/>
      <point x="370" y="6"/>
      <point x="370" y="18" type="qcurve"/>
      <point x="370" y="30"/>
      <point x="372" y="82"/>
      <point x="372" y="347" type="qcurve"/>
      <point x="334" y="350"/>
      <point x="310" y="350" type="qcurve"/>
      <point x="132" y="342" type="line"/>
      <point x="132" y="74"/>
      <point x="135" y="16"/>
      <point x="135" y="-1" type="qcurve"/>
      <point x="135" y="-11"/>
    </contour>
  </outline>
</glyph>
<glyph name="J" format="2">
  <advance height="1000" width="500"/>
  <unicode hex="004A"/>
  <outline>
    <contour>
      <point x="239" y="-17" type="qcurve"/>
      <point x="191" y="-17"/>
      <point x="122" y="20"/>
      <point x="82" y="71"/>
      <point x="62" y="116"/>
      <point x="62" y="122" type="qcurve"/>
      <point x="62" y="134"/>
      <point x="78" y="157"/>
      <point x="102" y="173"/>
      <point x="112" y="173" type="qcurve"/>
      <point x="125" y="173"/>
      <point x="127" y="161" type="qcurve"/>
      <point x="146" y="82"/>
      <point x="184" y="64" type="qcurve"/>
      <point x="211" y="49"/>
      <point x="235" y="49" type="qcurve"/>
      <point x="329" y="49"/>
      <point x="329" y="180" type="qcurve"/>
      <point x="329" y="589" type="line"/>
      <point x="329" y="623"/>
      <point x="327" y="695" type="qcurve"/>
      <point x="327" y="705"/>
      <point x="349" y="705" type="qcurve"/>
      <point x="365" y="705"/>
      <point x="401" y="689"/>
      <point x="401" y="677" type="qcurve"/>
      <point x="401" y="665"/>
      <point x="399" y="614"/>
      <point x="399" y="177" type="qcurve"/>
      <point x="399" y="-17"/>
    </contour>
  </outline>
</glyph>
<glyph name="K" format="2">
  <advance height="1000" width="500"/>
  <unicode hex="004B"/>
  <outline>
    <contour>
      <point x="109" y="-11" type="qcurve"/>
      <point x="93" y="-11"/>
      <point x="57" y="5"/>
      <point x="57" y="17" type="qcurve"/>
      <point x="57" y="29"/>
      <point x="59" y="84"/>
      <point x="59" y="351" type="qcurve"/>
      <point x="59" y="587"/>
      <point x="56" y="695" type="qcurve"/>
      <point x="56" y="705"/>
      <point x="77" y="705" type="qcurve"/>
      <point x="94" y="705"/>
      <point x="129" y="689"/>
      <point x="129" y="677" type="qcurve"/>
      <point x="129" y="665"/>
      <point x="127" y="614"/>
      <point x="127" y="423" type="qcurve"/>
      <point x="199" y="496"/>
      <point x="338" y="660"/>
      <point x="367" y="699" type="qcurve"/>
      <point x="373" y="705"/>
      <point x="384" y="705" type="qcurve"/>
      <point x="396" y="705"/>
      <point x="423" y="693"/>
      <point x="442" y="677"/>
      <point x="442" y="670" type="qcurve"/>
      <point x="442" y="664"/>
      <point x="411" y="639" type="qcurve"/>
      <point x="391" y="621"/>
      <point x="367" y="595" type="qcurve"/>
      <point x="293" y="506"/>
      <point x="190" y="400" type="qcurve"/>
      <point x="393" y="100"/>
      <point x="459" y="40" type="qcurve"/>
      <point x="477" y="24"/>
      <point x="477" y="20" type="qcurve"/>
      <point x="477" y="11"/>
      <point x="439" y="-9"/>
      <point x="419" y="-9" type="qcurve"/>
      <point x="395" y="-9"/>
      <point x="381" y="15" type="qcurve"/>
      <point x="375" y="25"/>
      <point x="367" y="36" type="qcurve"/>
      <point x="347" y="61"/>
      <point x="147" y="354" type="qcurve"/>
      <point x="127" y="334" type="line"/>
      <point x="127" y="77"/>
      <point x="130" y="16"/>
      <point x="130" y="-1" type="qcurve"/>
      <point x="130" y="-11"/>
    </contour>
  </outline>
</glyph>
<glyph name="L" format="2">
  <advance height="1000" width="500"/>
  <unicode hex="004C"/>
  <outline>
    <contour>
      <point x="106" y="-9" type="qcurve"/>
      <point x="84" y="-9"/>
      <point x="70" y="20" type="qcurve"/>
      <point x="64" y="31"/>
      <point x="64" y="37" type="qcurve"/>
      <point x="64" y="44"/>
      <point x="70" y="57"/>
      <point x="70" y="70" type="qcurve"/>
      <point x="70" y="621"/>
      <point x="67" y="678"/>
      <point x="67" y="695" type="qcurve"/>
      <point x="67" y="705"/>
      <point x="89" y="705" type="qcurve"/>
      <point x="106" y="705"/>
      <point x="143" y="689"/>
      <point x="143" y="677" type="qcurve"/>
      <point x="143" y="665"/>
      <point x="141" y="614"/>
      <point x="141" y="59" type="qcurve"/>
      <point x="213" y="64"/>
      <point x="349" y="64" type="qcurve"/>
      <point x="411" y="64"/>
      <point x="424" y="65" type="qcurve"/>
      <point x="439" y="65"/>
      <point x="456" y="26"/>
      <point x="456" y="12" type="qcurve"/>
      <point x="456" y="-5"/>
      <point x="443" y="-5" type="qcurve"/>
      <point x="408" y="1"/>
      <point x="331" y="1" type="qcurve"/>
      <point x="141" y="1"/>
    </contour>
  </outline>
</glyph>
<glyph name="N" format="2">
  <advance height="1000" width="500"/>
  <unicode hex="004E"/>
  <outline>
    <contour>
      <point x="102" y="-12" type="qcurve"/>
      <point x="87" y="-12"/>
      <point x="55" y="5"/>
      <point x="55" y="17" type="qcurve"/>
      <point x="55" y="29"/>
      <point x="57" y="81"/>
      <point x="57" y="641" type="qcurve"/>
      <point x="57" y="650"/>
      <point x="51" y="669"/>
      <point x="51" y="680" type="qcurve"/>
      <point x="55" y="691"/>
      <point x="93" y="708"/>
      <point x="111" y="708" type="qcurve"/>
      <point x="130" y="704"/>
      <point x="138" y="681" type="qcurve"/>
      <point x="229" y="451"/>
      <point x="305" y="282" type="qcurve"/>
      <point x="377" y="126" type="line"/>
      <point x="377" y="589" type="line"/>
      <point x="377" y="631"/>
      <point x="375" y="659" type="qcurve"/>
      <point x="374" y="695" type="line"/>
      <point x="374" y="699"/>
      <point x="387" y="706"/>
      <point x="395" y="706" type="qcurve"/>
      <point x="410" y="706"/>
      <point x="442" y="689"/>
      <point x="442" y="677" type="qcurve"/>
      <point x="442" y="665"/>
      <point x="441" y="614"/>
      <point x="441" y="88" type="qcurve"/>
      <point x="441" y="79"/>
      <point x="443" y="61" type="qcurve"/>
      <point x="445" y="33" type="line"/>
      <point x="445" y="19"/>
      <point x="405" y="-11"/>
      <point x="385" y="-11" type="qcurve"/>
      <point x="368" y="-11"/>
      <point x="346" y="37" type="qcurve"/>
      <point x="221" y="301"/>
      <point x="120" y="552" type="qcurve"/>
      <point x="120" y="105" type="line"/>
      <point x="120" y="74"/>
      <point x="123" y="16"/>
      <point x="123" y="-1" type="qcurve"/>
      <point x="123" y="-5"/>
      <point x="111" y="-12"/>
    </contour>
  </outline>
</glyph>
<glyph name="O" format="2">
  <advance height="1000" width="500"/>
  <unicode hex="004F"/>
  <outline>
    <contour>
      <point x="240" y="48" type="qcurve"/>
      <point x="397" y="48"/>
      <point x="397" y="371" type="qcurve"/>
      <point x="397" y="487"/>
      <point x="368" y="564" type="qcurve"/>
      <point x="335" y="651"/>
      <point x="267" y="651" type="qcurve"/>
      <point x="232" y="651"/>
      <point x="157" y="585"/>
      <point x="103" y="447"/>
      <point x="103" y="339" type="qcurve"/>
      <point x="103" y="259"/>
      <point x="129" y="127"/>
      <point x="187" y="48"/>
    </contour>
    <contour>
      <point x="244" y="-18" type="qcurve"/>
      <point x="173" y="-18"/>
      <point x="81" y="75"/>
      <point x="36" y="235"/>
      <point x="36" y="337" type="qcurve"/>
      <point x="36" y="456"/>
      <point x="70" y="555" type="qcurve"/>
      <point x="102" y="657"/>
      <point x="134" y="657" type="qcurve"/>
      <point x="147" y="657"/>
      <point x="153" y="650" type="qcurve"/>
      <point x="197" y="713"/>
      <point x="271" y="713" type="qcurve"/>
      <point x="334" y="713"/>
      <point x="420" y="622"/>
      <point x="465" y="464"/>
      <point x="465" y="363" type="qcurve"/>
      <point x="465" y="210"/>
      <point x="412" y="96" type="qcurve"/>
      <point x="355" y="-18"/>
    </contour>
  </outline>
</glyph>
<glyph name="P" format="2">
  <advance height="1000" width="500"/>
  <unicode hex="0050"/>
  <outline>
    <contour>
      <point x="139" y="366" type="line"/>
      <point x="401" y="386"/>
      <point x="401" y="541" type="qcurve"/>
      <point x="401" y="590"/>
      <point x="328" y="648"/>
      <point x="252" y="648" type="qcurve"/>
      <point x="190" y="648"/>
      <point x="130" y="629" type="qcurve"/>
      <point x="130" y="366" type="line"/>
    </contour>
    <contour>
      <point x="112" y="-11" type="qcurve"/>
      <point x="96" y="-11"/>
      <point x="61" y="5"/>
      <point x="61" y="17" type="qcurve"/>
      <point x="61" y="29"/>
      <point x="63" y="88"/>
      <point x="63" y="618" type="qcurve"/>
      <point x="50" y="618"/>
      <point x="23" y="654"/>
      <point x="23" y="666" type="qcurve"/>
      <point x="23" y="682"/>
      <point x="178" y="707" type="qcurve"/>
      <point x="204" y="711"/>
      <point x="254" y="711" type="qcurve"/>
      <point x="372" y="711"/>
      <point x="470" y="623"/>
      <point x="470" y="547" type="qcurve"/>
      <point x="470" y="375"/>
      <point x="301" y="336" type="qcurve"/>
      <point x="233" y="320"/>
      <point x="149" y="320" type="qcurve"/>
      <point x="134" y="320"/>
      <point x="130" y="322" type="qcurve"/>
      <point x="130" y="81"/>
      <point x="133" y="16"/>
      <point x="133" y="-1" type="qcurve"/>
      <point x="133" y="-11"/>
    </contour>
  </outline>
</glyph>
<glyph name="Q" format="2">
  <advance height="1000" width="500"/>
  <unicode hex="0051"/>
  <outline>
    <contour>
      <point x="240" y="48" type="qcurve"/>
      <point x="283" y="48"/>
      <point x="314" y="73" type="qcurve"/>
      <point x="255" y="160"/>
      <point x="249" y="167" type="qcurve"/>
      <point x="234" y="183"/>
      <point x="234" y="188" type="qcurve"/>
      <point x="234" y="197"/>
      <point x="263" y="211"/>
      <point x="278" y="211" type="qcurve"/>
      <point x="292" y="211"/>
      <point x="308" y="197"/>
      <point x="339" y="151"/>
      <point x="356" y="125" type="qcurve"/>
      <point x="397" y="203"/>
      <point x="397" y="371" type="qcurve"/>
      <point x="397" y="487"/>
      <point x="368" y="564" type="qcurve"/>
      <point x="335" y="651"/>
      <point x="267" y="651" type="qcurve"/>
      <point x="232" y="651"/>
      <point x="157" y="585"/>
      <point x="103" y="447"/>
      <point x="103" y="339" type="qcurve"/>
      <point x="103" y="259"/>
      <point x="129" y="127"/>
      <point x="187" y="48"/>
    </contour>
    <contour>
      <point x="466" y="-66" type="qcurve"/>
      <point x="461" y="-66" type="line"/>
      <point x="433" y="-59"/>
      <point x="392" y="-26" type="qcurve"/>
      <point x="371" y="-9"/>
      <point x="350" y="19" type="qcurve"/>
      <point x="307" y="-18"/>
      <point x="244" y="-18" type="qcurve"/>
      <point x="173" y="-18"/>
      <point x="81" y="75"/>
      <point x="36" y="235"/>
      <point x="36" y="337" type="qcurve"/>
      <point x="36" y="463"/>
      <point x="72" y="563" type="qcurve"/>
      <point x="105" y="658"/>
      <point x="134" y="658" type="qcurve"/>
      <point x="146" y="658"/>
      <point x="153" y="650" type="qcurve"/>
      <point x="197" y="713"/>
      <point x="271" y="713" type="qcurve"/>
      <point x="334" y="713"/>
      <point x="420" y="622"/>
      <point x="465" y="464"/>
      <point x="465" y="363" type="qcurve"/>
      <point x="465" y="173"/>
      <point x="393" y="66" type="qcurve"/>
      <point x="473" y="-40" type="line"/>
      <point x="481" y="-47"/>
      <point x="481" y="-55" type="qcurve"/>
      <point x="481" y="-66"/>
    </contour>
  </outline>
</glyph>
<glyph name="S" format="2">
  <advance height="1000" width="500"/>
  <unicode hex="0053"/>
  <outline>
    <contour>
      <point x="246" y="-18" type="qcurve"/>
      <point x="171" y="-18"/>
      <point x="72" y="44"/>
      <point x="32" y="98" type="qcurve"/>
      <point x="27" y="106"/>
      <point x="27" y="112" type="qcurve"/>
      <point x="27" y="128"/>
      <point x="52" y="165"/>
      <point x="65" y="165" type="qcurve"/>
      <point x="75" y="165"/>
      <point x="79" y="157" type="qcurve"/>
      <point x="136" y="61"/>
      <point x="191" y="52" type="qcurve"/>
      <point x="220" y="45"/>
      <point x="247" y="45" type="qcurve"/>
      <point x="331" y="45"/>
      <point x="379" y="113" type="qcurve"/>
      <point x="400" y="144"/>
      <point x="400" y="184" type="qcurve"/>
      <point x="400" y="247"/>
      <point x="346" y="320"/>
      <point x="289" y="337" type="qcurve"/>
      <point x="186" y="370" type="line"/>
      <point x="53" y="414"/>
      <point x="53" y="526" type="qcurve"/>
      <point x="53" y="573"/>
      <point x="104" y="658"/>
      <point x="196" y="713"/>
      <point x="258" y="713" type="qcurve"/>
      <point x="322" y="713"/>
      <point x="437" y="638"/>
      <point x="437" y="609" type="qcurve"/>
      <point x="437" y="607"/>
      <point x="432" y="583"/>
      <point x="423" y="557"/>
      <point x="410" y="557" type="qcurve"/>
      <point x="401" y="557"/>
      <point x="389" y="573"/>
      <point x="384" y="577" type="qcurve"/>
      <point x="329" y="650"/>
      <point x="261" y="650" type="qcurve"/>
      <point x="220" y="650"/>
      <point x="158" y="615"/>
      <point x="122" y="557"/>
      <point x="122" y="524" type="qcurve"/>
      <point x="122" y="459"/>
      <point x="213" y="430" type="qcurve"/>
      <point x="309" y="400" type="line"/>
      <point x="469" y="352"/>
      <point x="469" y="192" type="qcurve"/>
      <point x="469" y="135"/>
      <point x="420" y="39"/>
      <point x="321" y="-18"/>
    </contour>
  </outline>
</glyph>
<glyph name="T" format="2">
  <advance height="1000" width="500"/>
  <unicode hex="0054"/>
  <outline>
    <contour>
      <point x="263" y="-11" type="qcurve"/>
      <point x="248" y="-11"/>
      <point x="212" y="6"/>
      <point x="212" y="18" type="qcurve"/>
      <point x="214" y="107" type="line"/>
      <point x="214" y="630" type="line"/>
      <point x="105" y="623"/>
      <point x="64" y="616" type="qcurve"/>
      <point x="48" y="616"/>
      <point x="30" y="653"/>
      <point x="30" y="667" type="qcurve"/>
      <point x="30" y="685"/>
      <point x="45" y="685" type="qcurve"/>
      <point x="52" y="685"/>
      <point x="89" y="683"/>
      <point x="109" y="683" type="qcurve"/>
      <point x="123" y="683"/>
      <point x="365" y="700" type="qcurve"/>
      <point x="404" y="703"/>
      <point x="443" y="708" type="qcurve"/>
      <point x="457" y="708"/>
      <point x="473" y="671"/>
      <point x="473" y="657" type="qcurve"/>
      <point x="473" y="639"/>
      <point x="459" y="639" type="qcurve"/>
      <point x="403" y="642"/>
      <point x="388" y="642" type="qcurve"/>
      <point x="283" y="635" type="line"/>
      <point x="284" y="74"/>
      <point x="287" y="17"/>
      <point x="287" y="0" type="qcurve"/>
      <point x="287" y="-11"/>
    </contour>
  </outline>
</glyph>
<glyph name="U" format="2">
  <advance height="1000" width="500"/>
  <unicode hex="0055"/>
  <outline>
    <contour>
      <point x="240" y="-18" type="qcurve"/>
      <point x="169" y="-18"/>
      <point x="128" y="8" type="qcurve"/>
      <point x="55" y="54"/>
      <point x="55" y="198" type="qcurve"/>
      <point x="55" y="618"/>
      <point x="52" y="678"/>
      <point x="52" y="695" type="qcurve"/>
      <point x="52" y="707"/>
      <point x="78" y="707" type="qcurve"/>
      <point x="94" y="707"/>
      <point x="127" y="692"/>
      <point x="127" y="680" type="qcurve"/>
      <point x="127" y="668"/>
      <point x="126" y="610"/>
      <point x="126" y="210" type="qcurve"/>
      <point x="126" y="150"/>
      <point x="146" y="76"/>
      <point x="194" y="45"/>
      <point x="240" y="45" type="qcurve"/>
      <point x="306" y="45"/>
      <point x="376" y="156"/>
      <point x="376" y="242" type="qcurve"/>
      <point x="376" y="595"/>
      <point x="373" y="697" type="qcurve"/>
      <point x="373" y="709"/>
      <point x="399" y="709" type="qcurve"/>
      <point x="415" y="709"/>
      <point x="449" y="694"/>
      <point x="449" y="682" type="qcurve"/>
      <point x="449" y="670"/>
      <point x="447" y="620"/>
      <point x="447" y="230" type="qcurve"/>
      <point x="447" y="119"/>
      <point x="343" y="-18"/>
    </contour>
  </outline>
</glyph>
<glyph name="Y" format="2">
  <advance height="1000" width="500"/>
  <unicode hex="0059"/>
  <outline>
    <contour>
      <point x="260" y="-9" type="qcurve"/>
      <point x="244" y="-9"/>
      <point x="207" y="7"/>
      <point x="207" y="19" type="qcurve"/>
      <point x="210" y="108"/>
      <point x="210" y="293" type="qcurve"/>
      <point x="86" y="596"/>
      <point x="29" y="671" type="qcurve"/>
      <point x="25" y="677"/>
      <point x="25" y="679" type="qcurve"/>
      <point x="25" y="689"/>
      <point x="60" y="701"/>
      <point x="76" y="701" type="qcurve"/>
      <point x="98" y="701"/>
      <point x="102" y="694" type="qcurve"/>
      <point x="134" y="627"/>
      <point x="245" y="366" type="qcurve"/>
      <point x="275" y="431"/>
      <point x="336" y="575" type="qcurve"/>
      <point x="366" y="644"/>
      <point x="371" y="657" type="qcurve"/>
      <point x="383" y="689"/>
      <point x="394" y="709"/>
      <point x="412" y="709" type="qcurve"/>
      <point x="430" y="709"/>
      <point x="465" y="691"/>
      <point x="465" y="683" type="qcurve"/>
      <point x="464" y="679" type="line"/>
      <point x="441" y="646"/>
      <point x="396" y="552" type="qcurve"/>
      <point x="279" y="294" type="line"/>
      <point x="279" y="95"/>
      <point x="280" y="74" type="qcurve"/>
      <point x="282" y="25"/>
      <point x="282" y="1" type="qcurve"/>
      <point x="282" y="-9"/>
    </contour>
  </outline>
</glyph>
<glyph name="bracketleft" format="2">
  <advance height="1000" width="500"/>
  <unicode hex="005B"/>
  <outline>
    <contour>
      <point x="208" y="-151" type="line"/>
      <point x="196" y="-151"/>
      <point x="170" y="-126"/>
      <point x="170" y="-114" type="qcurve"/>
      <point x="171" y="-101" type="line"/>
      <point x="174" y="-75"/>
      <point x="174" y="-51" type="qcurve"/>
      <point x="174" y="678" type="line"/>
      <point x="174" y="698"/>
      <point x="168" y="727"/>
      <point x="168" y="737" type="qcurve"/>
      <point x="168" y="752"/>
      <point x="186" y="764"/>
      <point x="216" y="764" type="qcurve"/>
      <point x="253" y="764"/>
      <point x="312" y="766" type="qcurve"/>
      <point x="342" y="766" type="line"/>
      <point x="354" y="766"/>
      <point x="372" y="742"/>
      <point x="372" y="729" type="qcurve"/>
      <point x="372" y="711"/>
      <point x="358" y="711" type="qcurve"/>
      <point x="239" y="711" type="line"/>
      <point x="239" y="-95" type="line"/>
      <point x="295" y="-93" type="line"/>
      <point x="315" y="-92"/>
      <point x="338" y="-92" type="qcurve"/>
      <point x="350" y="-92"/>
      <point x="369" y="-117"/>
      <point x="369" y="-130" type="qcurve"/>
      <point x="369" y="-147"/>
      <point x="356" y="-147" type="qcurve"/>
      <point x="252" y="-147" type="line"/>
      <point x="232" y="-147"/>
      <point x="214" y="-150" type="qcurve"/>
    </contour>
  </outline>
</glyph>
<glyph name="backslash" format="2">
  <advance height="1000" width="500"/>
  <unicode hex="005C"/>
  <outline>
    <contour>
      <point x="423" y="-71" type="qcurve"/>
      <point x="412" y="-71"/>
      <point x="409" y="-62" type="qcurve"/>
      <point x="398" y="-31"/>
      <point x="383" y="3" type="qcurve"/>
      <point x="83" y="675" type="line"/>
      <point x="69" y="707"/>
      <point x="46" y="743" type="qcurve"/>
      <point x="46" y="747" type="line"/>
      <point x="46" y="754"/>
      <point x="58" y="774"/>
      <point x="78" y="790"/>
      <point x="87" y="790" type="qcurve"/>
      <point x="100" y="790"/>
      <point x="103" y="779" type="qcurve"/>
      <point x="135" y="702"/>
      <point x="431" y="32" type="qcurve"/>
      <point x="444" y="5"/>
      <point x="459" y="-20" type="qcurve"/>
      <point x="462" y="-24"/>
      <point x="462" y="-29" type="qcurve"/>
      <point x="462" y="-41"/>
      <point x="436" y="-71"/>
    </contour>
  </outline>
</glyph>
<glyph name="bracketright" format="2">
  <advance height="1000" width="500"/>
  <unicode hex="005D"/>
  <outline>
    <contour>
      <point x="159" y="-150" type="qcurve"/>
      <point x="146" y="-150"/>
      <point x="128" y="-126"/>
      <point x="128" y="-113" type="qcurve"/>
      <point x="128" y="-95"/>
      <point x="142" y="-95" type="qcurve"/>
      <point x="261" y="-95" type="line"/>
      <point x="261" y="711" type="line"/>
      <point x="206" y="709" type="line"/>
      <point x="186" y="708"/>
      <point x="162" y="708" type="qcurve"/>
      <point x="150" y="708"/>
      <point x="132" y="733"/>
      <point x="132" y="746" type="qcurve"/>
      <point x="132" y="754"/>
      <point x="139" y="763"/>
      <point x="144" y="763" type="qcurve"/>
      <point x="249" y="763" type="line"/>
      <point x="270" y="763"/>
      <point x="290" y="766" type="qcurve"/>
      <point x="292" y="767" type="line"/>
      <point x="306" y="767"/>
      <point x="330" y="742"/>
      <point x="330" y="730" type="qcurve"/>
      <point x="330" y="714"/>
      <point x="327" y="690" type="qcurve"/>
      <point x="326" y="676"/>
      <point x="326" y="-62" type="qcurve"/>
      <point x="326" y="-81"/>
      <point x="332" y="-110"/>
      <point x="332" y="-121" type="qcurve"/>
      <point x="332" y="-135"/>
      <point x="314" y="-148"/>
      <point x="285" y="-148" type="qcurve"/>
      <point x="238" y="-148" type="line"/>
      <point x="211" y="-149"/>
      <point x="168" y="-149"/>
    </contour>
  </outline>
</glyph>
<glyph name="asciicircum" format="2">
  <advance height="1000" width="500"/>
  <unicode hex="005E"/>
  <outline>
    <contour>
      <point x="110" y="463" type="qcurve"/>
      <point x="95" y="463"/>
      <point x="63" y="478"/>
      <point x="63" y="487" type="qcurve"/>
      <point x="64" y="491" type="line"/>
      <point x="87" y="523"/>
      <point x="103" y="551" type="qcurve"/>
      <point x="211" y="739" type="line"/>
      <point x="218" y="751"/>
      <point x="220" y="764" type="qcurve"/>
      <point x="223" y="784"/>
      <point x="257" y="784" type="qcurve"/>
      <point x="274" y="784"/>
      <point x="282" y="765"/>
      <point x="288" y="752" type="qcurve"/>
      <point x="404" y="548" type="line"/>
      <point x="444" y="481" type="line"/>
      <point x="444" y="475"/>
      <point x="420" y="465"/>
      <point x="406" y="465" type="qcurve"/>
      <point x="380" y="465"/>
      <point x="373" y="478" type="qcurve"/>
      <point x="362" y="504"/>
      <point x="344" y="537" type="qcurve"/>
      <point x="253" y="701" type="line"/>
      <point x="162" y="537" type="line"/>
      <point x="156" y="527"/>
      <point x="128" y="470" type="qcurve"/>
      <point x="125" y="463"/>
    </contour>
  </outline>
</glyph>
<glyph name="grave" format="2">
  <advance height="1000" width="500"/>
  <unicode hex="0060"/>
  <unicode hex="0300"/>
  <unicode hex="02CB"/>
  <outline>
    <contour>
      <point x="300" y="564" type="qcurve"/>
      <point x="313" y="564"/>
      <point x="333" y="587"/>
      <point x="333" y="600" type="qcurve"/>
      <point x="333" y="611"/>
      <point x="326" y="617" type="qcurve"/>
      <point x="223" y="723" type="line"/>
      <point x="215" y="732"/>
      <point x="201" y="732" type="qcurve"/>
      <point x="185" y="732"/>
      <point x="155" y="706"/>
      <point x="155" y="692" type="qcurve"/>
      <point x="155" y="682"/>
      <point x="163" y="675" type="qcurve"/>
      <point x="283" y="571" type="line"/>
      <point x="290" y="564"/>
    </contour>
  </outline>
</glyph>
<glyph name="b" format="2">
  <advance height="1000" width="500"/>
  <unicode hex="0062"/>
  <outline>
    <contour>
      <point x="231" y="41" type="qcurve"/>
      <point x="277" y="41"/>
      <point x="330" y="101" type="qcurve"/>
      <point x="384" y="167"/>
      <point x="384" y="276" type="qcurve"/>
      <point x="384" y="329"/>
      <point x="358" y="395"/>
      <point x="316" y="426"/>
      <point x="295" y="426" type="qcurve"/>
      <point x="222" y="426"/>
      <point x="168" y="344" type="qcurve"/>
      <point x="144" y="305"/>
      <point x="134" y="254" type="qcurve"/>
      <point x="127" y="210"/>
      <point x="127" y="101" type="qcurve"/>
      <point x="124" y="101" type="line"/>
      <point x="124" y="103"/>
      <point x="130" y="103" type="qcurve"/>
      <point x="143" y="103"/>
      <point x="152" y="86" type="qcurve"/>
      <point x="182" y="41"/>
    </contour>
    <contour>
      <point x="228" y="-17" type="qcurve"/>
      <point x="191" y="-17"/>
      <point x="136" y="18"/>
      <point x="125" y="37" type="qcurve"/>
      <point x="122" y="18"/>
      <point x="93" y="-5"/>
      <point x="79" y="-5" type="qcurve"/>
      <point x="61" y="-4"/>
      <point x="61" y="15" type="qcurve"/>
      <point x="61" y="27"/>
      <point x="63" y="81"/>
      <point x="63" y="350" type="qcurve"/>
      <point x="63" y="591"/>
      <point x="60" y="699" type="qcurve"/>
      <point x="61" y="709"/>
      <point x="81" y="709" type="qcurve"/>
      <point x="97" y="709"/>
      <point x="132" y="693"/>
      <point x="132" y="681" type="qcurve"/>
      <point x="129" y="589"/>
      <point x="129" y="380" type="qcurve"/>
      <point x="186" y="486"/>
      <point x="295" y="486" type="qcurve"/>
      <point x="365" y="486"/>
      <point x="452" y="379"/>
      <point x="452" y="278" type="qcurve"/>
      <point x="452" y="195"/>
      <point x="393" y="62"/>
      <point x="291" y="-17"/>
    </contour>
  </outline>
</glyph>
<glyph name="d" format="2">
  <advance height="1000" width="500"/>
  <unicode hex="0064"/>
  <outline>
    <contour>
      <point x="197" y="42" type="qcurve"/>
      <point x="250" y="42"/>
      <point x="311" y="111" type="qcurve"/>
      <point x="371" y="182"/>
      <point x="371" y="276" type="qcurve"/>
      <point x="371" y="376" type="line"/>
      <point x="371" y="377"/>
      <point x="359" y="377"/>
      <point x="354" y="383" type="qcurve"/>
      <point x="319" y="428"/>
      <point x="274" y="428" type="qcurve"/>
      <point x="211" y="428"/>
      <point x="113" y="279"/>
      <point x="113" y="189" type="qcurve"/>
      <point x="113" y="115"/>
      <point x="161" y="42"/>
    </contour>
    <contour>
      <point x="197" y="-18" type="qcurve"/>
      <point x="129" y="-18"/>
      <point x="46" y="89"/>
      <point x="46" y="186" type="qcurve"/>
      <point x="46" y="304"/>
      <point x="184" y="486"/>
      <point x="273" y="486" type="qcurve"/>
      <point x="345" y="486"/>
      <point x="371" y="443" type="qcurve"/>
      <point x="371" y="555"/>
      <point x="367" y="699" type="qcurve"/>
      <point x="367" y="709"/>
      <point x="388" y="709" type="qcurve"/>
      <point x="404" y="709"/>
      <point x="438" y="693"/>
      <point x="438" y="681" type="qcurve"/>
      <point x="438" y="669"/>
      <point x="436" y="618"/>
      <point x="436" y="185" type="qcurve"/>
      <point x="436" y="142"/>
      <point x="453" y="60"/>
      <point x="467" y="38" type="qcurve"/>
      <point x="469" y="32" type="line"/>
      <point x="469" y="21"/>
      <point x="443" y="-12"/>
      <point x="426" y="-12" type="qcurve"/>
      <point x="403" y="-12"/>
      <point x="374" y="93"/>
      <point x="374" y="107" type="qcurve"/>
      <point x="307" y="-18"/>
    </contour>
  </outline>
</glyph>
<glyph name="e" format="2">
  <advance height="1000" width="500"/>
  <unicode hex="0065"/>
  <outline>
    <contour>
      <point x="150" y="252" type="line"/>
      <point x="216" y="252"/>
      <point x="305" y="269"/>
      <point x="365" y="288"/>
      <point x="384" y="314"/>
      <point x="384" y="341" type="qcurve"/>
      <point x="384" y="428"/>
      <point x="297" y="428" type="qcurve"/>
      <point x="236" y="428"/>
      <point x="147" y="311"/>
      <point x="135" y="252" type="qcurve"/>
    </contour>
    <contour>
      <point x="230" y="-18" type="qcurve"/>
      <point x="182" y="-18"/>
      <point x="107" y="34"/>
      <point x="63" y="130"/>
      <point x="63" y="210" type="qcurve"/>
      <point x="44" y="226"/>
      <point x="44" y="241" type="qcurve"/>
      <point x="44" y="254"/>
      <point x="64" y="254" type="qcurve"/>
      <point x="69" y="255" type="line"/>
      <point x="83" y="330"/>
      <point x="144" y="406" type="qcurve"/>
      <point x="211" y="486"/>
      <point x="297" y="486" type="qcurve"/>
      <point x="355" y="486"/>
      <point x="423" y="443"/>
      <point x="450" y="375"/>
      <point x="450" y="340" type="qcurve"/>
      <point x="450" y="306"/>
      <point x="445" y="287" type="qcurve"/>
      <point x="432" y="234"/>
      <point x="265" y="205" type="qcurve"/>
      <point x="209" y="196"/>
      <point x="128" y="196" type="qcurve"/>
      <point x="128" y="120"/>
      <point x="187" y="41"/>
      <point x="230" y="41" type="qcurve"/>
      <point x="343" y="41"/>
      <point x="417" y="124" type="qcurve"/>
      <point x="432" y="140"/>
      <point x="441" y="140" type="qcurve"/>
      <point x="453" y="140"/>
      <point x="453" y="128" type="qcurve"/>
      <point x="453" y="120"/>
      <point x="440" y="97" type="qcurve"/>
      <point x="413" y="45"/>
      <point x="330" y="2" type="qcurve"/>
      <point x="288" y="-18"/>
    </contour>
  </outline>
</glyph>
<glyph name="f" format="2">
  <advance height="1000" width="500"/>
  <unicode hex="0066"/>
  <outline>
    <contour>
      <point x="253" y="-11" type="qcurve"/>
      <point x="237" y="-11"/>
      <point x="198" y="3"/>
      <point x="198" y="17" type="qcurve"/>
      <point x="198" y="29"/>
      <point x="201" y="91"/>
      <point x="201" y="425" type="qcurve"/>
      <point x="111" y="425" type="line"/>
      <point x="91" y="424"/>
      <point x="79" y="422" type="qcurve"/>
      <point x="57" y="422"/>
      <point x="57" y="461" type="qcurve"/>
      <point x="57" y="485"/>
      <point x="74" y="485" type="qcurve"/>
      <point x="105" y="483"/>
      <point x="201" y="483" type="qcurve"/>
      <point x="201" y="589" type="line"/>
      <point x="201" y="666"/>
      <point x="270" y="695" type="qcurve"/>
      <point x="301" y="708"/>
      <point x="331" y="708" type="qcurve"/>
      <point x="371" y="708"/>
      <point x="423" y="688"/>
      <point x="451" y="659"/>
      <point x="451" y="646" type="qcurve"/>
      <point x="451" y="629"/>
      <point x="430" y="600"/>
      <point x="421" y="600" type="qcurve"/>
      <point x="418" y="600"/>
      <point x="411" y="608" type="qcurve"/>
      <point x="385" y="647"/>
      <point x="330" y="647" type="qcurve"/>
      <point x="304" y="647"/>
      <point x="267" y="615"/>
      <point x="267" y="585" type="qcurve"/>
      <point x="267" y="483" type="line"/>
      <point x="382" y="483"/>
      <point x="421" y="486" type="qcurve"/>
      <point x="445" y="486"/>
      <point x="445" y="446" type="qcurve"/>
      <point x="445" y="423"/>
      <point x="429" y="423" type="qcurve"/>
      <point x="409" y="423"/>
      <point x="372" y="425"/>
      <point x="267" y="425" type="qcurve"/>
      <point x="267" y="74"/>
      <point x="271" y="16"/>
      <point x="271" y="-1" type="qcurve"/>
      <point x="271" y="-11"/>
    </contour>
  </outline>
</glyph>
<glyph name="g" format="2">
  <advance height="1000" width="500"/>
  <unicode hex="0067"/>
  <outline>
    <contour>
      <point x="213" y="67" type="qcurve"/>
      <point x="244" y="67"/>
      <point x="279" y="85" type="qcurve"/>
      <point x="361" y="126"/>
      <point x="381" y="225" type="qcurve"/>
      <point x="386" y="257"/>
      <point x="386" y="382" type="qcurve"/>
      <point x="384" y="379"/>
      <point x="372" y="379" type="qcurve"/>
      <point x="363" y="379"/>
      <point x="357" y="386" type="qcurve"/>
      <point x="327" y="427"/>
      <point x="275" y="427" type="qcurve"/>
      <point x="212" y="427"/>
      <point x="122" y="291"/>
      <point x="122" y="212" type="qcurve"/>
      <point x="122" y="132"/>
      <point x="169" y="67"/>
    </contour>
    <contour>
      <point x="225" y="-175" type="qcurve"/>
      <point x="110" y="-175"/>
      <point x="61" y="-84" type="qcurve"/>
      <point x="58" y="-79"/>
      <point x="58" y="-76" type="qcurve"/>
      <point x="58" y="-62"/>
      <point x="87" y="-28"/>
      <point x="101" y="-28" type="qcurve"/>
      <point x="114" y="-28"/>
      <point x="117" y="-39" type="qcurve"/>
      <point x="132" y="-80"/>
      <point x="181" y="-114"/>
      <point x="225" y="-114" type="qcurve"/>
      <point x="316" y="-114"/>
      <point x="363" y="-38" type="qcurve"/>
      <point x="385" y="-1"/>
      <point x="385" y="51" type="qcurve"/>
      <point x="385" y="108" type="line"/>
      <point x="357" y="60"/>
      <point x="262" y="7"/>
      <point x="213" y="7" type="qcurve"/>
      <point x="140" y="7"/>
      <point x="55" y="112"/>
      <point x="55" y="211" type="qcurve"/>
      <point x="55" y="312"/>
      <point x="184" y="486"/>
      <point x="275" y="486" type="qcurve"/>
      <point x="358" y="486"/>
      <point x="386" y="433" type="qcurve"/>
      <point x="386" y="445"/>
      <point x="383" y="466"/>
      <point x="383" y="475" type="qcurve"/>
      <point x="383" y="485"/>
      <point x="403" y="485" type="qcurve"/>
      <point x="419" y="485"/>
      <point x="453" y="469"/>
      <point x="453" y="458" type="qcurve"/>
      <point x="449" y="364"/>
      <point x="449" y="50" type="qcurve"/>
      <point x="449" y="-91"/>
      <point x="338" y="-149" type="qcurve"/>
      <point x="288" y="-175"/>
    </contour>
  </outline>
</glyph>
<glyph name="h" format="2">
  <advance height="1000" width="500"/>
  <unicode hex="0068"/>
  <outline>
    <contour>
      <point x="421" y="-11" type="qcurve"/>
      <point x="405" y="-11"/>
      <point x="371" y="5"/>
      <point x="371" y="17" type="qcurve"/>
      <point x="373" y="84" type="line"/>
      <point x="373" y="293" type="line"/>
      <point x="373" y="353"/>
      <point x="344" y="423"/>
      <point x="302" y="423" type="qcurve"/>
      <point x="233" y="423"/>
      <point x="187" y="368" type="qcurve"/>
      <point x="144" y="313"/>
      <point x="139" y="229" type="qcurve"/>
      <point x="135" y="187"/>
      <point x="134" y="116" type="qcurve"/>
      <point x="134" y="55"/>
      <point x="136" y="23" type="qcurve"/>
      <point x="136" y="-2" type="line"/>
      <point x="136" y="-11"/>
      <point x="116" y="-11" type="qcurve"/>
      <point x="101" y="-11"/>
      <point x="67" y="5"/>
      <point x="67" y="17" type="qcurve"/>
      <point x="68" y="88" type="line"/>
      <point x="68" y="600"/>
      <point x="67" y="642"/>
      <point x="66" y="687"/>
      <point x="66" y="697" type="qcurve"/>
      <point x="66" y="707"/>
      <point x="86" y="707" type="qcurve"/>
      <point x="101" y="707"/>
      <point x="136" y="691"/>
      <point x="136" y="679" type="qcurve"/>
      <point x="134" y="547"/>
      <point x="134" y="386" type="qcurve"/>
      <point x="157" y="428"/>
      <point x="251" y="485"/>
      <point x="302" y="485" type="qcurve"/>
      <point x="384" y="485"/>
      <point x="416" y="421" type="qcurve"/>
      <point x="438" y="374"/>
      <point x="438" y="297" type="qcurve"/>
      <point x="438" y="99"/>
      <point x="439" y="78" type="qcurve"/>
      <point x="441" y="-2" type="line"/>
      <point x="441" y="-11"/>
    </contour>
  </outline>
</glyph>
<glyph name="i" format="2">
  <advance height="1000" width="500"/>
  <unicode hex="0069"/>
  <outline>
    <contour>
      <point x="107" y="-6" type="line"/>
      <point x="91" y="-6"/>
      <point x="73" y="31"/>
      <point x="73" y="45" type="qcurve"/>
      <point x="73" y="63"/>
      <point x="88" y="63" type="qcurve"/>
      <point x="128" y="62" type="line"/>
      <point x="216" y="63" type="line"/>
      <point x="217" y="110"/>
      <point x="217" y="427" type="qcurve"/>
      <point x="181" y="422"/>
      <point x="135" y="422"/>
      <point x="123" y="421" type="qcurve"/>
      <point x="108" y="421"/>
      <point x="91" y="460"/>
      <point x="91" y="474" type="qcurve"/>
      <point x="91" y="491"/>
      <point x="104" y="491" type="qcurve"/>
      <point x="138" y="485"/>
      <point x="148" y="485" type="qcurve"/>
      <point x="217" y="485"/>
      <point x="251" y="495" type="qcurve"/>
      <point x="274" y="495"/>
      <point x="288" y="466" type="qcurve"/>
      <point x="294" y="455"/>
      <point x="294" y="449" type="qcurve"/>
      <point x="294" y="442"/>
      <point x="288" y="429"/>
      <point x="288" y="416" type="qcurve"/>
      <point x="288" y="129"/>
      <point x="289" y="64" type="qcurve"/>
      <point x="384" y="64"/>
      <point x="397" y="65" type="qcurve"/>
      <point x="412" y="65"/>
      <point x="429" y="26"/>
      <point x="429" y="12" type="qcurve"/>
      <point x="429" y="-5"/>
      <point x="416" y="-5" type="qcurve"/>
      <point x="381" y="1"/>
      <point x="304" y="1" type="qcurve"/>
      <point x="209" y="1"/>
      <point x="153" y="-1" type="qcurve"/>
    </contour>
    <contour>
      <point x="250" y="590" type="qcurve"/>
      <point x="231" y="590"/>
      <point x="202" y="630"/>
      <point x="202" y="650" type="qcurve"/>
      <point x="202" y="669"/>
      <point x="226" y="698"/>
      <point x="250" y="698" type="qcurve"/>
      <point x="269" y="698"/>
      <point x="298" y="657"/>
      <point x="298" y="636" type="qcurve"/>
      <point x="298" y="618"/>
      <point x="273" y="590"/>
    </contour>
  </outline>
</glyph>
<glyph name="j" format="2">
  <advance height="1000" width="500"/>
  <unicode hex="006A"/>
  <outline>
    <contour>
      <point x="356" y="590" type="qcurve"/>
      <point x="337" y="590"/>
      <point x="308" y="630"/>
      <point x="308" y="650" type="qcurve"/>
      <point x="308" y="669"/>
      <point x="331" y="698"/>
      <point x="356" y="698" type="qcurve"/>
      <point x="375" y="698"/>
      <point x="403" y="657"/>
      <point x="403" y="636" type="qcurve"/>
      <point x="403" y="618"/>
      <point x="379" y="590"/>
    </contour>
    <contour>
      <point x="201" y="-175" type="qcurve"/>
      <point x="99" y="-175"/>
      <point x="56" y="-82" type="qcurve"/>
      <point x="54" y="-78"/>
      <point x="54" y="-76" type="qcurve"/>
      <point x="54" y="-63"/>
      <point x="79" y="-28"/>
      <point x="95" y="-28" type="qcurve"/>
      <point x="111" y="-28"/>
      <point x="114" y="-40" type="qcurve"/>
      <point x="127" y="-82"/>
      <point x="166" y="-114"/>
      <point x="201" y="-114" type="qcurve"/>
      <point x="273" y="-114"/>
      <point x="312" y="-40" type="qcurve"/>
      <point x="330" y="-2"/>
      <point x="330" y="51" type="qcurve"/>
      <point x="330" y="427" type="line"/>
      <point x="285" y="422"/>
      <point x="189" y="422"/>
      <point x="179" y="421" type="qcurve"/>
      <point x="162" y="421"/>
      <point x="148" y="460"/>
      <point x="148" y="474" type="qcurve"/>
      <point x="148" y="491"/>
      <point x="164" y="491" type="qcurve"/>
      <point x="191" y="485"/>
      <point x="229" y="485" type="qcurve"/>
      <point x="333" y="485"/>
      <point x="361" y="495" type="qcurve"/>
      <point x="385" y="495"/>
      <point x="396" y="464" type="qcurve"/>
      <point x="401" y="454"/>
      <point x="401" y="449" type="qcurve"/>
      <point x="401" y="442"/>
      <point x="396" y="429"/>
      <point x="396" y="416" type="qcurve"/>
      <point x="394" y="50" type="line"/>
      <point x="394" y="-21"/>
      <point x="344" y="-120"/>
      <point x="255" y="-175"/>
    </contour>
  </outline>
</glyph>
<glyph name="k" format="2">
  <advance height="1000" width="500"/>
  <unicode hex="006B"/>
  <outline>
    <contour>
      <point x="407" y="-14" type="qcurve"/>
      <point x="394" y="-14"/>
      <point x="348" y="35" type="qcurve"/>
      <point x="311" y="79"/>
      <point x="201" y="213"/>
      <point x="162" y="256" type="qcurve"/>
      <point x="144" y="244" type="line"/>
      <point x="144" y="103"/>
      <point x="145" y="94" type="qcurve"/>
      <point x="149" y="46"/>
      <point x="149" y="0" type="qcurve"/>
      <point x="149" y="-10"/>
      <point x="128" y="-10" type="qcurve"/>
      <point x="112" y="-10"/>
      <point x="77" y="6"/>
      <point x="77" y="18" type="qcurve"/>
      <point x="79" y="81" type="line"/>
      <point x="79" y="600"/>
      <point x="78" y="642"/>
      <point x="76" y="687"/>
      <point x="76" y="697" type="qcurve"/>
      <point x="77" y="707"/>
      <point x="97" y="707" type="qcurve"/>
      <point x="113" y="707"/>
      <point x="148" y="691"/>
      <point x="148" y="679" type="qcurve"/>
      <point x="144" y="583"/>
      <point x="144" y="318" type="qcurve"/>
      <point x="307" y="443" type="line"/>
      <point x="319" y="452"/>
      <point x="338" y="472"/>
      <point x="348" y="484"/>
      <point x="360" y="484" type="qcurve"/>
      <point x="372" y="484"/>
      <point x="399" y="474"/>
      <point x="418" y="459"/>
      <point x="418" y="452" type="qcurve"/>
      <point x="418" y="447"/>
      <point x="376" y="421" type="qcurve"/>
      <point x="354" y="406"/>
      <point x="209" y="293" type="qcurve"/>
      <point x="236" y="264"/>
      <point x="304" y="184"/>
      <point x="405" y="68" type="qcurve"/>
      <point x="427" y="46"/>
      <point x="456" y="29" type="qcurve"/>
      <point x="461" y="27"/>
      <point x="461" y="23" type="qcurve"/>
      <point x="461" y="17"/>
      <point x="444" y="0"/>
      <point x="419" y="-14"/>
    </contour>
  </outline>
</glyph>
<glyph name="l" format="2">
  <advance height="1000" width="500"/>
  <unicode hex="006C"/>
  <outline>
    <contour>
      <point x="287" y="-18" type="qcurve"/>
      <point x="234" y="-18"/>
      <point x="189" y="45"/>
      <point x="189" y="110" type="qcurve"/>
      <point x="188" y="647" type="line"/>
      <point x="149" y="641"/>
      <point x="98" y="641"/>
      <point x="85" y="640" type="qcurve"/>
      <point x="73" y="640"/>
      <point x="54" y="678"/>
      <point x="54" y="693" type="qcurve"/>
      <point x="54" y="710"/>
      <point x="63" y="710" type="qcurve"/>
      <point x="101" y="704"/>
      <point x="112" y="704" type="qcurve"/>
      <point x="183" y="704"/>
      <point x="223" y="714" type="qcurve"/>
      <point x="242" y="714"/>
      <point x="256" y="687" type="qcurve"/>
      <point x="263" y="676"/>
      <point x="263" y="668" type="qcurve"/>
      <point x="263" y="660"/>
      <point x="256" y="647"/>
      <point x="256" y="108" type="qcurve"/>
      <point x="256" y="69"/>
      <point x="271" y="46"/>
      <point x="297" y="46" type="qcurve"/>
      <point x="344" y="46"/>
      <point x="406" y="87" type="qcurve"/>
      <point x="423" y="100"/>
      <point x="432" y="100" type="qcurve"/>
      <point x="440" y="100"/>
      <point x="440" y="89" type="qcurve"/>
      <point x="440" y="79"/>
      <point x="415" y="45"/>
      <point x="371" y="8"/>
      <point x="311" y="-18"/>
    </contour>
  </outline>
</glyph>
<glyph name="n" format="2">
  <advance height="1000" width="500"/>
  <unicode hex="006E"/>
  <outline>
    <contour>
      <point x="419" y="-11" type="qcurve"/>
      <point x="403" y="-11"/>
      <point x="369" y="5"/>
      <point x="369" y="17" type="qcurve"/>
      <point x="370" y="25"/>
      <point x="370" y="64"/>
      <point x="371" y="84" type="qcurve"/>
      <point x="371" y="293" type="line"/>
      <point x="371" y="353"/>
      <point x="342" y="423"/>
      <point x="300" y="423" type="qcurve"/>
      <point x="231" y="423"/>
      <point x="185" y="368" type="qcurve"/>
      <point x="142" y="313"/>
      <point x="137" y="229" type="qcurve"/>
      <point x="133" y="184"/>
      <point x="133" y="79" type="qcurve"/>
      <point x="133" y="56"/>
      <point x="135" y="-2" type="qcurve"/>
      <point x="135" y="-11"/>
      <point x="115" y="-11" type="qcurve"/>
      <point x="99" y="-11"/>
      <point x="65" y="5"/>
      <point x="65" y="17" type="qcurve"/>
      <point x="65" y="44"/>
      <point x="67" y="88" type="qcurve"/>
      <point x="67" y="395" type="line"/>
      <point x="64" y="458"/>
      <point x="64" y="471" type="qcurve"/>
      <point x="64" y="481"/>
      <point x="84" y="481" type="qcurve"/>
      <point x="100" y="481"/>
      <point x="134" y="465"/>
      <point x="134" y="453" type="qcurve"/>
      <point x="132" y="386" type="line"/>
      <point x="155" y="428"/>
      <point x="249" y="485"/>
      <point x="300" y="485" type="qcurve"/>
      <point x="383" y="485"/>
      <point x="414" y="421" type="qcurve"/>
      <point x="436" y="374"/>
      <point x="436" y="297" type="qcurve"/>
      <point x="436" y="99"/>
      <point x="437" y="78" type="qcurve"/>
      <point x="439" y="33"/>
      <point x="439" y="-2" type="qcurve"/>
      <point x="439" y="-11"/>
    </contour>
  </outline>
</glyph>
<glyph name="p" format="2">
  <advance height="1000" width="500"/>
  <unicode hex="0070"/>
  <outline>
    <contour>
      <point x="234" y="41" type="qcurve"/>
      <point x="281" y="41"/>
      <point x="334" y="101" type="qcurve"/>
      <point x="388" y="167"/>
      <point x="388" y="276" type="qcurve"/>
      <point x="388" y="329"/>
      <point x="362" y="395"/>
      <point x="320" y="426"/>
      <point x="298" y="426" type="qcurve"/>
      <point x="225" y="426"/>
      <point x="172" y="344" type="qcurve"/>
      <point x="147" y="305"/>
      <point x="137" y="254" type="qcurve"/>
      <point x="130" y="210"/>
      <point x="130" y="101" type="qcurve"/>
      <point x="128" y="101"/>
      <point x="128" y="102" type="qcurve"/>
      <point x="128" y="103"/>
      <point x="133" y="103" type="qcurve"/>
      <point x="146" y="103"/>
      <point x="156" y="86" type="qcurve"/>
      <point x="184" y="41"/>
    </contour>
    <contour>
      <point x="115" y="-172" type="qcurve"/>
      <point x="99" y="-172"/>
      <point x="64" y="-156"/>
      <point x="64" y="-144" type="qcurve"/>
      <point x="64" y="-132"/>
      <point x="66" y="-80"/>
      <point x="66" y="157" type="qcurve"/>
      <point x="66" y="403"/>
      <point x="63" y="472" type="qcurve"/>
      <point x="63" y="482"/>
      <point x="83" y="482" type="qcurve"/>
      <point x="100" y="482"/>
      <point x="136" y="466"/>
      <point x="136" y="454" type="qcurve"/>
      <point x="136" y="448"/>
      <point x="134" y="416"/>
      <point x="134" y="399" type="qcurve"/>
      <point x="133" y="381" type="line"/>
      <point x="189" y="486"/>
      <point x="298" y="486" type="qcurve"/>
      <point x="368" y="486"/>
      <point x="455" y="379"/>
      <point x="455" y="278" type="qcurve"/>
      <point x="455" y="111"/>
      <point x="350" y="23" type="qcurve"/>
      <point x="300" y="-17"/>
      <point x="237" y="-17" type="qcurve"/>
      <point x="204" y="-17"/>
      <point x="140" y="17"/>
      <point x="131" y="30" type="qcurve"/>
      <point x="131" y="-87"/>
      <point x="136" y="-145"/>
      <point x="136" y="-162" type="qcurve"/>
      <point x="136" y="-172"/>
    </contour>
  </outline>
</glyph>
<glyph name="q" format="2">
  <advance height="1000" width="500"/>
  <unicode hex="0071"/>
  <outline>
    <contour>
      <point x="197" y="42" type="qcurve"/>
      <point x="251" y="42"/>
      <point x="372" y="182"/>
      <point x="372" y="276" type="qcurve"/>
      <point x="372" y="375" type="line"/>
      <point x="372" y="377"/>
      <point x="360" y="377"/>
      <point x="354" y="383" type="qcurve"/>
      <point x="320" y="428"/>
      <point x="275" y="428" type="qcurve"/>
      <point x="212" y="428"/>
      <point x="114" y="279"/>
      <point x="114" y="189" type="qcurve"/>
      <point x="114" y="115"/>
      <point x="161" y="42"/>
    </contour>
    <contour>
      <point x="421" y="-176" type="qcurve"/>
      <point x="405" y="-176"/>
      <point x="370" y="-160"/>
      <point x="370" y="-148" type="qcurve"/>
      <point x="373" y="-46"/>
      <point x="374" y="100" type="qcurve"/>
      <point x="347" y="46"/>
      <point x="252" y="-18"/>
      <point x="197" y="-18" type="qcurve"/>
      <point x="129" y="-18"/>
      <point x="47" y="89"/>
      <point x="47" y="186" type="qcurve"/>
      <point x="47" y="304"/>
      <point x="184" y="486"/>
      <point x="274" y="486" type="qcurve"/>
      <point x="346" y="486"/>
      <point x="373" y="443" type="qcurve"/>
      <point x="373" y="450"/>
      <point x="370" y="468"/>
      <point x="370" y="475" type="qcurve"/>
      <point x="370" y="485"/>
      <point x="391" y="485" type="qcurve"/>
      <point x="406" y="485"/>
      <point x="441" y="469"/>
      <point x="441" y="457" type="qcurve"/>
      <point x="441" y="445"/>
      <point x="439" y="394"/>
      <point x="439" y="-60" type="qcurve"/>
      <point x="439" y="-91"/>
      <point x="442" y="-149"/>
      <point x="442" y="-166" type="qcurve"/>
      <point x="442" y="-176"/>
    </contour>
  </outline>
</glyph>
<glyph name="r" format="2">
  <advance height="1000" width="500"/>
  <unicode hex="0072"/>
  <outline>
    <contour>
      <point x="156" y="-10" type="qcurve"/>
      <point x="176" y="-10"/>
      <point x="176" y="0" type="qcurve"/>
      <point x="176" y="17"/>
      <point x="171" y="75"/>
      <point x="171" y="106" type="qcurve"/>
      <point x="171" y="163"/>
      <point x="172" y="201" type="qcurve"/>
      <point x="172" y="278"/>
      <point x="185" y="315" type="qcurve"/>
      <point x="203" y="369"/>
      <point x="275" y="421"/>
      <point x="317" y="421" type="qcurve"/>
      <point x="332" y="421"/>
      <point x="374" y="403"/>
      <point x="385" y="384" type="qcurve"/>
      <point x="392" y="374"/>
      <point x="399" y="374" type="qcurve"/>
      <point x="412" y="374"/>
      <point x="435" y="410"/>
      <point x="435" y="426" type="qcurve"/>
      <point x="435" y="438"/>
      <point x="419" y="452" type="qcurve"/>
      <point x="380" y="486"/>
      <point x="320" y="486" type="qcurve"/>
      <point x="268" y="486"/>
      <point x="193" y="439"/>
      <point x="172" y="405" type="qcurve"/>
      <point x="172" y="422"/>
      <point x="175" y="446"/>
      <point x="175" y="456" type="qcurve"/>
      <point x="175" y="469"/>
      <point x="138" y="484"/>
      <point x="122" y="484" type="qcurve"/>
      <point x="103" y="484"/>
      <point x="102" y="474" type="qcurve"/>
      <point x="102" y="454"/>
      <point x="104" y="398" type="qcurve"/>
      <point x="105" y="378"/>
      <point x="105" y="81" type="qcurve"/>
      <point x="103" y="18" type="line"/>
      <point x="103" y="5"/>
      <point x="140" y="-10"/>
    </contour>
  </outline>
</glyph>
<glyph name="t" format="2">
  <advance height="1000" width="500"/>
  <unicode hex="0074"/>
  <outline>
    <contour>
      <point x="281" y="-18" type="qcurve"/>
      <point x="225" y="-18"/>
      <point x="175" y="44"/>
      <point x="175" y="110" type="qcurve"/>
      <point x="175" y="425" type="line"/>
      <point x="111" y="425" type="line"/>
      <point x="91" y="424"/>
      <point x="79" y="422" type="qcurve"/>
      <point x="67" y="422"/>
      <point x="57" y="449"/>
      <point x="57" y="461" type="qcurve"/>
      <point x="57" y="485"/>
      <point x="75" y="485" type="qcurve"/>
      <point x="105" y="483"/>
      <point x="175" y="483" type="qcurve"/>
      <point x="175" y="559" type="line"/>
      <point x="173" y="615"/>
      <point x="173" y="635" type="qcurve"/>
      <point x="173" y="645"/>
      <point x="189" y="645" type="qcurve"/>
      <point x="206" y="645"/>
      <point x="244" y="632"/>
      <point x="244" y="617" type="qcurve"/>
      <point x="242" y="563"/>
      <point x="241" y="483" type="qcurve"/>
      <point x="383" y="483"/>
      <point x="422" y="486" type="qcurve"/>
      <point x="434" y="486"/>
      <point x="445" y="459"/>
      <point x="445" y="446" type="qcurve"/>
      <point x="445" y="423"/>
      <point x="429" y="423" type="qcurve"/>
      <point x="409" y="423"/>
      <point x="371" y="425"/>
      <point x="241" y="425" type="qcurve"/>
      <point x="241" y="108" type="line"/>
      <point x="241" y="70"/>
      <point x="260" y="46"/>
      <point x="292" y="46" type="qcurve"/>
      <point x="338" y="46"/>
      <point x="411" y="88" type="qcurve"/>
      <point x="428" y="100"/>
      <point x="435" y="100" type="qcurve"/>
      <point x="441" y="100"/>
      <point x="441" y="89" type="qcurve"/>
      <point x="441" y="64"/>
      <point x="388" y="25" type="qcurve"/>
      <point x="329" y="-18"/>
    </contour>
  </outline>
</glyph>
<glyph name="u" format="2">
  <advance height="1000" width="500"/>
  <unicode hex="0075"/>
  <outline>
    <contour>
      <point x="205" y="-18" type="qcurve"/>
      <point x="67" y="-18"/>
      <point x="67" y="171" type="qcurve"/>
      <point x="67" y="391"/>
      <point x="65" y="440" type="qcurve"/>
      <point x="64" y="474" type="line"/>
      <point x="65" y="484"/>
      <point x="85" y="484" type="qcurve"/>
      <point x="101" y="484"/>
      <point x="136" y="468"/>
      <point x="136" y="456" type="qcurve"/>
      <point x="134" y="340"/>
      <point x="134" y="175" type="qcurve"/>
      <point x="134" y="116"/>
      <point x="172" y="42"/>
      <point x="205" y="42" type="qcurve"/>
      <point x="240" y="42"/>
      <point x="312" y="107"/>
      <point x="363" y="224"/>
      <point x="367" y="301" type="qcurve"/>
      <point x="368" y="318"/>
      <point x="368" y="475" type="qcurve"/>
      <point x="368" y="485"/>
      <point x="390" y="485" type="qcurve"/>
      <point x="406" y="485"/>
      <point x="440" y="470"/>
      <point x="440" y="458" type="qcurve"/>
      <point x="430" y="383"/>
      <point x="430" y="237" type="qcurve"/>
      <point x="430" y="97"/>
      <point x="464" y="34" type="qcurve"/>
      <point x="465" y="29" type="line"/>
      <point x="465" y="19"/>
      <point x="440" y="-13"/>
      <point x="422" y="-13" type="qcurve"/>
      <point x="397" y="-13"/>
      <point x="375" y="81"/>
      <point x="374" y="103" type="qcurve"/>
      <point x="354" y="59"/>
      <point x="263" y="-18"/>
    </contour>
  </outline>
</glyph>
<glyph name="v" format="2">
  <advance height="1000" width="500"/>
  <unicode hex="0076"/>
  <outline>
    <contour>
      <point x="254" y="-18" type="qcurve"/>
      <point x="243" y="-18"/>
      <point x="233" y="-11" type="qcurve"/>
      <point x="213" y="2"/>
      <point x="207" y="19" type="qcurve"/>
      <point x="74" y="415"/>
      <point x="63" y="441" type="qcurve"/>
      <point x="54" y="461" type="line"/>
      <point x="54" y="471"/>
      <point x="80" y="481"/>
      <point x="95" y="481" type="qcurve"/>
      <point x="125" y="481"/>
      <point x="130" y="466" type="qcurve"/>
      <point x="145" y="408"/>
      <point x="245" y="98" type="qcurve"/>
      <point x="359" y="404" type="line"/>
      <point x="370" y="438"/>
      <point x="379" y="475" type="qcurve"/>
      <point x="383" y="486"/>
      <point x="401" y="486" type="qcurve"/>
      <point x="417" y="486"/>
      <point x="452" y="468"/>
      <point x="452" y="458" type="qcurve"/>
      <point x="430" y="408"/>
      <point x="299" y="66" type="qcurve"/>
      <point x="288" y="37"/>
      <point x="279" y="6" type="qcurve"/>
      <point x="273" y="-18"/>
    </contour>
  </outline>
</glyph>
<glyph name="w" format="2">
  <advance height="1000" width="500"/>
  <unicode hex="0077"/>
  <outline>
    <contour>
      <point x="362" y="-17" type="qcurve"/>
      <point x="347" y="-17"/>
      <point x="318" y="0"/>
      <point x="305" y="15"/>
      <point x="303" y="25" type="qcurve"/>
      <point x="246" y="347" type="line"/>
      <point x="196" y="67" type="line"/>
      <point x="186" y="0"/>
      <point x="171" y="-16"/>
      <point x="156" y="-16" type="qcurve"/>
      <point x="142" y="-16"/>
      <point x="113" y="-1"/>
      <point x="100" y="14"/>
      <point x="99" y="25" type="qcurve"/>
      <point x="98" y="31"/>
      <point x="95" y="46"/>
      <point x="39" y="412"/>
      <point x="31" y="446"/>
      <point x="27" y="461" type="qcurve"/>
      <point x="27" y="481"/>
      <point x="60" y="481" type="qcurve"/>
      <point x="73" y="481"/>
      <point x="99" y="471"/>
      <point x="99" y="463" type="qcurve"/>
      <point x="145" y="104" type="line"/>
      <point x="202" y="438"/>
      <point x="203" y="458" type="qcurve"/>
      <point x="203" y="470"/>
      <point x="230" y="470" type="qcurve"/>
      <point x="248" y="470"/>
      <point x="287" y="455"/>
      <point x="288" y="446" type="qcurve"/>
      <point x="349" y="101" type="line"/>
      <point x="403" y="445"/>
      <point x="405" y="475" type="qcurve"/>
      <point x="405" y="486"/>
      <point x="426" y="486" type="qcurve"/>
      <point x="442" y="486"/>
      <point x="476" y="469"/>
      <point x="476" y="456" type="qcurve"/>
      <point x="470" y="436" type="line"/>
      <point x="462" y="396"/>
      <point x="403" y="68" type="qcurve"/>
      <point x="396" y="32"/>
      <point x="388" y="-4"/>
      <point x="375" y="-17"/>
    </contour>
  </outline>
</glyph>
<glyph name="x" format="2">
  <advance height="1000" width="500"/>
  <unicode hex="0078"/>
  <outline>
    <contour>
      <point x="103" y="-11" type="qcurve"/>
      <point x="86" y="-11"/>
      <point x="54" y="3"/>
      <point x="54" y="10" type="qcurve"/>
      <point x="54" y="14"/>
      <point x="57" y="16" type="qcurve"/>
      <point x="78" y="40"/>
      <point x="113" y="89" type="qcurve"/>
      <point x="216" y="244" type="line"/>
      <point x="119" y="393" type="line"/>
      <point x="101" y="420"/>
      <point x="72" y="452" type="qcurve"/>
      <point x="69" y="456" type="line"/>
      <point x="69" y="461"/>
      <point x="88" y="472"/>
      <point x="114" y="479"/>
      <point x="124" y="479" type="qcurve"/>
      <point x="140" y="479"/>
      <point x="143" y="472" type="qcurve"/>
      <point x="154" y="449"/>
      <point x="252" y="299" type="qcurve"/>
      <point x="350" y="449"/>
      <point x="364" y="476" type="qcurve"/>
      <point x="370" y="483"/>
      <point x="384" y="483" type="qcurve"/>
      <point x="400" y="483"/>
      <point x="436" y="467"/>
      <point x="436" y="460" type="qcurve"/>
      <point x="434" y="456" type="line"/>
      <point x="407" y="426"/>
      <point x="387" y="397" type="qcurve"/>
      <point x="287" y="245" type="line"/>
      <point x="389" y="91" type="line"/>
      <point x="400" y="75"/>
      <point x="431" y="36" type="qcurve"/>
      <point x="447" y="17"/>
      <point x="447" y="13" type="qcurve"/>
      <point x="447" y="5"/>
      <point x="414" y="-9"/>
      <point x="397" y="-9" type="qcurve"/>
      <point x="380" y="-9"/>
      <point x="367" y="5"/>
      <point x="356" y="29"/>
      <point x="251" y="190" type="qcurve"/>
      <point x="157" y="48"/>
      <point x="135" y="5"/>
      <point x="120" y="-11"/>
    </contour>
  </outline>
</glyph>
<glyph name="y" format="2">
  <advance height="1000" width="500"/>
  <unicode hex="0079"/>
  <outline>
    <contour>
      <point x="137" y="-164" type="qcurve"/>
      <point x="128" y="-164" type="line"/>
      <point x="77" y="-164"/>
      <point x="44" y="-136" type="qcurve"/>
      <point x="40" y="-130"/>
      <point x="40" y="-124" type="qcurve"/>
      <point x="40" y="-111"/>
      <point x="58" y="-75"/>
      <point x="72" y="-75" type="qcurve"/>
      <point x="82" y="-75"/>
      <point x="87" y="-83" type="qcurve"/>
      <point x="104" y="-101"/>
      <point x="134" y="-101" type="qcurve"/>
      <point x="163" y="-101"/>
      <point x="186" y="-47" type="qcurve"/>
      <point x="226" y="46" type="line"/>
      <point x="75" y="425"/>
      <point x="57" y="459" type="qcurve"/>
      <point x="56" y="464" type="line"/>
      <point x="56" y="471"/>
      <point x="80" y="480"/>
      <point x="95" y="480" type="qcurve"/>
      <point x="128" y="480"/>
      <point x="133" y="466" type="qcurve"/>
      <point x="144" y="434"/>
      <point x="261" y="131" type="qcurve"/>
      <point x="369" y="382" type="line"/>
      <point x="388" y="426"/>
      <point x="401" y="475" type="qcurve"/>
      <point x="405" y="485"/>
      <point x="420" y="485" type="qcurve"/>
      <point x="435" y="485"/>
      <point x="467" y="462"/>
      <point x="467" y="447" type="qcurve"/>
      <point x="467" y="442"/>
      <point x="463" y="434" type="qcurve"/>
      <point x="438" y="381"/>
      <point x="239" y="-81" type="qcurve"/>
      <point x="221" y="-123"/>
      <point x="174" y="-164"/>
    </contour>
  </outline>
</glyph>
<glyph name="braceleft" format="2">
  <advance height="1000" width="500"/>
  <unicode hex="007B"/>
  <outline>
    <contour>
      <point x="387" y="-159" type="qcurve"/>
      <point x="381" y="-159"/>
      <point x="372" y="-157" type="qcurve"/>
      <point x="221" y="-122"/>
      <point x="221" y="-4" type="qcurve"/>
      <point x="221" y="28"/>
      <point x="239" y="116"/>
      <point x="239" y="189" type="qcurve"/>
      <point x="239" y="210"/>
      <point x="222" y="254"/>
      <point x="177" y="286"/>
      <point x="134" y="288" type="qcurve"/>
      <point x="121" y="290"/>
      <point x="101" y="313"/>
      <point x="101" y="327" type="qcurve"/>
      <point x="101" y="346"/>
      <point x="116" y="346" type="qcurve"/>
      <point x="129" y="346" type="line"/>
      <point x="238" y="346"/>
      <point x="238" y="472" type="qcurve"/>
      <point x="238" y="510"/>
      <point x="232" y="593" type="qcurve"/>
      <point x="231" y="629" type="line"/>
      <point x="231" y="672"/>
      <point x="294" y="745"/>
      <point x="373" y="776" type="qcurve"/>
      <point x="381" y="779"/>
      <point x="385" y="779" type="qcurve"/>
      <point x="399" y="779"/>
      <point x="399" y="765" type="qcurve"/>
      <point x="399" y="754"/>
      <point x="388" y="748" type="qcurve"/>
      <point x="301" y="708"/>
      <point x="301" y="627" type="qcurve"/>
      <point x="302" y="598" type="line"/>
      <point x="308" y="515"/>
      <point x="308" y="469" type="qcurve"/>
      <point x="308" y="442"/>
      <point x="294" y="382"/>
      <point x="257" y="328"/>
      <point x="223" y="312" type="qcurve"/>
      <point x="265" y="301"/>
      <point x="308" y="234"/>
      <point x="308" y="193" type="qcurve"/>
      <point x="308" y="114"/>
      <point x="290" y="11"/>
      <point x="290" y="-4" type="qcurve"/>
      <point x="290" y="-88"/>
      <point x="387" y="-130" type="qcurve"/>
      <point x="400" y="-137"/>
      <point x="400" y="-149" type="qcurve"/>
      <point x="400" y="-159"/>
    </contour>
  </outline>
</glyph>
<glyph name="bar" format="2">
  <advance height="1000" width="500"/>
  <unicode hex="007C"/>
  <outline>
    <contour>
      <point x="290" y="720" type="line"/>
      <point x="290" y="731"/>
      <point x="291" y="741" type="qcurve"/>
      <point x="291" y="757" type="line"/>
      <point x="291" y="768"/>
      <point x="258" y="780"/>
      <point x="242" y="780" type="qcurve"/>
      <point x="222" y="780"/>
      <point x="222" y="771" type="qcurve"/>
      <point x="222" y="751"/>
      <point x="224" y="719" type="qcurve"/>
      <point x="225" y="-5" type="line"/>
      <point x="225" y="-29" type="line"/>
      <point x="223" y="-88" type="line"/>
      <point x="223" y="-99"/>
      <point x="258" y="-113"/>
      <point x="273" y="-113" type="qcurve"/>
      <point x="292" y="-113"/>
      <point x="292" y="-105" type="qcurve"/>
      <point x="291" y="-33" type="line"/>
      <point x="290" y="-25"/>
      <point x="290" y="-9"/>
      <point x="289" y="-4" type="qcurve"/>
    </contour>
  </outline>
</glyph>
<glyph name="braceright" format="2">
  <advance height="1000" width="500"/>
  <unicode hex="007D"/>
  <outline>
    <contour>
      <point x="114" y="-156" type="line"/>
      <point x="101" y="-156"/>
      <point x="101" y="-143" type="qcurve"/>
      <point x="101" y="-131"/>
      <point x="113" y="-125" type="qcurve"/>
      <point x="201" y="-85"/>
      <point x="201" y="-4" type="qcurve"/>
      <point x="198" y="61" type="line"/>
      <point x="193" y="114"/>
      <point x="193" y="154" type="qcurve"/>
      <point x="193" y="182"/>
      <point x="208" y="242"/>
      <point x="245" y="295"/>
      <point x="278" y="311" type="qcurve"/>
      <point x="236" y="322"/>
      <point x="193" y="389"/>
      <point x="193" y="430" type="qcurve"/>
      <point x="193" y="510"/>
      <point x="211" y="612"/>
      <point x="211" y="627" type="qcurve"/>
      <point x="211" y="712"/>
      <point x="115" y="753" type="qcurve"/>
      <point x="101" y="761"/>
      <point x="101" y="772" type="qcurve"/>
      <point x="102" y="782"/>
      <point x="114" y="782" type="qcurve"/>
      <point x="123" y="782"/>
      <point x="128" y="780"/>
      <point x="130" y="780" type="qcurve"/>
      <point x="280" y="745"/>
      <point x="280" y="627" type="qcurve"/>
      <point x="280" y="596"/>
      <point x="262" y="508"/>
      <point x="262" y="434" type="qcurve"/>
      <point x="262" y="383"/>
      <point x="302" y="354" type="qcurve"/>
      <point x="325" y="337"/>
      <point x="368" y="335" type="qcurve"/>
      <point x="382" y="334"/>
      <point x="400" y="310"/>
      <point x="400" y="294" type="qcurve"/>
      <point x="400" y="277"/>
      <point x="385" y="277" type="qcurve"/>
      <point x="372" y="277" type="line"/>
      <point x="263" y="277"/>
      <point x="263" y="151" type="qcurve"/>
      <point x="263" y="116"/>
      <point x="269" y="41" type="qcurve"/>
      <point x="271" y="-6" type="line"/>
      <point x="271" y="-79"/>
      <point x="194" y="-123" type="qcurve"/>
      <point x="154" y="-146"/>
      <point x="130" y="-151" type="qcurve"/>
    </contour>
  </outline>
</glyph>
<glyph name="exclamdown" format="2">
  <advance height="1000" width="500"/>
  <unicode hex="00A1"/>
  <outline>
    <contour>
      <point x="252" y="400" type="qcurve"/>
      <point x="279" y="400"/>
      <point x="305" y="429"/>
      <point x="305" y="450" type="qcurve"/>
      <point x="305" y="472"/>
      <point x="273" y="510"/>
      <point x="252" y="510" type="qcurve"/>
      <point x="225" y="510"/>
      <point x="200" y="484"/>
      <point x="200" y="464" type="qcurve"/>
      <point x="200" y="441"/>
      <point x="233" y="400"/>
    </contour>
    <contour>
      <point x="265" y="-211" type="qcurve"/>
      <point x="288" y="-211"/>
      <point x="291" y="-194" type="qcurve"/>
      <point x="291" y="-192" type="line"/>
      <point x="286" y="-154"/>
      <point x="283" y="81" type="qcurve"/>
      <point x="281" y="278" type="line"/>
      <point x="281" y="304"/>
      <point x="282" y="314" type="qcurve"/>
      <point x="282" y="324"/>
      <point x="253" y="336"/>
      <point x="240" y="336" type="qcurve"/>
      <point x="224" y="336"/>
      <point x="224" y="328" type="qcurve"/>
      <point x="224" y="278"/>
      <point x="212" y="-108" type="qcurve"/>
      <point x="211" y="-149"/>
      <point x="206" y="-179" type="qcurve"/>
      <point x="206" y="-193"/>
      <point x="247" y="-211"/>
    </contour>
  </outline>
</glyph>
<glyph name="cent" format="2">
  <advance height="1000" width="500"/>
  <unicode hex="00A2"/>
  <outline>
    <contour>
      <point x="168" y="65" type="qcurve"/>
      <point x="292" y="431" type="line"/>
      <point x="233" y="431"/>
      <point x="170" y="363" type="qcurve"/>
      <point x="105" y="290"/>
      <point x="105" y="200" type="qcurve"/>
      <point x="105" y="150"/>
      <point x="144" y="81"/>
    </contour>
    <contour>
      <point x="174" y="-84" type="qcurve"/>
      <point x="160" y="-84"/>
      <point x="130" y="-59"/>
      <point x="130" y="-45" type="qcurve"/>
      <point x="147" y="4" type="line"/>
      <point x="99" y="27"/>
      <point x="37" y="125"/>
      <point x="37" y="195" type="qcurve"/>
      <point x="37" y="311"/>
      <point x="117" y="402" type="qcurve"/>
      <point x="200" y="490"/>
      <point x="284" y="490" type="qcurve"/>
      <point x="300" y="490"/>
      <point x="312" y="488" type="qcurve"/>
      <point x="324" y="525"/>
      <point x="334" y="567" type="qcurve"/>
      <point x="338" y="576"/>
      <point x="347" y="576" type="qcurve"/>
      <point x="361" y="576"/>
      <point x="391" y="546"/>
      <point x="391" y="532" type="qcurve"/>
      <point x="391" y="528"/>
      <point x="372" y="474" type="qcurve"/>
      <point x="411" y="458"/>
      <point x="445" y="414"/>
      <point x="445" y="404" type="qcurve"/>
      <point x="445" y="389"/>
      <point x="417" y="357"/>
      <point x="405" y="357" type="qcurve"/>
      <point x="397" y="357"/>
      <point x="394" y="363" type="qcurve"/>
      <point x="372" y="415"/>
      <point x="353" y="419" type="qcurve"/>
      <point x="225" y="41" type="line"/>
      <point x="233" y="41" type="line"/>
      <point x="360" y="41"/>
      <point x="420" y="119" type="qcurve"/>
      <point x="433" y="135"/>
      <point x="445" y="135" type="qcurve"/>
      <point x="456" y="135"/>
      <point x="456" y="123" type="qcurve"/>
      <point x="456" y="114"/>
      <point x="443" y="91" type="qcurve"/>
      <point x="418" y="41"/>
      <point x="334" y="1" type="qcurve"/>
      <point x="291" y="-17"/>
      <point x="233" y="-17" type="qcurve"/>
      <point x="218" y="-17"/>
      <point x="205" y="-15" type="qcurve"/>
      <point x="188" y="-75" type="line"/>
      <point x="185" y="-84"/>
    </contour>
  </outline>
</glyph>
<glyph name="sterling" format="2">
  <advance height="1000" width="500"/>
  <unicode hex="00A3"/>
  <outline>
    <contour>
      <point x="352" y="-17" type="qcurve"/>
      <point x="315" y="-17"/>
      <point x="266" y="-1" type="qcurve"/>
      <point x="224" y="15"/>
      <point x="163" y="15" type="qcurve"/>
      <point x="137" y="15"/>
      <point x="104" y="1"/>
      <point x="75" y="-17"/>
      <point x="52" y="-17" type="qcurve"/>
      <point x="21" y="-17"/>
      <point x="21" y="-4" type="qcurve"/>
      <point x="23" y="11" type="line"/>
      <point x="30" y="48"/>
      <point x="51" y="48" type="qcurve"/>
      <point x="82" y="48"/>
      <point x="118" y="134"/>
      <point x="118" y="217" type="qcurve"/>
      <point x="118" y="283"/>
      <point x="114" y="316" type="qcurve"/>
      <point x="81" y="314"/>
      <point x="69" y="308"/>
      <point x="61" y="308" type="qcurve"/>
      <point x="47" y="308"/>
      <point x="30" y="343"/>
      <point x="30" y="355" type="qcurve"/>
      <point x="30" y="371"/>
      <point x="44" y="371" type="qcurve"/>
      <point x="79" y="371"/>
      <point x="100" y="372" type="qcurve"/>
      <point x="109" y="372" type="line"/>
      <point x="103" y="478" type="line"/>
      <point x="103" y="620"/>
      <point x="189" y="684" type="qcurve"/>
      <point x="231" y="714"/>
      <point x="284" y="714" type="qcurve"/>
      <point x="293" y="714"/>
      <point x="342" y="709"/>
      <point x="408" y="677"/>
      <point x="444" y="642" type="qcurve"/>
      <point x="449" y="636"/>
      <point x="449" y="628" type="qcurve"/>
      <point x="449" y="615"/>
      <point x="425" y="584"/>
      <point x="411" y="584" type="qcurve"/>
      <point x="403" y="584"/>
      <point x="398" y="589" type="qcurve"/>
      <point x="368" y="622"/>
      <point x="319" y="654"/>
      <point x="283" y="654" type="qcurve"/>
      <point x="243" y="654"/>
      <point x="194" y="602"/>
      <point x="172" y="518"/>
      <point x="172" y="476" type="qcurve"/>
      <point x="172" y="455"/>
      <point x="177" y="374" type="qcurve"/>
      <point x="359" y="385" type="line"/>
      <point x="373" y="385"/>
      <point x="390" y="350"/>
      <point x="390" y="337" type="qcurve"/>
      <point x="390" y="322"/>
      <point x="377" y="322" type="qcurve"/>
      <point x="365" y="323"/>
      <point x="311" y="323" type="qcurve"/>
      <point x="284" y="323"/>
      <point x="182" y="317" type="qcurve"/>
      <point x="185" y="290"/>
      <point x="185" y="260" type="qcurve"/>
      <point x="185" y="207"/>
      <point x="177" y="114"/>
      <point x="161" y="75" type="qcurve"/>
      <point x="201" y="75"/>
      <point x="230" y="68" type="qcurve"/>
      <point x="263" y="59"/>
      <point x="323" y="40"/>
      <point x="349" y="40" type="qcurve"/>
      <point x="400" y="40"/>
      <point x="437" y="61" type="qcurve"/>
      <point x="451" y="69"/>
      <point x="461" y="69" type="qcurve"/>
      <point x="478" y="69"/>
      <point x="478" y="57" type="qcurve"/>
      <point x="478" y="48"/>
      <point x="446" y="12"/>
      <point x="388" y="-17"/>
    </contour>
  </outline>
</glyph>
<glyph name="currency" format="2">
  <advance height="1000" width="500"/>
  <unicode hex="00A4"/>
  <outline>
    <contour>
      <point x="258" y="213" type="qcurve"/>
      <point x="209" y="213"/>
      <point x="140" y="282"/>
      <point x="140" y="331" type="qcurve"/>
      <point x="140" y="381"/>
      <point x="209" y="449"/>
      <point x="258" y="449" type="qcurve"/>
      <point x="308" y="449"/>
      <point x="376" y="381"/>
      <point x="376" y="331" type="qcurve"/>
      <point x="376" y="282"/>
      <point x="308" y="213"/>
    </contour>
    <contour>
      <point x="428" y="122" type="qcurve"/>
      <point x="443" y="122"/>
      <point x="478" y="151"/>
      <point x="478" y="164" type="qcurve"/>
      <point x="478" y="172"/>
      <point x="469" y="178"/>
      <point x="455" y="191"/>
      <point x="444" y="200" type="qcurve"/>
      <point x="424" y="217"/>
      <point x="407" y="233" type="qcurve"/>
      <point x="437" y="277"/>
      <point x="437" y="331" type="qcurve"/>
      <point x="437" y="382"/>
      <point x="409" y="426" type="qcurve"/>
      <point x="441" y="457"/>
      <point x="468" y="478" type="qcurve"/>
      <point x="473" y="482"/>
      <point x="473" y="489" type="qcurve"/>
      <point x="473" y="503"/>
      <point x="438" y="530"/>
      <point x="424" y="530" type="qcurve"/>
      <point x="417" y="530"/>
      <point x="412" y="525" type="qcurve"/>
      <point x="394" y="501"/>
      <point x="366" y="473" type="qcurve"/>
      <point x="318" y="510"/>
      <point x="258" y="510" type="qcurve"/>
      <point x="197" y="510"/>
      <point x="145" y="470" type="qcurve"/>
      <point x="114" y="500"/>
      <point x="95" y="525" type="qcurve"/>
      <point x="91" y="530"/>
      <point x="83" y="530" type="qcurve"/>
      <point x="69" y="530"/>
      <point x="34" y="502"/>
      <point x="34" y="488" type="qcurve"/>
      <point x="34" y="482"/>
      <point x="39" y="478" type="qcurve"/>
      <point x="73" y="453"/>
      <point x="104" y="420" type="qcurve"/>
      <point x="79" y="382"/>
      <point x="79" y="331" type="qcurve"/>
      <point x="79" y="279"/>
      <point x="106" y="238" type="qcurve"/>
      <point x="72" y="204"/>
      <point x="34" y="175" type="qcurve"/>
      <point x="29" y="170"/>
      <point x="29" y="164" type="qcurve"/>
      <point x="29" y="151"/>
      <point x="64" y="122"/>
      <point x="78" y="122" type="qcurve"/>
      <point x="86" y="122"/>
      <point x="90" y="127" type="qcurve"/>
      <point x="112" y="156"/>
      <point x="148" y="190" type="qcurve"/>
      <point x="197" y="152"/>
      <point x="258" y="152" type="qcurve"/>
      <point x="318" y="152"/>
      <point x="363" y="186" type="qcurve"/>
      <point x="398" y="155"/>
      <point x="417" y="127" type="qcurve"/>
      <point x="422" y="122"/>
    </contour>
  </outline>
</glyph>
<glyph name="yen" format="2">
  <advance height="1000" width="500"/>
  <unicode hex="00A5"/>
  <outline>
    <contour>
      <point x="260" y="-9" type="qcurve"/>
      <point x="244" y="-9"/>
      <point x="208" y="7"/>
      <point x="208" y="19" type="qcurve"/>
      <point x="209" y="42"/>
      <point x="210" y="170" type="qcurve"/>
      <point x="151" y="167"/>
      <point x="87" y="162" type="qcurve"/>
      <point x="72" y="162"/>
      <point x="54" y="199"/>
      <point x="54" y="212" type="qcurve"/>
      <point x="54" y="225"/>
      <point x="67" y="225" type="qcurve"/>
      <point x="92" y="223"/>
      <point x="128" y="223" type="qcurve"/>
      <point x="144" y="223"/>
      <point x="210" y="226" type="qcurve"/>
      <point x="210" y="310" type="line"/>
      <point x="120" y="306"/>
      <point x="88" y="302" type="qcurve"/>
      <point x="72" y="302"/>
      <point x="54" y="339"/>
      <point x="54" y="352" type="qcurve"/>
      <point x="54" y="365"/>
      <point x="67" y="365" type="qcurve"/>
      <point x="92" y="363"/>
      <point x="144" y="363" type="qcurve"/>
      <point x="197" y="365" type="line"/>
      <point x="91" y="590"/>
      <point x="23" y="672" type="qcurve"/>
      <point x="21" y="674"/>
      <point x="21" y="676" type="qcurve"/>
      <point x="21" y="683"/>
      <point x="57" y="702"/>
      <point x="75" y="702" type="qcurve"/>
      <point x="90" y="702"/>
      <point x="105" y="684"/>
      <point x="110" y="670" type="qcurve"/>
      <point x="119" y="649"/>
      <point x="134" y="623" type="qcurve"/>
      <point x="211" y="473"/>
      <point x="244" y="404" type="qcurve"/>
      <point x="283" y="481"/>
      <point x="342" y="589" type="qcurve"/>
      <point x="380" y="656"/>
      <point x="388" y="676" type="qcurve"/>
      <point x="394" y="690"/>
      <point x="408" y="709"/>
      <point x="424" y="709" type="qcurve"/>
      <point x="440" y="709"/>
      <point x="476" y="691"/>
      <point x="476" y="683" type="qcurve"/>
      <point x="476" y="681"/>
      <point x="472" y="676"/>
      <point x="463" y="662" type="qcurve"/>
      <point x="402" y="579"/>
      <point x="294" y="370" type="qcurve"/>
      <point x="350" y="373"/>
      <point x="394" y="378" type="qcurve"/>
      <point x="415" y="379" type="line"/>
      <point x="429" y="379"/>
      <point x="447" y="348"/>
      <point x="447" y="335" type="qcurve"/>
      <point x="447" y="320"/>
      <point x="433" y="320" type="qcurve"/>
      <point x="278" y="314" type="line"/>
      <point x="278" y="229" type="line"/>
      <point x="351" y="232"/>
      <point x="381" y="236" type="qcurve"/>
      <point x="405" y="239"/>
      <point x="415" y="239" type="qcurve"/>
      <point x="429" y="239"/>
      <point x="447" y="208"/>
      <point x="447" y="195" type="qcurve"/>
      <point x="447" y="180"/>
      <point x="433" y="180" type="qcurve"/>
      <point x="278" y="174" type="line"/>
      <point x="282" y="1" type="line"/>
      <point x="282" y="-9"/>
    </contour>
  </outline>
</glyph>
<glyph name="brokenbar" format="2">
  <advance height="1000" width="350"/>
  <unicode hex="00A6"/>
  <outline>
    <contour>
      <point x="209" y="-16" type="line"/>
      <point x="140" y="-16" type="line"/>
      <point x="140" y="267" type="line"/>
      <point x="209" y="267" type="line"/>
    </contour>
    <contour>
      <point x="209" y="434" type="line"/>
      <point x="140" y="434" type="line"/>
      <point x="140" y="717" type="line"/>
      <point x="209" y="717" type="line"/>
    </contour>
  </outline>
</glyph>
<glyph name="section" format="2">
  <advance height="1000" width="500"/>
  <unicode hex="00A7"/>
  <outline>
    <contour>
      <point x="360" y="265" type="qcurve"/>
      <point x="330" y="282"/>
      <point x="289" y="289" type="qcurve"/>
      <point x="197" y="310" type="line"/>
      <point x="150" y="321"/>
      <point x="105" y="348"/>
      <point x="89" y="383"/>
      <point x="89" y="405" type="qcurve"/>
      <point x="89" y="431"/>
      <point x="104" y="452" type="qcurve"/>
      <point x="137" y="500"/>
      <point x="245" y="500" type="qcurve"/>
      <point x="249" y="500"/>
      <point x="285" y="492" type="qcurve"/>
      <point x="358" y="476"/>
      <point x="422" y="423"/>
      <point x="422" y="368" type="qcurve"/>
      <point x="422" y="297"/>
    </contour>
    <contour>
      <point x="244" y="-79" type="qcurve"/>
      <point x="314" y="-79"/>
      <point x="364" y="-56" type="qcurve"/>
      <point x="470" y="-4"/>
      <point x="470" y="102" type="qcurve"/>
      <point x="470" y="180"/>
      <point x="416" y="230" type="qcurve"/>
      <point x="488" y="285"/>
      <point x="488" y="369" type="qcurve"/>
      <point x="488" y="443"/>
      <point x="396" y="534"/>
      <point x="307" y="553" type="qcurve"/>
      <point x="261" y="564"/>
      <point x="168" y="585"/>
      <point x="122" y="609"/>
      <point x="106" y="641"/>
      <point x="106" y="663" type="qcurve"/>
      <point x="106" y="696"/>
      <point x="176" y="752"/>
      <point x="245" y="752" type="qcurve"/>
      <point x="297" y="752"/>
      <point x="330" y="740" type="qcurve"/>
      <point x="396" y="710"/>
      <point x="413" y="682" type="qcurve"/>
      <point x="419" y="676"/>
      <point x="424" y="676" type="qcurve"/>
      <point x="433" y="676"/>
      <point x="450" y="707"/>
      <point x="450" y="723" type="qcurve"/>
      <point x="450" y="738"/>
      <point x="441" y="747" type="qcurve"/>
      <point x="368" y="814"/>
      <point x="246" y="814" type="qcurve"/>
      <point x="185" y="814"/>
      <point x="91" y="770"/>
      <point x="40" y="700"/>
      <point x="40" y="661" type="qcurve"/>
      <point x="40" y="620"/>
      <point x="78" y="557"/>
      <point x="125" y="536" type="qcurve"/>
      <point x="76" y="517"/>
      <point x="23" y="447"/>
      <point x="23" y="403" type="qcurve"/>
      <point x="23" y="350"/>
      <point x="91" y="271"/>
      <point x="174" y="250" type="qcurve"/>
      <point x="267" y="228" type="line"/>
      <point x="338" y="212"/>
      <point x="404" y="154"/>
      <point x="404" y="101" type="qcurve"/>
      <point x="404" y="49"/>
      <point x="319" y="-16"/>
      <point x="244" y="-16" type="qcurve"/>
      <point x="162" y="-16"/>
      <point x="109" y="26" type="qcurve"/>
      <point x="62" y="64"/>
      <point x="51" y="85" type="qcurve"/>
      <point x="46" y="92"/>
      <point x="40" y="92" type="qcurve"/>
      <point x="29" y="92"/>
      <point x="7" y="59"/>
      <point x="7" y="42" type="qcurve"/>
      <point x="7" y="32"/>
      <point x="13" y="24" type="qcurve"/>
      <point x="58" y="-28"/>
      <point x="169" y="-79"/>
    </contour>
  </outline>
</glyph>
<glyph name="dieresis" format="2">
  <advance height="1000" width="1000"/>
  <unicode hex="00A8"/>
  <outline>
    <contour>
      <point x="596" y="733" type="qcurve"/>
      <point x="637" y="733"/>
      <point x="641" y="780" type="qcurve"/>
      <point x="641" y="803"/>
      <point x="606" y="842"/>
      <point x="586" y="842" type="qcurve"/>
      <point x="543" y="842"/>
      <point x="540" y="794" type="qcurve"/>
      <point x="540" y="774"/>
      <point x="574" y="733"/>
    </contour>
    <contour>
      <point x="413" y="733" type="qcurve"/>
      <point x="454" y="733"/>
      <point x="458" y="780" type="qcurve"/>
      <point x="458" y="803"/>
      <point x="423" y="842"/>
      <point x="403" y="842" type="qcurve"/>
      <point x="360" y="842"/>
      <point x="357" y="794" type="qcurve"/>
      <point x="357" y="774"/>
      <point x="391" y="733"/>
    </contour>
  </outline>
</glyph>
<glyph name="copyright" format="2">
  <advance height="1000" width="1000"/>
  <unicode hex="00A9"/>
  <outline>
    <contour>
      <point x="479" y="121" type="qcurve"/>
      <point x="544" y="121"/>
      <point x="629" y="164"/>
      <point x="661" y="212" type="qcurve"/>
      <point x="668" y="223"/>
      <point x="668" y="230" type="qcurve"/>
      <point x="668" y="241"/>
      <point x="656" y="241" type="qcurve"/>
      <point x="649" y="241"/>
      <point x="638" y="233" type="qcurve"/>
      <point x="575" y="177"/>
      <point x="479" y="177" type="qcurve"/>
      <point x="457" y="177"/>
      <point x="406" y="204"/>
      <point x="373" y="263"/>
      <point x="373" y="311" type="qcurve"/>
      <point x="373" y="367"/>
      <point x="423" y="454"/>
      <point x="497" y="504"/>
      <point x="537" y="504" type="qcurve"/>
      <point x="564" y="504"/>
      <point x="589" y="486" type="qcurve"/>
      <point x="600" y="479"/>
      <point x="604" y="469" type="qcurve"/>
      <point x="616" y="441"/>
      <point x="625" y="441" type="qcurve"/>
      <point x="636" y="441"/>
      <point x="663" y="471"/>
      <point x="663" y="485" type="qcurve"/>
      <point x="663" y="493"/>
      <point x="639" y="529"/>
      <point x="582" y="561"/>
      <point x="535" y="561" type="qcurve"/>
      <point x="453" y="561"/>
      <point x="380" y="487" type="qcurve"/>
      <point x="307" y="409"/>
      <point x="307" y="306" type="qcurve"/>
      <point x="307" y="248"/>
      <point x="355" y="165"/>
      <point x="433" y="121"/>
    </contour>
    <contour>
      <point x="382" y="46"/>
      <point x="212" y="216"/>
      <point x="212" y="456"/>
      <point x="382" y="626"/>
      <point x="622" y="626"/>
      <point x="792" y="456"/>
      <point x="792" y="216"/>
      <point x="622" y="46"/>
    </contour>
    <contour>
      <point x="501" y="-7" type="qcurve"/>
      <point x="644" y="-7"/>
      <point x="744" y="94" type="qcurve"/>
      <point x="792" y="142"/>
      <point x="845" y="265"/>
      <point x="845" y="407"/>
      <point x="792" y="531"/>
      <point x="744" y="579" type="qcurve"/>
      <point x="644" y="679"/>
      <point x="501" y="679" type="qcurve"/>
      <point x="359" y="679"/>
      <point x="158" y="479"/>
      <point x="158" y="336" type="qcurve"/>
      <point x="158" y="194"/>
      <point x="259" y="94" type="qcurve"/>
      <point x="359" y="-7"/>
    </contour>
  </outline>
</glyph>
<glyph name="ordfeminine" format="2">
  <advance height="1000" width="500"/>
  <unicode hex="00AA"/>
  <outline>
    <contour>
      <point x="220" y="523" type="qcurve"/>
      <point x="186" y="523"/>
      <point x="185" y="581" type="qcurve"/>
      <point x="185" y="613"/>
      <point x="197" y="639" type="qcurve"/>
      <point x="226" y="694"/>
      <point x="263" y="694" type="qcurve"/>
      <point x="283" y="694"/>
      <point x="294" y="677" type="qcurve"/>
      <point x="298" y="672"/>
      <point x="307" y="670" type="qcurve"/>
      <point x="305" y="643"/>
      <point x="305" y="630" type="qcurve"/>
      <point x="301" y="579"/>
      <point x="253" y="523"/>
    </contour>
    <contour>
      <point x="220" y="468" type="qcurve"/>
      <point x="245" y="468"/>
      <point x="297" y="497"/>
      <point x="315" y="523" type="qcurve"/>
      <point x="322" y="492"/>
      <point x="336" y="470"/>
      <point x="346" y="470" type="qcurve"/>
      <point x="359" y="470"/>
      <point x="380" y="498"/>
      <point x="380" y="509" type="qcurve"/>
      <point x="380" y="513"/>
      <point x="378" y="516"/>
      <point x="378" y="517" type="qcurve"/>
      <point x="367" y="537"/>
      <point x="363" y="572"/>
      <point x="363" y="594" type="qcurve"/>
      <point x="363" y="613"/>
      <point x="370" y="719" type="qcurve"/>
      <point x="370" y="729"/>
      <point x="343" y="740"/>
      <point x="329" y="740" type="qcurve"/>
      <point x="309" y="740"/>
      <point x="307" y="731" type="qcurve"/>
      <point x="307" y="738" type="line"/>
      <point x="306" y="740"/>
      <point x="280" y="748"/>
      <point x="263" y="748" type="qcurve"/>
      <point x="232" y="748"/>
      <point x="166" y="701"/>
      <point x="125" y="626"/>
      <point x="125" y="579" type="qcurve"/>
      <point x="125" y="524"/>
      <point x="178" y="468"/>
    </contour>
  </outline>
</glyph>
<glyph name="guillemotleft" format="2">
  <advance height="1000" width="500"/>
  <unicode hex="00AB"/>
  <outline>
    <contour>
      <point x="436" y="-16" type="qcurve"/>
      <point x="428" y="-16"/>
      <point x="404" y="21" type="qcurve"/>
      <point x="379" y="53" type="line"/>
      <point x="281" y="168"/>
      <point x="229" y="210" type="qcurve"/>
      <point x="217" y="222"/>
      <point x="217" y="251" type="qcurve"/>
      <point x="217" y="262"/>
      <point x="220" y="266" type="qcurve"/>
      <point x="247" y="290" type="line"/>
      <point x="378" y="415"/>
      <point x="424" y="485" type="qcurve"/>
      <point x="428" y="490"/>
      <point x="434" y="490" type="qcurve"/>
      <point x="446" y="490"/>
      <point x="463" y="456"/>
      <point x="463" y="441" type="qcurve"/>
      <point x="463" y="430"/>
      <point x="457" y="424" type="qcurve"/>
      <point x="417" y="377"/>
      <point x="282" y="241" type="qcurve"/>
      <point x="350" y="174"/>
      <point x="416" y="99" type="qcurve"/>
      <point x="458" y="53" type="line"/>
      <point x="463" y="47"/>
      <point x="463" y="36" type="qcurve"/>
      <point x="463" y="21"/>
      <point x="448" y="-16"/>
    </contour>
    <contour>
      <point x="251" y="-16" type="qcurve"/>
      <point x="243" y="-16"/>
      <point x="219" y="21" type="qcurve"/>
      <point x="208" y="37"/>
      <point x="194" y="53" type="qcurve"/>
      <point x="97" y="168"/>
      <point x="45" y="210" type="qcurve"/>
      <point x="32" y="222"/>
      <point x="32" y="251" type="qcurve"/>
      <point x="32" y="262"/>
      <point x="36" y="266" type="qcurve"/>
      <point x="63" y="290" type="line"/>
      <point x="193" y="415"/>
      <point x="240" y="485" type="qcurve"/>
      <point x="243" y="490"/>
      <point x="250" y="490" type="qcurve"/>
      <point x="261" y="490"/>
      <point x="279" y="456"/>
      <point x="279" y="441" type="qcurve"/>
      <point x="279" y="430"/>
      <point x="273" y="424" type="qcurve"/>
      <point x="232" y="377"/>
      <point x="98" y="241" type="qcurve"/>
      <point x="165" y="174"/>
      <point x="231" y="99" type="qcurve"/>
      <point x="273" y="53" type="line"/>
      <point x="279" y="47"/>
      <point x="279" y="36" type="qcurve"/>
      <point x="279" y="21"/>
      <point x="263" y="-16"/>
    </contour>
  </outline>
</glyph>
<glyph name="logicalnot" format="2">
  <advance height="1000" width="500"/>
  <unicode hex="00AC"/>
  <outline>
    <contour>
      <point x="412" y="179" type="qcurve"/>
      <point x="399" y="179"/>
      <point x="380" y="191"/>
      <point x="380" y="200" type="qcurve"/>
      <point x="380" y="388" type="line"/>
      <point x="61" y="388" type="line"/>
      <point x="39" y="388"/>
      <point x="39" y="420" type="qcurve"/>
      <point x="39" y="452"/>
      <point x="61" y="452" type="qcurve"/>
      <point x="395" y="452" type="line"/>
      <point x="444" y="449"/>
      <point x="444" y="401" type="qcurve"/>
      <point x="444" y="200" type="line"/>
      <point x="444" y="191"/>
      <point x="424" y="179"/>
    </contour>
  </outline>
</glyph>
<glyph name="uni00AD" format="2">
  <advance height="1000" width="500"/>
  <unicode hex="00AD"/>
  <outline>
    <contour>
      <point x="495" y="350" type="line"/>
      <point x="505" y="350"/>
      <point x="514" y="369"/>
      <point x="514" y="379" type="qcurve"/>
      <point x="514" y="390"/>
      <point x="505" y="408"/>
      <point x="495" y="408" type="qcurve"/>
      <point x="5" y="408" type="line"/>
      <point x="-5" y="408"/>
      <point x="-14" y="390"/>
      <point x="-14" y="379" type="qcurve"/>
      <point x="-14" y="369"/>
      <point x="-5" y="350"/>
      <point x="5" y="350" type="qcurve"/>
    </contour>
  </outline>
</glyph>
<glyph name="registered" format="2">
  <advance height="1000" width="1000"/>
  <unicode hex="00AE"/>
  <outline>
    <contour>
      <point x="472" y="376" type="qcurve"/>
      <point x="454" y="376"/>
      <point x="448" y="377" type="qcurve"/>
      <point x="447" y="378"/>
      <point x="437" y="378"/>
      <point x="435" y="376" type="qcurve"/>
      <point x="435" y="500" type="line"/>
      <point x="471" y="511"/>
      <point x="514" y="511" type="qcurve"/>
      <point x="597" y="511"/>
      <point x="597" y="456" type="qcurve"/>
      <point x="597" y="426"/>
      <point x="535" y="376"/>
    </contour>
    <contour>
      <point x="670" y="120" type="qcurve"/>
      <point x="702" y="120"/>
      <point x="702" y="132" type="qcurve"/>
      <point x="702" y="138"/>
      <point x="685" y="152"/>
      <point x="671" y="156" type="qcurve"/>
      <point x="639" y="168"/>
      <point x="564" y="261" type="qcurve"/>
      <point x="530" y="302"/>
      <point x="503" y="330" type="qcurve"/>
      <point x="545" y="333"/>
      <point x="616" y="367"/>
      <point x="658" y="421"/>
      <point x="658" y="458" type="qcurve"/>
      <point x="658" y="485"/>
      <point x="630" y="535"/>
      <point x="568" y="567"/>
      <point x="515" y="567" type="qcurve"/>
      <point x="455" y="567"/>
      <point x="425" y="559" type="qcurve"/>
      <point x="400" y="554"/>
      <point x="380" y="551" type="qcurve"/>
      <point x="371" y="549"/>
      <point x="354" y="548"/>
      <point x="354" y="534" type="qcurve"/>
      <point x="354" y="524"/>
      <point x="366" y="501"/>
      <point x="374" y="495" type="qcurve"/>
      <point x="374" y="169" type="line"/>
      <point x="373" y="144" type="line"/>
      <point x="373" y="134"/>
      <point x="401" y="123"/>
      <point x="414" y="123" type="qcurve"/>
      <point x="436" y="123"/>
      <point x="436" y="133" type="qcurve"/>
      <point x="436" y="164" type="line"/>
      <point x="435" y="184"/>
      <point x="435" y="319" type="qcurve"/>
      <point x="453" y="311"/>
      <point x="497" y="256" type="qcurve"/>
      <point x="547" y="191"/>
      <point x="602" y="142" type="qcurve"/>
      <point x="632" y="120"/>
    </contour>
    <contour>
      <point x="382" y="46"/>
      <point x="212" y="216"/>
      <point x="212" y="456"/>
      <point x="382" y="626"/>
      <point x="622" y="626"/>
      <point x="792" y="456"/>
      <point x="792" y="216"/>
      <point x="622" y="46"/>
    </contour>
    <contour>
      <point x="501" y="-7" type="qcurve"/>
      <point x="644" y="-7"/>
      <point x="744" y="94" type="qcurve"/>
      <point x="792" y="142"/>
      <point x="845" y="265"/>
      <point x="845" y="407"/>
      <point x="792" y="531"/>
      <point x="744" y="579" type="qcurve"/>
      <point x="644" y="679"/>
      <point x="501" y="679" type="qcurve"/>
      <point x="359" y="679"/>
      <point x="158" y="479"/>
      <point x="158" y="336" type="qcurve"/>
      <point x="158" y="194"/>
      <point x="259" y="94" type="qcurve"/>
      <point x="359" y="-7"/>
    </contour>
  </outline>
</glyph>
<glyph name="degree" format="2">
  <advance height="1000" width="1000"/>
  <unicode hex="00B0"/>
  <outline>
    <contour>
      <point x="162" y="645" type="qcurve"/>
      <point x="137" y="645"/>
      <point x="101" y="681"/>
      <point x="101" y="706" type="qcurve"/>
      <point x="101" y="732"/>
      <point x="137" y="767"/>
      <point x="162" y="767" type="qcurve"/>
      <point x="188" y="767"/>
      <point x="223" y="732"/>
      <point x="223" y="706" type="qcurve"/>
      <point x="223" y="681"/>
      <point x="188" y="645"/>
    </contour>
    <contour>
      <point x="207" y="599"/>
      <point x="269" y="661"/>
      <point x="269" y="751"/>
      <point x="207" y="813"/>
      <point x="117" y="813"/>
      <point x="55" y="751"/>
      <point x="55" y="661"/>
      <point x="117" y="599"/>
    </contour>
  </outline>
</glyph>
<glyph name="plusminus" format="2">
  <advance height="1000" width="1000"/>
  <unicode hex="00B1"/>
  <outline>
    <contour>
      <point x="505" y="204" type="qcurve"/>
      <point x="532" y="204"/>
      <point x="532" y="220" type="qcurve"/>
      <point x="532" y="266" type="line"/>
      <point x="531" y="290"/>
      <point x="531" y="428" type="qcurve"/>
      <point x="770" y="431" type="line"/>
      <point x="817" y="430" type="line"/>
      <point x="825" y="430"/>
      <point x="834" y="447"/>
      <point x="834" y="457" type="qcurve"/>
      <point x="834" y="471"/>
      <point x="822" y="496"/>
      <point x="812" y="496" type="qcurve"/>
      <point x="777" y="495" type="line"/>
      <point x="754" y="493"/>
      <point x="531" y="490" type="qcurve"/>
      <point x="531" y="602" type="line"/>
      <point x="531" y="634"/>
      <point x="534" y="684" type="qcurve"/>
      <point x="534" y="693"/>
      <point x="507" y="704"/>
      <point x="493" y="704" type="qcurve"/>
      <point x="467" y="704"/>
      <point x="467" y="688" type="qcurve"/>
      <point x="469" y="648"/>
      <point x="469" y="490" type="qcurve"/>
      <point x="268" y="487" type="line"/>
      <point x="221" y="487"/>
      <point x="181" y="489" type="qcurve"/>
      <point x="173" y="489"/>
      <point x="165" y="474"/>
      <point x="165" y="464" type="qcurve"/>
      <point x="165" y="450"/>
      <point x="176" y="422"/>
      <point x="186" y="422" type="qcurve"/>
      <point x="205" y="425"/>
      <point x="267" y="425" type="qcurve"/>
      <point x="469" y="427" type="line"/>
      <point x="469" y="302" type="line"/>
      <point x="469" y="256"/>
      <point x="466" y="226" type="qcurve"/>
      <point x="466" y="215"/>
      <point x="491" y="204"/>
    </contour>
    <contour>
      <point x="186" y="55" type="qcurve"/>
      <point x="199" y="57"/>
      <point x="248" y="58"/>
      <point x="501" y="61" type="qcurve"/>
      <point x="770" y="64" type="line"/>
      <point x="817" y="63" type="line"/>
      <point x="825" y="63"/>
      <point x="834" y="80"/>
      <point x="834" y="90" type="qcurve"/>
      <point x="834" y="104"/>
      <point x="822" y="129"/>
      <point x="812" y="129" type="qcurve"/>
      <point x="777" y="128" type="line"/>
      <point x="753" y="126"/>
      <point x="268" y="120" type="qcurve"/>
      <point x="221" y="120"/>
      <point x="181" y="122" type="qcurve"/>
      <point x="173" y="122"/>
      <point x="165" y="107"/>
      <point x="165" y="97" type="qcurve"/>
      <point x="165" y="83"/>
      <point x="176" y="55"/>
    </contour>
  </outline>
</glyph>
<glyph name="uni00B2" format="2">
  <advance height="1000" width="500"/>
  <unicode hex="00B2"/>
  <outline>
    <contour>
      <point x="148" y="326" type="qcurve"/>
      <point x="150" y="327" type="line"/>
      <point x="151" y="327" type="line"/>
      <point x="181" y="333"/>
      <point x="229" y="333" type="qcurve"/>
      <point x="264" y="333"/>
      <point x="308" y="331"/>
      <point x="349" y="331" type="qcurve"/>
      <point x="365" y="330" type="line"/>
      <point x="374" y="330"/>
      <point x="383" y="343"/>
      <point x="383" y="352" type="qcurve"/>
      <point x="383" y="365"/>
      <point x="368" y="391"/>
      <point x="355" y="391" type="qcurve"/>
      <point x="322" y="389" type="line"/>
      <point x="289" y="390" type="line"/>
      <point x="208" y="390"/>
      <point x="193" y="389" type="qcurve"/>
      <point x="229" y="435"/>
      <point x="285" y="478" type="qcurve"/>
      <point x="327" y="510"/>
      <point x="382" y="575"/>
      <point x="382" y="613" type="qcurve"/>
      <point x="382" y="658"/>
      <point x="325" y="709"/>
      <point x="268" y="709" type="qcurve"/>
      <point x="225" y="709"/>
      <point x="166" y="672"/>
      <point x="136" y="631"/>
      <point x="136" y="621" type="qcurve"/>
      <point x="136" y="606"/>
      <point x="153" y="589" type="qcurve"/>
      <point x="161" y="582"/>
      <point x="168" y="582" type="qcurve"/>
      <point x="183" y="582"/>
      <point x="205" y="627"/>
      <point x="237" y="651"/>
      <point x="265" y="651" type="qcurve"/>
      <point x="321" y="651"/>
      <point x="321" y="617" type="qcurve"/>
      <point x="321" y="591"/>
      <point x="280" y="549"/>
      <point x="249" y="524" type="qcurve"/>
      <point x="210" y="492"/>
      <point x="144" y="423"/>
      <point x="128" y="396" type="qcurve"/>
      <point x="126" y="392"/>
      <point x="123" y="390" type="qcurve"/>
      <point x="112" y="383"/>
      <point x="112" y="368" type="qcurve"/>
      <point x="112" y="355"/>
      <point x="131" y="326"/>
    </contour>
  </outline>
</glyph>
<glyph name="uni00B3" format="2">
  <advance height="1000" width="500"/>
  <unicode hex="00B3"/>
  <outline>
    <contour>
      <point x="238" y="321" type="qcurve"/>
      <point x="315" y="321"/>
      <point x="379" y="396"/>
      <point x="379" y="451" type="qcurve"/>
      <point x="379" y="482"/>
      <point x="344" y="530"/>
      <point x="317" y="540" type="qcurve"/>
      <point x="366" y="572"/>
      <point x="366" y="621" type="qcurve"/>
      <point x="366" y="663"/>
      <point x="311" y="710"/>
      <point x="258" y="710" type="qcurve"/>
      <point x="222" y="710"/>
      <point x="166" y="685"/>
      <point x="133" y="653"/>
      <point x="133" y="643" type="qcurve"/>
      <point x="133" y="630"/>
      <point x="153" y="602"/>
      <point x="161" y="602" type="qcurve"/>
      <point x="172" y="602"/>
      <point x="184" y="617" type="qcurve"/>
      <point x="210" y="654"/>
      <point x="308" y="654"/>
      <point x="308" y="620" type="qcurve"/>
      <point x="308" y="597"/>
      <point x="288" y="581" type="qcurve"/>
      <point x="252" y="556"/>
      <point x="197" y="550" type="qcurve"/>
      <point x="185" y="550"/>
      <point x="185" y="533" type="qcurve"/>
      <point x="185" y="521"/>
      <point x="202" y="495"/>
      <point x="212" y="495" type="qcurve"/>
      <point x="214" y="495"/>
      <point x="215" y="496" type="qcurve"/>
      <point x="217" y="496" type="line"/>
      <point x="238" y="503"/>
      <point x="260" y="503" type="qcurve"/>
      <point x="319" y="503"/>
      <point x="320" y="447" type="qcurve"/>
      <point x="320" y="416"/>
      <point x="280" y="379"/>
      <point x="238" y="379" type="qcurve"/>
      <point x="189" y="379"/>
      <point x="156" y="415" type="qcurve"/>
      <point x="150" y="422"/>
      <point x="142" y="422" type="qcurve"/>
      <point x="131" y="422"/>
      <point x="112" y="396"/>
      <point x="112" y="383" type="qcurve"/>
      <point x="112" y="371"/>
      <point x="131" y="357" type="qcurve"/>
      <point x="178" y="321"/>
    </contour>
  </outline>
</glyph>
<glyph name="mu" format="2">
  <advance height="1000" width="500"/>
  <unicode hex="00B5"/>
  <outline>
    <contour>
      <point x="111" y="-179" type="qcurve"/>
      <point x="96" y="-179"/>
      <point x="63" y="-163"/>
      <point x="63" y="-151" type="qcurve"/>
      <point x="64" y="-88" type="line"/>
      <point x="64" y="374"/>
      <point x="63" y="395" type="qcurve"/>
      <point x="62" y="474" type="line"/>
      <point x="62" y="484"/>
      <point x="82" y="484" type="qcurve"/>
      <point x="98" y="484"/>
      <point x="132" y="468"/>
      <point x="132" y="456" type="qcurve"/>
      <point x="131" y="340"/>
      <point x="131" y="183" type="qcurve"/>
      <point x="131" y="102"/>
      <point x="165" y="63" type="qcurve"/>
      <point x="182" y="44"/>
      <point x="208" y="44" type="qcurve"/>
      <point x="286" y="44"/>
      <point x="337" y="166" type="qcurve"/>
      <point x="360" y="224"/>
      <point x="363" y="301" type="qcurve"/>
      <point x="366" y="370"/>
      <point x="366" y="475" type="qcurve"/>
      <point x="366" y="485"/>
      <point x="387" y="485" type="qcurve"/>
      <point x="403" y="485"/>
      <point x="438" y="470"/>
      <point x="438" y="457" type="qcurve"/>
      <point x="427" y="385"/>
      <point x="427" y="237" type="qcurve"/>
      <point x="427" y="97"/>
      <point x="461" y="34" type="qcurve"/>
      <point x="463" y="29" type="line"/>
      <point x="463" y="19"/>
      <point x="438" y="-13"/>
      <point x="420" y="-13" type="qcurve"/>
      <point x="404" y="-13"/>
      <point x="384" y="27"/>
      <point x="369" y="83"/>
      <point x="368" y="96" type="qcurve"/>
      <point x="350" y="54"/>
      <point x="266" y="-18"/>
      <point x="208" y="-18" type="qcurve"/>
      <point x="180" y="-18"/>
      <point x="136" y="13"/>
      <point x="130" y="23" type="qcurve"/>
      <point x="130" y="-69"/>
      <point x="131" y="-90" type="qcurve"/>
      <point x="132" y="-169" type="line"/>
      <point x="132" y="-179"/>
    </contour>
  </outline>
</glyph>
<glyph name="paragraph" format="2">
  <advance height="1000" width="1000"/>
  <unicode hex="00B6"/>
  <outline>
    <contour>
      <point x="438" y="-56" type="qcurve"/>
      <point x="449" y="-56"/>
      <point x="466" y="-48"/>
      <point x="466" y="-40" type="qcurve"/>
      <point x="465" y="-17"/>
      <point x="465" y="11" type="qcurve"/>
      <point x="465" y="707" type="line"/>
      <point x="603" y="714" type="line"/>
      <point x="603" y="63" type="line"/>
      <point x="603" y="8"/>
      <point x="600" y="-23" type="qcurve"/>
      <point x="600" y="-34"/>
      <point x="627" y="-45"/>
      <point x="641" y="-45" type="qcurve"/>
      <point x="652" y="-45"/>
      <point x="669" y="-37"/>
      <point x="669" y="-29" type="qcurve"/>
      <point x="668" y="-5"/>
      <point x="668" y="23" type="qcurve"/>
      <point x="668" y="726" type="line"/>
      <point x="668" y="745"/>
      <point x="643" y="774"/>
      <point x="620" y="774" type="qcurve"/>
      <point x="406" y="764" type="line"/>
      <point x="349" y="763"/>
      <point x="251" y="706"/>
      <point x="192" y="610"/>
      <point x="192" y="546" type="qcurve"/>
      <point x="192" y="491"/>
      <point x="240" y="419"/>
      <point x="314" y="383"/>
      <point x="356" y="383" type="qcurve"/>
      <point x="379" y="383"/>
      <point x="400" y="388" type="qcurve"/>
      <point x="400" y="52" type="line"/>
      <point x="400" y="-3"/>
      <point x="397" y="-34" type="qcurve"/>
      <point x="397" y="-45"/>
      <point x="424" y="-56"/>
    </contour>
  </outline>
</glyph>
<glyph name="cedilla" format="2">
  <advance height="1000" width="500"/>
  <unicode hex="00B8"/>
  <unicode hex="0327"/>
  <outline>
    <contour>
      <point x="254" y="-180" type="qcurve"/>
      <point x="355" y="-180"/>
      <point x="360" y="-97" type="qcurve"/>
      <point x="360" y="-26"/>
      <point x="282" y="-26" type="qcurve"/>
      <point x="272" y="-26" type="line"/>
      <point x="264" y="-26"/>
      <point x="262" y="-27" type="qcurve"/>
      <point x="277" y="18" type="line"/>
      <point x="211" y="23" type="line"/>
      <point x="206" y="6" type="line"/>
      <point x="200" y="-12"/>
      <point x="191" y="-35" type="qcurve"/>
      <point x="191" y="-36"/>
      <point x="189" y="-41"/>
      <point x="189" y="-45" type="qcurve"/>
      <point x="189" y="-58"/>
      <point x="208" y="-76"/>
      <point x="221" y="-76" type="qcurve"/>
      <point x="226" y="-76" type="line"/>
      <point x="247" y="-72"/>
      <point x="260" y="-72" type="qcurve"/>
      <point x="297" y="-72"/>
      <point x="297" y="-97" type="qcurve"/>
      <point x="297" y="-114"/>
      <point x="275" y="-125"/>
      <point x="254" y="-125" type="qcurve"/>
      <point x="229" y="-125"/>
      <point x="198" y="-113"/>
      <point x="178" y="-99" type="qcurve"/>
      <point x="177" y="-97"/>
      <point x="172" y="-97" type="qcurve"/>
      <point x="165" y="-97"/>
      <point x="155" y="-121"/>
      <point x="155" y="-134" type="qcurve"/>
      <point x="155" y="-152"/>
      <point x="165" y="-158" type="qcurve"/>
      <point x="209" y="-180"/>
    </contour>
  </outline>
</glyph>
<glyph name="uni00B9" format="2">
  <advance height="1000" width="500"/>
  <unicode hex="00B9"/>
  <outline>
    <contour>
      <point x="276" y="326" type="qcurve"/>
      <point x="284" y="326"/>
      <point x="296" y="334"/>
      <point x="296" y="342" type="qcurve"/>
      <point x="295" y="365"/>
      <point x="294" y="416"/>
      <point x="294" y="619" type="qcurve"/>
      <point x="294" y="632"/>
      <point x="297" y="656" type="qcurve"/>
      <point x="298" y="676" type="line"/>
      <point x="298" y="689"/>
      <point x="270" y="710"/>
      <point x="260" y="710" type="qcurve"/>
      <point x="251" y="710"/>
      <point x="230" y="684"/>
      <point x="219" y="674"/>
      <point x="213" y="670" type="qcurve"/>
      <point x="185" y="647"/>
      <point x="152" y="632" type="qcurve"/>
      <point x="143" y="629"/>
      <point x="143" y="621" type="qcurve"/>
      <point x="143" y="612"/>
      <point x="166" y="594"/>
      <point x="178" y="594" type="qcurve"/>
      <point x="183" y="594"/>
      <point x="184" y="595" type="qcurve"/>
      <point x="205" y="598"/>
      <point x="235" y="618" type="qcurve"/>
      <point x="235" y="414"/>
      <point x="233" y="369"/>
      <point x="233" y="357" type="qcurve"/>
      <point x="233" y="343"/>
      <point x="262" y="326"/>
    </contour>
  </outline>
</glyph>
<glyph name="ordmasculine" format="2">
  <advance height="1000" width="500"/>
  <unicode hex="00BA"/>
  <outline>
    <contour>
      <point x="244" y="523" type="qcurve"/>
      <point x="186" y="523"/>
      <point x="184" y="595" type="qcurve"/>
      <point x="184" y="618"/>
      <point x="194" y="641" type="qcurve"/>
      <point x="216" y="694"/>
      <point x="264" y="694" type="qcurve"/>
      <point x="292" y="694"/>
      <point x="319" y="650"/>
      <point x="319" y="615" type="qcurve"/>
      <point x="319" y="578"/>
      <point x="276" y="523"/>
    </contour>
    <contour>
      <point x="244" y="468" type="qcurve"/>
      <point x="288" y="468"/>
      <point x="347" y="512"/>
      <point x="378" y="579"/>
      <point x="378" y="615" type="qcurve"/>
      <point x="378" y="679"/>
      <point x="315" y="748"/>
      <point x="267" y="748" type="qcurve"/>
      <point x="230" y="748"/>
      <point x="209" y="731" type="qcurve"/>
      <point x="206" y="733"/>
      <point x="198" y="733" type="qcurve"/>
      <point x="185" y="733"/>
      <point x="149" y="689"/>
      <point x="125" y="626"/>
      <point x="125" y="596" type="qcurve"/>
      <point x="125" y="538"/>
      <point x="188" y="468"/>
    </contour>
  </outline>
</glyph>
<glyph name="guillemotright" format="2">
  <advance height="1000" width="500"/>
  <unicode hex="00BB"/>
  <outline>
    <contour>
      <point x="248" y="-22" type="qcurve"/>
      <point x="236" y="-22"/>
      <point x="220" y="15"/>
      <point x="220" y="30" type="qcurve"/>
      <point x="220" y="41"/>
      <point x="225" y="47" type="qcurve"/>
      <point x="268" y="93" type="line"/>
      <point x="333" y="168"/>
      <point x="401" y="235" type="qcurve"/>
      <point x="308" y="330"/>
      <point x="255" y="388" type="qcurve"/>
      <point x="230" y="414"/>
      <point x="220" y="424"/>
      <point x="220" y="435" type="qcurve"/>
      <point x="220" y="450"/>
      <point x="238" y="484"/>
      <point x="249" y="484" type="qcurve"/>
      <point x="257" y="484"/>
      <point x="259" y="479" type="qcurve"/>
      <point x="306" y="409"/>
      <point x="436" y="284" type="qcurve"/>
      <point x="463" y="260" type="line"/>
      <point x="467" y="256"/>
      <point x="467" y="245" type="qcurve"/>
      <point x="467" y="216"/>
      <point x="454" y="204" type="qcurve"/>
      <point x="406" y="165"/>
      <point x="305" y="47" type="qcurve"/>
      <point x="297" y="38"/>
      <point x="263" y="-9" type="qcurve"/>
      <point x="255" y="-22"/>
    </contour>
    <contour>
      <point x="63" y="-22" type="qcurve"/>
      <point x="51" y="-22"/>
      <point x="36" y="15"/>
      <point x="36" y="30" type="qcurve"/>
      <point x="36" y="41"/>
      <point x="41" y="47" type="qcurve"/>
      <point x="83" y="93" type="line"/>
      <point x="149" y="168"/>
      <point x="217" y="235" type="qcurve"/>
      <point x="124" y="330"/>
      <point x="71" y="388" type="qcurve"/>
      <point x="46" y="414"/>
      <point x="36" y="424"/>
      <point x="36" y="435" type="qcurve"/>
      <point x="36" y="450"/>
      <point x="53" y="484"/>
      <point x="65" y="484" type="qcurve"/>
      <point x="72" y="484"/>
      <point x="74" y="479" type="qcurve"/>
      <point x="121" y="409"/>
      <point x="252" y="284" type="qcurve"/>
      <point x="279" y="260" type="line"/>
      <point x="282" y="256"/>
      <point x="282" y="245" type="qcurve"/>
      <point x="282" y="216"/>
      <point x="270" y="204" type="qcurve"/>
      <point x="222" y="165"/>
      <point x="120" y="47" type="qcurve"/>
      <point x="112" y="38"/>
      <point x="79" y="-9" type="qcurve"/>
      <point x="70" y="-22"/>
    </contour>
  </outline>
</glyph>
<glyph name="onequarter" format="2">
  <advance height="1000" width="1000"/>
  <unicode hex="00BC"/>
  <outline>
    <contour>
      <point x="645" y="29" type="line"/>
      <point x="617" y="24" type="line"/>
      <point x="603" y="24"/>
      <point x="575" y="49"/>
      <point x="575" y="76"/>
      <point x="590" y="94"/>
      <point x="645" y="170"/>
      <point x="766" y="354"/>
      <point x="777" y="384" type="qcurve"/>
      <point x="780" y="391"/>
      <point x="800" y="391"/>
      <point x="831" y="363"/>
      <point x="831" y="344"/>
      <point x="826" y="336" type="qcurve"/>
      <point x="812" y="316" type="line"/>
      <point x="803" y="302"/>
      <point x="708" y="158"/>
      <point x="655" y="85" type="qcurve"/>
      <point x="805" y="92" type="line"/>
      <point x="805" y="206" type="line"/>
      <point x="804" y="270" type="line"/>
      <point x="804" y="282"/>
      <point x="840" y="282"/>
      <point x="866" y="270"/>
      <point x="866" y="259" type="qcurve"/>
      <point x="865" y="206" type="line"/>
      <point x="865" y="93" type="line"/>
      <point x="902" y="98"/>
      <point x="929" y="98"/>
      <point x="944" y="70"/>
      <point x="944" y="37"/>
      <point x="931" y="37" type="qcurve"/>
      <point x="865" y="37" type="line"/>
      <point x="865" y="15" type="line"/>
      <point x="867" y="-47" type="line"/>
      <point x="867" y="-59"/>
      <point x="848" y="-59" type="qcurve"/>
      <point x="804" y="-59"/>
      <point x="804" y="-37" type="qcurve"/>
      <point x="805" y="16" type="line"/>
      <point x="805" y="36" type="line"/>
    </contour>
    <contour>
      <point x="283" y="357" type="line"/>
      <point x="283" y="342"/>
      <point x="259" y="342" type="qcurve"/>
      <point x="248" y="342"/>
      <point x="219" y="359"/>
      <point x="219" y="372" type="qcurve"/>
      <point x="219" y="373" type="line"/>
      <point x="221" y="443" type="line"/>
      <point x="221" y="694" type="line"/>
      <point x="181" y="670"/>
      <point x="146" y="670"/>
      <point x="122" y="687"/>
      <point x="122" y="702"/>
      <point x="132" y="706" type="qcurve"/>
      <point x="159" y="716"/>
      <point x="216" y="758"/>
      <point x="238" y="784"/>
      <point x="259" y="784"/>
      <point x="285" y="763"/>
      <point x="285" y="750" type="qcurve"/>
      <point x="281" y="693" type="line"/>
      <point x="281" y="448" type="line"/>
      <point x="281" y="402"/>
      <point x="283" y="358" type="qcurve"/>
    </contour>
    <contour>
      <point x="180" y="10" type="line"/>
      <point x="141" y="-29"/>
      <point x="98" y="-81" type="qcurve"/>
      <point x="92" y="-87"/>
      <point x="74" y="-87"/>
      <point x="54" y="-53"/>
      <point x="54" y="-29"/>
      <point x="59" y="-25" type="qcurve"/>
      <point x="94" y="3"/>
      <point x="141" y="50" type="qcurve"/>
      <point x="832" y="745" type="line"/>
      <point x="892" y="808"/>
      <point x="914" y="836" type="qcurve"/>
      <point x="920" y="843"/>
      <point x="938" y="843"/>
      <point x="958" y="809"/>
      <point x="958" y="785"/>
      <point x="953" y="781" type="qcurve"/>
      <point x="935" y="764"/>
      <point x="891" y="725"/>
      <point x="871" y="705" type="qcurve"/>
    </contour>
  </outline>
</glyph>
<glyph name="onehalf" format="2">
  <advance height="1000" width="1000"/>
  <unicode hex="00BD"/>
  <outline>
    <contour>
      <point x="809" y="-56" type="qcurve"/>
      <point x="729" y="-56" type="line"/>
      <point x="676" y="-56"/>
      <point x="639" y="-63" type="qcurve"/>
      <point x="636" y="-63" type="line"/>
      <point x="620" y="-63"/>
      <point x="597" y="-32"/>
      <point x="597" y="-13"/>
      <point x="605" y="-1"/>
      <point x="613" y="7"/>
      <point x="617" y="11" type="qcurve"/>
      <point x="636" y="40"/>
      <point x="716" y="125"/>
      <point x="810" y="194"/>
      <point x="861" y="241"/>
      <point x="861" y="296"/>
      <point x="821" y="326"/>
      <point x="783" y="326" type="qcurve"/>
      <point x="710" y="326"/>
      <point x="682" y="273" type="qcurve"/>
      <point x="671" y="249"/>
      <point x="658" y="249" type="qcurve"/>
      <point x="648" y="249"/>
      <point x="623" y="271"/>
      <point x="623" y="296"/>
      <point x="629" y="305" type="qcurve"/>
      <point x="682" y="382"/>
      <point x="784" y="382" type="qcurve"/>
      <point x="854" y="382"/>
      <point x="922" y="320"/>
      <point x="922" y="228"/>
      <point x="863" y="159"/>
      <point x="815" y="124" type="qcurve"/>
      <point x="732" y="64"/>
      <point x="681" y="-2" type="qcurve"/>
      <point x="721" y="0"/>
      <point x="761" y="0" type="qcurve"/>
      <point x="856" y="-1" type="line"/>
      <point x="898" y="0" type="line"/>
      <point x="910" y="0"/>
      <point x="927" y="-27"/>
      <point x="927" y="-61"/>
      <point x="910" y="-61" type="qcurve"/>
      <point x="904" y="-61"/>
      <point x="852" y="-56"/>
    </contour>
    <contour>
      <point x="283" y="357" type="line"/>
      <point x="283" y="342"/>
      <point x="259" y="342" type="qcurve"/>
      <point x="248" y="342"/>
      <point x="219" y="359"/>
      <point x="219" y="372" type="qcurve"/>
      <point x="219" y="373" type="line"/>
      <point x="221" y="443" type="line"/>
      <point x="221" y="694" type="line"/>
      <point x="181" y="670"/>
      <point x="146" y="670"/>
      <point x="122" y="687"/>
      <point x="122" y="702"/>
      <point x="132" y="706" type="qcurve"/>
      <point x="159" y="716"/>
      <point x="216" y="758"/>
      <point x="238" y="784"/>
      <point x="259" y="784"/>
      <point x="285" y="763"/>
      <point x="285" y="750" type="qcurve"/>
      <point x="281" y="693" type="line"/>
      <point x="281" y="448" type="line"/>
      <point x="281" y="402"/>
      <point x="283" y="358" type="qcurve"/>
    </contour>
    <contour>
      <point x="180" y="10" type="line"/>
      <point x="141" y="-29"/>
      <point x="98" y="-81" type="qcurve"/>
      <point x="92" y="-87"/>
      <point x="74" y="-87"/>
      <point x="54" y="-53"/>
      <point x="54" y="-29"/>
      <point x="59" y="-25" type="qcurve"/>
      <point x="94" y="3"/>
      <point x="141" y="50" type="qcurve"/>
      <point x="832" y="745" type="line"/>
      <point x="892" y="808"/>
      <point x="914" y="836" type="qcurve"/>
      <point x="920" y="843"/>
      <point x="938" y="843"/>
      <point x="958" y="809"/>
      <point x="958" y="785"/>
      <point x="953" y="781" type="qcurve"/>
      <point x="935" y="764"/>
      <point x="891" y="725"/>
      <point x="871" y="705" type="qcurve"/>
    </contour>
  </outline>
</glyph>
<glyph name="threequarters" format="2">
  <advance height="1000" width="1000"/>
  <unicode hex="00BE"/>
  <outline>
    <contour>
      <point x="180" y="10" type="line"/>
      <point x="141" y="-29"/>
      <point x="98" y="-81" type="qcurve"/>
      <point x="92" y="-87"/>
      <point x="74" y="-87"/>
      <point x="54" y="-53"/>
      <point x="54" y="-29"/>
      <point x="59" y="-25" type="qcurve"/>
      <point x="94" y="3"/>
      <point x="141" y="50" type="qcurve"/>
      <point x="832" y="745" type="line"/>
      <point x="892" y="808"/>
      <point x="914" y="836" type="qcurve"/>
      <point x="920" y="843"/>
      <point x="938" y="843"/>
      <point x="958" y="809"/>
      <point x="958" y="785"/>
      <point x="953" y="781" type="qcurve"/>
      <point x="935" y="764"/>
      <point x="891" y="725"/>
      <point x="871" y="705" type="qcurve"/>
    </contour>
    <contour>
      <point x="645" y="29" type="line"/>
      <point x="617" y="24" type="line"/>
      <point x="603" y="24"/>
      <point x="575" y="49"/>
      <point x="575" y="76"/>
      <point x="590" y="94"/>
      <point x="645" y="170"/>
      <point x="766" y="354"/>
      <point x="777" y="384" type="qcurve"/>
      <point x="780" y="391"/>
      <point x="800" y="391"/>
      <point x="831" y="363"/>
      <point x="831" y="344"/>
      <point x="826" y="336" type="qcurve"/>
      <point x="812" y="316" type="line"/>
      <point x="803" y="302"/>
      <point x="708" y="158"/>
      <point x="655" y="85" type="qcurve"/>
      <point x="805" y="92" type="line"/>
      <point x="805" y="206" type="line"/>
      <point x="804" y="270" type="line"/>
      <point x="804" y="282"/>
      <point x="840" y="282"/>
      <point x="866" y="270"/>
      <point x="866" y="259" type="qcurve"/>
      <point x="865" y="206" type="line"/>
      <point x="865" y="93" type="line"/>
      <point x="902" y="98"/>
      <point x="929" y="98"/>
      <point x="944" y="70"/>
      <point x="944" y="37"/>
      <point x="931" y="37" type="qcurve"/>
      <point x="865" y="37" type="line"/>
      <point x="865" y="15" type="line"/>
      <point x="867" y="-47" type="line"/>
      <point x="867" y="-59"/>
      <point x="848" y="-59" type="qcurve"/>
      <point x="804" y="-59"/>
      <point x="804" y="-37" type="qcurve"/>
      <point x="805" y="16" type="line"/>
      <point x="805" y="36" type="line"/>
    </contour>
    <contour>
      <point x="252" y="547" type="qcurve"/>
      <point x="240" y="547"/>
      <point x="200" y="539" type="qcurve"/>
      <point x="187" y="539"/>
      <point x="170" y="566"/>
      <point x="170" y="597"/>
      <point x="185" y="598" type="qcurve"/>
      <point x="264" y="607"/>
      <point x="302" y="640" type="qcurve"/>
      <point x="320" y="656"/>
      <point x="320" y="701"/>
      <point x="278" y="726"/>
      <point x="250" y="726" type="qcurve"/>
      <point x="188" y="726"/>
      <point x="156" y="685" type="qcurve"/>
      <point x="144" y="670"/>
      <point x="120" y="670"/>
      <point x="100" y="696"/>
      <point x="100" y="727"/>
      <point x="144" y="760"/>
      <point x="211" y="784"/>
      <point x="245" y="784" type="qcurve"/>
      <point x="306" y="784"/>
      <point x="381" y="728"/>
      <point x="381" y="644"/>
      <point x="337" y="595"/>
      <point x="308" y="585" type="qcurve"/>
      <point x="350" y="579"/>
      <point x="400" y="521"/>
      <point x="400" y="435"/>
      <point x="358" y="370"/>
      <point x="281" y="331"/>
      <point x="182" y="331"/>
      <point x="115" y="354"/>
      <point x="78" y="385"/>
      <point x="78" y="410"/>
      <point x="101" y="438"/>
      <point x="121" y="438"/>
      <point x="129" y="430" type="qcurve"/>
      <point x="161" y="389"/>
      <point x="227" y="389" type="qcurve"/>
      <point x="273" y="389"/>
      <point x="339" y="438"/>
      <point x="339" y="507"/>
      <point x="290" y="547"/>
    </contour>
  </outline>
</glyph>
<glyph name="questiondown" format="2">
  <advance height="1000" width="500"/>
  <unicode hex="00BF"/>
  <outline>
    <contour>
      <point x="265" y="398" type="qcurve"/>
      <point x="245" y="398"/>
      <point x="215" y="440"/>
      <point x="215" y="462" type="qcurve"/>
      <point x="215" y="508"/>
      <point x="265" y="508" type="qcurve"/>
      <point x="286" y="508"/>
      <point x="316" y="469"/>
      <point x="316" y="448" type="qcurve"/>
      <point x="316" y="428"/>
      <point x="291" y="398"/>
    </contour>
    <contour>
      <point x="207" y="-214" type="qcurve"/>
      <point x="137" y="-214"/>
      <point x="54" y="-139"/>
      <point x="54" y="-75" type="qcurve"/>
      <point x="54" y="14"/>
      <point x="114" y="75" type="qcurve"/>
      <point x="139" y="102"/>
      <point x="166" y="125" type="qcurve"/>
      <point x="236" y="184"/>
      <point x="236" y="245" type="qcurve"/>
      <point x="236" y="275"/>
      <point x="227" y="315" type="qcurve"/>
      <point x="227" y="322"/>
      <point x="245" y="331"/>
      <point x="256" y="331" type="qcurve"/>
      <point x="291" y="331"/>
      <point x="302" y="299"/>
      <point x="302" y="275" type="qcurve"/>
      <point x="302" y="165"/>
      <point x="231" y="106" type="qcurve"/>
      <point x="218" y="93" type="line"/>
      <point x="126" y="15"/>
      <point x="126" y="-69" type="qcurve"/>
      <point x="126" y="-106"/>
      <point x="166" y="-155"/>
      <point x="206" y="-155" type="qcurve"/>
      <point x="342" y="-155"/>
      <point x="384" y="-21" type="qcurve"/>
      <point x="389" y="-7"/>
      <point x="403" y="-7" type="qcurve"/>
      <point x="419" y="-7"/>
      <point x="449" y="-35"/>
      <point x="449" y="-49" type="qcurve"/>
      <point x="449" y="-54"/>
      <point x="447" y="-57" type="qcurve"/>
      <point x="366" y="-214"/>
    </contour>
  </outline>
</glyph>
<glyph name="Atilde" format="2">
  <advance height="1000" width="500"/>
  <unicode hex="00C3"/>
  <outline>
    <contour>
      <point x="170" y="281" type="line"/>
      <point x="329" y="291" type="line"/>
      <point x="304" y="390"/>
      <point x="270" y="531" type="qcurve"/>
      <point x="255" y="592" type="line"/>
    </contour>
    <contour>
      <point x="138" y="756" type="qcurve"/>
      <point x="131" y="756"/>
      <point x="121" y="766"/>
      <point x="121" y="772" type="qcurve"/>
      <point x="121" y="776"/>
      <point x="122" y="777" type="qcurve"/>
      <point x="129" y="811"/>
      <point x="174" y="863"/>
      <point x="211" y="863" type="qcurve"/>
      <point x="240" y="863"/>
      <point x="277" y="842"/>
      <point x="304" y="820"/>
      <point x="317" y="820" type="qcurve"/>
      <point x="334" y="820"/>
      <point x="360" y="832"/>
      <point x="370" y="855" type="qcurve"/>
      <point x="374" y="866"/>
      <point x="386" y="866" type="qcurve"/>
      <point x="403" y="866"/>
      <point x="403" y="850" type="qcurve"/>
      <point x="403" y="847"/>
      <point x="402" y="845" type="qcurve"/>
      <point x="396" y="813"/>
      <point x="350" y="759"/>
      <point x="313" y="759" type="qcurve"/>
      <point x="286" y="759"/>
      <point x="251" y="779"/>
      <point x="223" y="802"/>
      <point x="208" y="802" type="qcurve"/>
      <point x="190" y="802"/>
      <point x="164" y="790"/>
      <point x="154" y="767" type="qcurve"/>
      <point x="151" y="756"/>
    </contour>
    <contour>
      <point x="432" y="-8" type="qcurve"/>
      <point x="412" y="-8"/>
      <point x="404" y="4" type="qcurve"/>
      <point x="396" y="39"/>
      <point x="343" y="236" type="qcurve"/>
      <point x="155" y="225" type="line"/>
      <point x="145" y="188"/>
      <point x="118" y="99" type="qcurve"/>
      <point x="96" y="11" type="line"/>
      <point x="93" y="3"/>
      <point x="69" y="-7"/>
      <point x="56" y="-7" type="qcurve"/>
      <point x="43" y="-7"/>
      <point x="21" y="3"/>
      <point x="21" y="12" type="qcurve"/>
      <point x="21" y="16"/>
      <point x="24" y="22" type="qcurve"/>
      <point x="59" y="99"/>
      <point x="92" y="219" type="qcurve"/>
      <point x="87" y="218"/>
      <point x="81" y="218" type="qcurve"/>
      <point x="72" y="218"/>
      <point x="60" y="237"/>
      <point x="52" y="260"/>
      <point x="52" y="270" type="qcurve"/>
      <point x="52" y="285"/>
      <point x="65" y="285" type="qcurve"/>
      <point x="90" y="281"/>
      <point x="110" y="279" type="qcurve"/>
      <point x="210" y="625"/>
      <point x="217" y="682" type="qcurve"/>
      <point x="220" y="698"/>
      <point x="229" y="711"/>
      <point x="243" y="711" type="qcurve"/>
      <point x="259" y="711"/>
      <point x="297" y="693"/>
      <point x="301" y="683" type="qcurve"/>
      <point x="302" y="682"/>
      <point x="302" y="679" type="qcurve"/>
      <point x="302" y="675"/>
      <point x="299" y="664"/>
      <point x="299" y="659" type="qcurve"/>
      <point x="299" y="654"/>
      <point x="315" y="590" type="qcurve"/>
      <point x="437" y="89"/>
      <point x="476" y="25" type="qcurve"/>
      <point x="479" y="21"/>
      <point x="479" y="17" type="qcurve"/>
      <point x="479" y="6"/>
      <point x="448" y="-8"/>
    </contour>
  </outline>
</glyph>
<glyph name="AE" format="2">
  <advance height="1000" width="500"/>
  <unicode hex="00C6"/>
  <outline>
    <contour>
      <point x="158" y="279" type="qcurve"/>
      <point x="236" y="288" type="line"/>
      <point x="236" y="547" type="line"/>
      <point x="233" y="538"/>
      <point x="187" y="376"/>
    </contour>
    <contour>
      <point x="264" y="-10" type="qcurve"/>
      <point x="249" y="-10"/>
      <point x="232" y="27"/>
      <point x="232" y="37" type="qcurve"/>
      <point x="232" y="43"/>
      <point x="234" y="54" type="qcurve"/>
      <point x="236" y="69"/>
      <point x="236" y="229" type="qcurve"/>
      <point x="140" y="218" type="line"/>
      <point x="81" y="15" type="line"/>
      <point x="76" y="-4"/>
      <point x="56" y="-4" type="qcurve"/>
      <point x="35" y="-4"/>
      <point x="19" y="11"/>
      <point x="19" y="18" type="qcurve"/>
      <point x="19" y="38"/>
      <point x="40" y="87" type="qcurve"/>
      <point x="53" y="120"/>
      <point x="78" y="206" type="qcurve"/>
      <point x="83" y="208" type="line"/>
      <point x="63" y="208"/>
      <point x="48" y="245"/>
      <point x="48" y="258" type="qcurve"/>
      <point x="48" y="275"/>
      <point x="67" y="275" type="qcurve"/>
      <point x="99" y="275" type="line"/>
      <point x="132" y="378"/>
      <point x="163" y="486" type="qcurve"/>
      <point x="210" y="653"/>
      <point x="213" y="675" type="qcurve"/>
      <point x="216" y="708"/>
      <point x="238" y="708" type="qcurve"/>
      <point x="258" y="708"/>
      <point x="282" y="687" type="qcurve"/>
      <point x="406" y="704"/>
      <point x="414" y="706" type="qcurve"/>
      <point x="428" y="710"/>
      <point x="439" y="710" type="qcurve"/>
      <point x="465" y="710"/>
      <point x="465" y="658" type="qcurve"/>
      <point x="465" y="641"/>
      <point x="449" y="641" type="qcurve"/>
      <point x="430" y="642" type="line"/>
      <point x="412" y="642"/>
      <point x="293" y="625" type="qcurve"/>
      <point x="293" y="404" type="line"/>
      <point x="369" y="412"/>
      <point x="380" y="415" type="qcurve"/>
      <point x="396" y="419"/>
      <point x="406" y="419" type="qcurve"/>
      <point x="422" y="419"/>
      <point x="434" y="382"/>
      <point x="434" y="368" type="qcurve"/>
      <point x="434" y="350"/>
      <point x="417" y="350" type="qcurve"/>
      <point x="383" y="350" type="line"/>
      <point x="293" y="343" type="line"/>
      <point x="293" y="61" type="line"/>
      <point x="350" y="62" type="line"/>
      <point x="397" y="62"/>
      <point x="449" y="67" type="qcurve"/>
      <point x="478" y="67"/>
      <point x="478" y="14" type="qcurve"/>
      <point x="478" y="-4"/>
      <point x="461" y="-4" type="qcurve"/>
      <point x="452" y="-3" type="line"/>
      <point x="437" y="-2"/>
      <point x="397" y="-2" type="qcurve"/>
      <point x="291" y="-2"/>
      <point x="278" y="-10"/>
    </contour>
  </outline>
</glyph>
